<?xml version="1.0" standalone="no"?>
<!DOCTYPE svg PUBLIC "-//W3C//DTD SVG 20010904//EN"
 "http://www.w3.org/TR/2001/REC-SVG-20010904/DTD/svg10.dtd">
<svg version="1.0" xmlns="http://www.w3.org/2000/svg"
 width="660.000000pt" height="762.000000pt" viewBox="0 0 660.000000 762.000000"
 preserveAspectRatio="xMidYMid meet">

<g transform="translate(0.000000,762.000000) scale(0.100000,-0.100000)"
fill="#000000" stroke="none">
<path d="M2910 7550 c-36 -4 -119 -13 -185 -20 -279 -27 -609 -99 -925 -203
-445 -147 -871 -390 -1247 -714 -189 -163 -213 -196 -213 -299 l0 -67 81 -84
c58 -61 90 -104 115 -156 36 -77 74 -211 74 -264 0 -18 4 -33 10 -33 5 0 54
44 109 98 214 214 446 389 706 533 66 36 121 63 123 58 2 -4 -1 -25 -7 -46
-14 -48 -14 -114 -1 -147 l10 -26 361 0 361 0 34 34 c19 19 34 39 34 44 0 6
-22 8 -57 5 -47 -3 -78 2 -161 29 -57 18 -104 37 -104 42 1 18 177 66 244 66
33 0 38 -4 66 -54 70 -124 240 -186 423 -156 81 13 167 47 153 60 -5 4 -36 17
-69 29 -33 12 -94 47 -135 78 -41 30 -90 62 -107 69 -18 8 -33 18 -33 22 0 4
35 7 78 8 50 0 88 6 108 17 40 20 87 75 119 135 29 56 68 101 113 131 17 12
32 26 32 30 0 14 -111 20 -197 10 -100 -11 -164 -40 -215 -98 -35 -38 -58 -92
-58 -138 0 -57 -15 -70 -86 -78 -37 -4 -90 -13 -118 -20 -28 -7 -52 -12 -54
-10 -2 2 19 28 46 58 27 30 55 72 62 93 21 64 47 119 67 135 10 9 50 22 88 29
39 6 108 20 155 30 210 46 624 62 900 36 96 -10 195 -22 220 -27 25 -6 70 -15
100 -20 30 -5 79 -14 108 -20 58 -12 64 -19 112 -142 17 -46 41 -83 74 -117
27 -28 47 -52 45 -54 -2 -3 -27 2 -55 9 -28 7 -81 16 -118 20 -71 8 -86 20
-86 69 0 14 -9 50 -20 80 -37 99 -124 152 -270 166 -91 9 -180 3 -180 -11 0
-5 18 -20 39 -35 39 -25 84 -83 108 -135 16 -38 81 -107 117 -126 20 -11 57
-17 103 -17 39 -1 74 -4 78 -7 3 -4 -13 -16 -37 -28 -24 -11 -70 -41 -103 -66
-33 -25 -90 -57 -127 -72 -38 -14 -68 -32 -68 -38 0 -19 66 -42 157 -56 97
-15 197 -2 277 36 71 33 105 64 136 121 23 44 29 49 63 52 21 2 83 -8 138 -22
55 -14 102 -26 104 -26 3 0 5 -6 5 -13 0 -22 -176 -72 -252 -72 -79 0 -84 -9
-33 -54 l36 -31 362 2 361 3 9 40 c7 36 3 75 -19 180 -7 29 -6 30 13 13 11
-10 25 -18 31 -18 7 0 30 -11 52 -25 22 -14 42 -25 46 -25 11 0 174 -100 259
-158 162 -112 359 -277 484 -407 92 -96 94 -96 106 -5 11 83 50 198 90 265 20
33 70 94 110 136 41 41 77 87 80 102 20 78 -34 160 -198 306 -356 315 -801
577 -1237 726 -499 171 -980 246 -1570 244 -157 -1 -314 -5 -350 -9z m368
-112 c3 -22 -2 -30 -21 -37 -29 -11 -35 -27 -123 -296 -33 -99 -63 -183 -69
-187 -5 -4 -24 -8 -42 -8 -35 0 -27 -13 -215 361 -38 77 -47 88 -75 93 -26 6
-33 12 -33 31 0 27 8 29 135 40 39 3 85 8 103 12 l33 5 -3 -38 c-2 -30 -7 -38
-20 -36 -9 1 -19 -2 -23 -7 -6 -11 112 -251 125 -251 4 0 10 8 13 18 21 74 66
220 72 234 5 13 0 17 -27 20 -27 2 -34 8 -36 30 -3 26 -2 26 65 33 37 3 75 8
83 10 37 8 55 0 58 -27z m496 -10 c100 -12 120 -23 96 -53 -6 -7 -23 -15 -38
-17 -26 -3 -27 -6 -40 -108 -8 -58 -15 -145 -16 -195 -1 -86 0 -90 22 -93 18
-3 22 -10 22 -39 l0 -35 -42 6 c-24 3 -82 9 -130 12 l-88 6 0 34 c0 31 3 34
29 34 28 0 29 3 39 63 17 99 35 304 29 321 -4 9 -16 16 -27 16 -15 0 -20 7
-20 28 0 37 9 45 40 38 14 -3 69 -11 124 -18z m-1445 -142 c31 -33 39 -103 17
-147 -20 -40 -20 -39 3 -39 29 0 78 -46 91 -86 25 -74 -10 -166 -72 -196 -45
-22 -150 -62 -231 -88 -50 -16 -65 -3 -48 39 14 33 11 49 -60 269 l-40 122
-35 0 c-18 0 -34 3 -34 8 0 4 -3 17 -6 29 -5 19 1 23 53 39 32 9 94 30 138 45
108 37 192 39 224 5z m2136 8 c52 -21 95 -55 95 -73 0 -18 -32 -107 -42 -117
-4 -3 -19 -3 -34 0 -24 6 -26 10 -20 46 5 34 3 41 -21 59 -36 29 -68 36 -102
21 -32 -13 -47 -50 -32 -78 5 -10 44 -35 86 -56 88 -44 115 -78 115 -144 0
-46 -26 -107 -56 -133 -24 -20 -98 -49 -127 -49 -27 0 -214 65 -233 81 -19 16
-18 25 13 97 24 56 29 63 52 60 24 -3 26 -7 26 -50 0 -35 6 -52 24 -72 45 -48
134 -47 152 1 17 46 4 65 -77 112 -45 26 -84 57 -95 75 -36 59 -17 152 44 207
29 27 37 29 113 29 51 0 95 -6 119 -16z m-2015 -509 c0 -3 -13 -27 -30 -53
-16 -27 -30 -54 -30 -61 0 -6 -13 -40 -29 -75 -22 -49 -37 -69 -63 -82 -18 -9
-44 -25 -57 -35 -40 -32 -56 -24 -28 14 52 69 73 137 43 137 -8 0 -17 -8 -20
-18 -8 -24 -92 -118 -100 -111 -3 3 1 22 9 42 21 50 19 65 -5 39 -27 -28 -58
-31 -38 -4 60 85 139 143 245 182 78 28 103 34 103 25z m1734 -20 c134 -44
213 -94 260 -165 30 -45 43 -90 27 -90 -6 0 -11 4 -11 8 0 5 -9 19 -20 32
l-20 23 0 -22 c0 -12 5 -31 11 -43 6 -11 8 -22 6 -25 -7 -6 -97 87 -97 100 0
12 -31 36 -46 37 -20 0 16 -86 53 -129 41 -48 34 -51 -28 -13 -25 15 -54 32
-65 38 -26 15 -59 65 -80 122 -26 70 -42 105 -60 130 -20 27 -23 27 70 -3z
m-1254 -14 c0 -4 -14 -24 -30 -42 -17 -19 -43 -56 -59 -84 -29 -50 -65 -94
-79 -96 -4 -1 -20 -2 -37 -4 -16 -2 -41 -6 -55 -10 -20 -6 -14 4 30 47 30 30
66 61 79 70 13 9 22 21 20 27 -7 20 -104 -37 -159 -92 l-53 -52 7 34 c7 39 9
42 29 45 20 3 49 34 45 48 -3 7 -13 3 -27 -11 -12 -12 -25 -20 -28 -17 -10 9
26 55 55 70 45 23 153 56 186 56 17 0 38 5 46 10 19 12 30 13 30 1z m772 -11
c67 0 218 -63 236 -97 11 -21 22 -103 15 -103 -11 0 -43 43 -44 59 0 10 -2 12
-6 3 -3 -9 -13 -6 -36 10 -107 77 -125 61 -32 -28 78 -73 79 -75 45 -69 -19 4
-47 7 -62 6 -20 -1 -35 9 -62 42 -20 24 -36 47 -36 51 0 8 -73 110 -82 114 -5
2 -8 10 -8 18 0 11 4 12 19 4 11 -5 35 -10 53 -10z m-1884 -315 c-3 -55 -8
-77 -28 -102 -13 -18 -30 -33 -37 -33 -8 0 -16 -7 -19 -15 -5 -12 -10 -13 -20
-4 -18 15 -18 61 1 106 8 19 15 44 15 54 0 11 -7 19 -15 19 -8 0 -15 -7 -15
-15 0 -7 -6 -18 -14 -22 -32 -19 -58 -81 -57 -143 0 -43 -4 -60 -12 -57 -8 2
-13 33 -15 83 -3 76 -1 84 37 160 24 47 63 103 97 139 l57 60 14 -80 c8 -44
12 -111 11 -150z m3003 174 c101 -118 141 -209 137 -310 -3 -76 -21 -95 -24
-27 -3 53 -6 64 -28 108 -23 44 -56 80 -73 80 -16 0 -16 1 2 -50 8 -23 19 -73
23 -111 8 -64 7 -69 -10 -69 -11 0 -16 5 -13 10 3 6 1 10 -5 10 -6 0 -9 4 -6
9 3 4 -10 22 -28 39 -40 36 -70 117 -63 170 10 84 32 192 38 192 4 0 26 -23
50 -51z m-231 -8 l105 -39 0 -94 c0 -51 4 -106 9 -121 8 -27 7 -28 -20 -21
-16 4 -52 18 -80 30 l-51 22 -6 66 c-6 67 -34 146 -64 178 -22 25 -12 23 107
-21z m-2546 -26 c-15 -31 -27 -78 -32 -125 l-7 -74 -70 -27 c-96 -38 -97 -37
-79 14 11 30 14 61 10 113 l-7 71 103 40 c57 22 104 39 105 39 1 -1 -9 -24
-23 -51z m2446 -101 c0 -31 -2 -35 -15 -24 -8 7 -15 23 -15 36 0 15 6 24 15
24 11 0 15 -11 15 -36z m-2403 -16 c-15 -9 -19 -4 -11 16 5 14 9 15 15 5 5 -8
3 -17 -4 -21z m516 -74 c29 -15 71 -44 95 -65 24 -21 57 -41 73 -44 76 -17
-23 -51 -116 -40 -50 5 -119 25 -131 38 -4 4 -15 7 -25 7 -10 0 -21 5 -24 10
-4 7 2 9 18 5 17 -5 26 -2 30 9 5 12 0 16 -20 16 -20 0 -24 3 -16 11 13 13 66
-4 91 -28 37 -36 45 12 8 51 -13 15 -28 26 -33 26 -5 0 -18 7 -29 15 -18 14
-18 14 4 15 12 0 46 -12 75 -26z m1447 21 c0 -3 -15 -11 -33 -19 -32 -13 -77
-59 -77 -77 0 -5 9 -9 20 -9 11 0 20 4 20 8 0 4 17 14 38 22 20 8 41 17 46 19
5 2 6 -4 3 -14 -5 -12 -1 -18 13 -22 27 -7 16 -22 -34 -44 -58 -25 -165 -40
-231 -33 -58 7 -74 27 -31 38 13 3 45 23 71 45 54 45 140 90 173 91 12 0 22
-2 22 -5z m-1594 -77 c0 -18 -10 -15 -43 15 -36 32 -29 50 10 24 18 -12 33
-29 33 -39z m1704 34 c0 -10 -37 -42 -49 -42 -21 0 -20 31 2 40 28 11 47 12
47 2z m438 -80 c-54 -6 -27 -22 38 -22 45 0 70 -5 80 -15 14 -13 -8 -15 -197
-15 -117 0 -210 2 -207 5 3 3 45 12 94 20 49 8 112 21 139 28 28 8 57 12 65 8
10 -4 6 -7 -12 -9z m-2373 -42 c18 -5 -60 -8 -190 -9 -205 0 -218 1 -191 15
18 10 52 16 92 15 35 0 65 3 68 7 5 8 162 -12 221 -28z m-495 11 c0 -10 -22
-31 -32 -31 -9 0 -11 34 -2 43 7 7 34 -2 34 -12z"/>
<path d="M2133 7188 c16 -88 19 -98 38 -98 31 0 59 31 59 66 0 39 -27 64 -69
64 -32 0 -33 -1 -28 -32z"/>
<path d="M2190 6991 c0 -17 5 -33 10 -36 6 -3 10 -15 10 -27 0 -11 7 -35 16
-53 18 -39 44 -37 74 5 23 33 25 52 8 83 -27 47 -41 57 -80 57 -35 0 -38 -2
-38 -29z"/>
<path d="M2730 6549 c0 -5 5 -7 10 -4 6 3 10 8 10 11 0 2 -4 4 -10 4 -5 0 -10
-5 -10 -11z"/>
<path d="M1169 6104 c-105 -71 -100 -60 -97 -213 l3 -134 45 -32 c25 -18 50
-30 55 -28 6 2 10 60 9 151 -1 81 3 155 8 165 8 16 118 17 2087 17 1817 0
2080 -2 2091 -15 9 -10 11 -60 8 -180 -1 -91 -2 -165 0 -165 1 0 19 10 40 23
20 13 45 26 55 30 15 6 17 23 17 170 l0 164 -62 42 -61 41 -2072 0 -2073 0
-53 -36z"/>
<path d="M1240 5817 l0 -161 33 -34 32 -33 0 -107 c-1 -92 -5 -119 -30 -192
l-30 -85 0 -1240 c0 -1293 -1 -1267 42 -1460 17 -76 67 -247 83 -280 5 -11 23
-53 40 -94 18 -41 41 -90 52 -110 51 -90 74 -128 95 -157 35 -47 28 -55 -25
-29 -41 20 -53 33 -94 106 -113 205 -176 382 -231 649 -21 104 -22 121 -24
1295 -1 655 -4 1190 -6 1190 -3 0 -23 -23 -45 -52 -23 -28 -46 -54 -52 -58 -7
-4 -10 -345 -10 -1085 0 -929 2 -1094 16 -1187 17 -119 62 -307 93 -393 11
-30 27 -74 36 -98 18 -50 112 -241 143 -292 12 -19 22 -38 22 -42 0 -5 -22 -8
-50 -8 -49 0 -50 1 -84 54 -32 51 -145 267 -179 346 -55 125 -127 316 -127
339 0 5 18 16 40 25 l40 16 2 260 c1 143 2 274 2 292 1 17 -4 33 -10 35 -11 4
-100 -121 -123 -172 -7 -16 -14 -74 -16 -128 -4 -100 -10 -129 -19 -86 -2 13
-17 87 -32 164 -15 77 -28 171 -28 209 l-1 70 31 6 c50 11 120 51 158 89 l34
36 4 258 c2 141 0 257 -3 257 -15 0 -199 -184 -213 -214 -9 -20 -24 -71 -33
-116 -9 -44 -19 -80 -23 -80 -4 0 -8 98 -9 219 l-2 218 38 7 c21 3 49 6 63 6
32 0 139 51 162 76 15 17 17 47 18 238 1 120 -1 220 -4 223 -5 6 -124 -77
-148 -104 -27 -30 -65 -115 -73 -163 -11 -67 -21 -79 -28 -34 -6 34 8 131 52
374 l6 35 88 7 c48 3 94 11 101 17 9 8 11 33 8 90 -2 44 -1 122 3 173 7 93 7
93 51 142 47 50 99 135 122 196 31 84 52 168 52 212 l0 48 -45 0 c-24 0 -78
-7 -119 -16 -61 -14 -78 -15 -91 -4 -29 24 -16 38 48 49 34 7 95 15 135 18 46
4 71 10 69 17 -5 14 -65 58 -171 125 -48 30 -116 81 -151 114 l-65 59 -70 -62
c-39 -34 -90 -85 -115 -112 -39 -43 -45 -56 -45 -93 0 -52 15 -95 38 -113 14
-10 18 -36 23 -130 4 -64 10 -127 14 -139 7 -22 5 -23 -41 -23 -66 0 -92 -9
-99 -31 -4 -11 -17 -31 -29 -47 -35 -42 -69 -206 -70 -332 -1 -205 73 -343
232 -431 40 -22 43 -26 37 -54 -3 -16 -8 -66 -11 -110 -10 -160 -17 -172 -56
-103 -13 23 -63 76 -112 117 -80 69 -118 118 -149 193 -12 28 -36 -26 -53
-119 -33 -186 12 -385 116 -505 42 -49 122 -101 188 -122 35 -12 52 -23 52
-34 0 -18 13 -142 30 -281 5 -47 7 -87 5 -90 -3 -3 -24 13 -48 35 -23 23 -75
60 -116 84 -85 49 -142 97 -172 146 -11 19 -25 34 -30 34 -5 0 -9 -57 -9 -128
0 -96 5 -144 19 -195 66 -228 202 -362 393 -386 l50 -6 34 -118 c19 -64 48
-154 64 -199 39 -105 38 -112 -2 -88 -18 10 -67 31 -108 46 -87 32 -144 65
-182 105 -15 16 -32 29 -37 29 -17 0 -13 -80 9 -166 48 -190 165 -350 303
-415 56 -26 79 -31 158 -33 77 -2 95 -6 103 -21 6 -9 23 -36 38 -59 36 -53 35
-62 -6 -76 -46 -15 -116 -78 -155 -139 -32 -50 -51 -93 -97 -226 -13 -38 -28
-79 -33 -90 -14 -30 -125 -340 -151 -420 -13 -38 -31 -87 -42 -108 -33 -66
-61 -196 -62 -292 -3 -296 145 -476 406 -492 70 -5 97 -2 135 12 62 24 105 56
137 106 38 57 52 105 140 497 25 107 46 196 49 199 3 2 48 -31 100 -75 140
-117 197 -160 342 -255 226 -148 373 -213 660 -291 49 -14 151 -33 290 -57 67
-11 416 -18 555 -11 230 12 600 107 810 209 50 24 311 176 335 195 6 4 51 38
100 74 93 69 167 128 220 176 44 40 62 37 70 -14 12 -72 104 -469 126 -544 26
-87 84 -160 156 -195 39 -18 65 -23 138 -23 233 0 391 141 425 380 20 139 1
262 -66 431 -24 62 -44 119 -44 127 0 8 -4 17 -9 21 -5 3 -12 19 -16 36 -4 17
-13 42 -21 57 -8 15 -14 32 -14 38 0 6 -13 45 -29 85 -16 41 -55 144 -86 229
-86 231 -113 275 -206 337 -21 14 -39 29 -39 34 0 5 16 37 35 73 36 64 63 84
98 70 25 -9 155 13 201 36 105 50 203 163 259 296 33 78 59 200 55 255 l-3 44
-29 -33 c-40 -44 -108 -85 -195 -116 -39 -14 -85 -33 -102 -42 -17 -8 -33 -14
-35 -12 -2 2 20 74 48 158 28 85 56 177 62 205 l11 50 55 7 c105 13 195 60
256 131 60 70 68 82 95 142 46 101 59 171 59 309 0 69 -3 126 -7 126 -5 0 -19
-16 -32 -35 -35 -51 -89 -97 -172 -145 -41 -24 -93 -61 -116 -84 -24 -22 -44
-38 -46 -35 -2 2 5 91 16 196 l21 193 48 16 c114 38 197 109 251 216 61 120
81 279 53 418 -17 84 -30 120 -44 120 -4 0 -20 -28 -36 -61 -24 -50 -48 -77
-128 -145 -54 -47 -98 -90 -98 -97 -1 -18 -38 -63 -45 -55 -4 4 -11 59 -16
122 -4 63 -11 125 -14 138 -5 20 3 28 56 58 150 85 228 255 215 465 -17 272
-18 276 -35 273 -26 -4 -41 11 -41 42 0 39 -29 54 -107 52 -67 -1 -75 7 -49
43 10 14 12 44 9 121 -5 97 -4 102 16 109 31 10 51 57 54 125 l2 60 -105 105
c-57 58 -108 105 -111 105 -4 0 -35 -24 -68 -52 -34 -29 -118 -92 -188 -139
-145 -97 -161 -119 -86 -119 53 -1 179 -23 190 -34 4 -4 2 -15 -4 -24 -12 -19
-44 -20 -160 -5 -40 5 -78 6 -83 3 -13 -8 3 -116 26 -190 25 -76 85 -189 128
-237 48 -55 54 -87 55 -285 1 -93 5 -139 13 -144 6 -4 50 -10 96 -13 l85 -6
17 -85 c9 -47 22 -114 29 -149 19 -101 26 -201 13 -201 -7 0 -14 12 -18 28
-30 135 -53 175 -144 247 -38 30 -74 55 -79 55 -8 0 -11 -74 -11 -223 0 -219
0 -224 23 -245 32 -30 127 -72 163 -72 17 0 46 -3 63 -6 l31 -6 0 -219 c0
-121 -4 -219 -8 -219 -5 0 -13 31 -19 70 -16 99 -43 148 -130 232 -42 40 -83
81 -92 91 -8 9 -20 17 -26 17 -7 0 -9 -86 -7 -257 l3 -258 31 -32 c33 -34 133
-88 181 -98 28 -6 29 -7 22 -58 -4 -29 -13 -81 -20 -117 -8 -36 -21 -108 -31
-160 -24 -138 -33 -150 -33 -48 -1 52 -7 106 -17 135 -18 51 -109 193 -124
193 -6 0 -10 -111 -10 -293 l0 -294 40 -18 c45 -20 47 -27 24 -87 -99 -265
-204 -491 -287 -620 -37 -58 -37 -58 -86 -58 -28 0 -53 4 -56 10 -3 5 12 40
33 78 114 201 191 418 245 692 20 102 21 141 24 1224 4 1087 3 1119 -15 1140
-10 11 -34 43 -51 69 -18 27 -35 46 -38 43 -3 -3 -5 -490 -4 -1083 1 -1270 -4
-1350 -85 -1647 -58 -206 -195 -496 -253 -529 -48 -29 -53 -17 -15 43 150 234
252 544 284 858 6 64 10 556 10 1305 -1 1053 -3 1209 -16 1262 -38 145 -38
209 -2 273 15 28 18 56 18 202 l0 170 -32 1 c-18 1 -936 3 -2040 4 l-2008 3 0
-161z m3830 -1511 c0 -1452 -2 -1528 -41 -1716 -17 -85 -66 -252 -89 -305 -46
-108 -134 -275 -162 -310 -4 -5 -29 -39 -54 -75 -26 -36 -92 -112 -148 -169
-268 -274 -573 -443 -946 -523 -93 -20 -133 -22 -350 -22 -259 0 -332 9 -525
66 -129 38 -328 125 -403 177 -15 10 -56 38 -91 61 -248 164 -490 445 -602
698 -11 26 -27 61 -35 78 -52 115 -104 313 -123 473 -8 62 -16 2373 -11 2974
0 4 806 7 1790 7 l1790 0 0 -1414z m-4217 1359 c3 -19 29 -76 57 -125 73 -126
79 -157 48 -280 -15 -62 -24 -68 -32 -21 -11 68 -66 160 -98 161 -3 0 3 -24
14 -52 16 -42 21 -79 22 -170 1 -65 -2 -118 -5 -118 -15 0 -22 39 -25 128 -2
51 -8 100 -13 110 -11 19 -12 15 -16 -76 -3 -77 -24 -69 -49 20 -32 113 -13
275 47 411 29 64 41 67 50 12z m4914 -11 c61 -133 81 -316 47 -414 -9 -25 -18
-51 -20 -59 -8 -24 -27 5 -26 38 0 22 -3 28 -13 25 -16 -7 -29 -79 -23 -123 2
-17 1 -28 -4 -25 -4 3 -8 -4 -8 -15 0 -11 -3 -22 -7 -24 -5 -3 -8 50 -7 116 0
100 4 132 21 175 23 56 19 65 -14 30 -29 -32 -60 -96 -69 -141 -9 -50 -17 -39
-38 54 -21 93 -14 131 40 225 22 37 47 81 57 98 9 17 17 42 17 57 0 23 7 39
17 39 2 0 16 -25 30 -56z m-5110 -599 c25 -25 53 -45 62 -45 9 0 25 14 35 31
14 24 20 28 32 18 8 -6 14 -20 14 -30 0 -21 -57 -78 -78 -79 -22 0 -122 104
-122 128 0 12 2 22 5 22 3 0 26 -20 52 -45z m5299 -12 c-22 -40 -37 -57 -69
-77 l-27 -18 -41 40 c-24 25 -39 48 -37 59 5 29 32 25 50 -7 23 -40 46 -38 93
10 42 43 56 40 31 -7z m-5378 -37 c7 -19 26 -49 43 -67 53 -59 116 -153 124
-184 13 -52 17 -183 6 -202 -10 -17 -10 -17 -11 1 0 44 -101 196 -130 196 -7
0 -10 -3 -8 -7 2 -5 17 -37 35 -73 35 -72 49 -156 28 -164 -7 -2 -21 10 -31
29 -22 42 -35 37 -24 -10 l8 -36 -22 23 c-59 60 -104 220 -93 327 10 89 38
201 51 201 7 0 18 -15 24 -34z m5466 -38 c38 -155 27 -291 -30 -405 -31 -60
-59 -80 -49 -34 8 37 -12 51 -25 17 -5 -14 -11 -26 -14 -26 -2 0 -11 -3 -19
-6 -23 -8 -10 66 25 148 32 76 34 90 13 82 -20 -8 -101 -132 -109 -168 -6 -23
-9 -27 -17 -15 -13 20 -10 126 4 179 17 60 27 78 97 161 33 39 65 86 72 105 6
19 17 34 23 34 7 0 20 -32 29 -72z m-5055 -70 c-2 -73 -9 -98 -28 -98 -10 0
-26 -9 -36 -20 -40 -44 -37 -17 5 50 5 8 18 36 29 63 11 26 23 47 26 47 3 0 5
-19 4 -42z m4621 2 c11 -21 20 -44 20 -51 0 -6 9 -24 21 -40 28 -39 19 -58
-11 -25 -14 14 -31 26 -37 26 -7 0 -13 3 -14 8 -4 29 -7 122 -4 122 3 0 14
-18 25 -40z m-4760 -43 c-4 -17 -11 -48 -14 -68 -4 -19 -12 -44 -20 -54 -12
-17 -15 -14 -31 36 -10 30 -25 64 -33 77 -13 20 -13 22 6 22 11 0 35 6 53 14
43 18 49 14 39 -27z m4921 21 c4 -6 17 -7 29 -3 20 6 22 4 17 -16 -11 -45 -42
-124 -51 -129 -12 -6 -34 58 -42 122 -7 50 -7 50 17 43 13 -4 27 -12 30 -17z
m-4791 -192 c-12 -12 -30 2 -30 24 0 11 6 31 13 47 l12 27 6 -44 c4 -25 3 -49
-1 -54z m4617 62 c-3 -7 -5 -2 -5 12 0 14 2 19 5 13 2 -7 2 -19 0 -25z m21
-64 c-10 -10 -28 6 -28 24 0 15 1 15 17 -1 9 -9 14 -19 11 -23z m-4688 6 c0
-5 -10 -10 -22 -10 -19 0 -20 2 -8 10 19 13 30 13 30 0z m4740 0 c12 -8 9 -10
-13 -10 -16 0 -26 4 -22 10 8 12 16 12 35 0z m-4980 -248 c6 -14 8 -27 5 -30
-6 -6 -55 37 -55 49 0 18 40 3 50 -19z m5217 -9 c-28 -28 -42 -28 -31 1 7 17
44 38 53 30 3 -3 -7 -17 -22 -31z m-4917 -55 c0 -71 -3 -77 -44 -98 -16 -8
-46 -36 -65 -62 -20 -26 -39 -47 -43 -47 -12 -1 -10 37 2 44 6 3 10 18 10 33
1 44 37 112 83 153 23 22 45 39 49 39 5 0 8 -28 8 -62z m4707 -49 c12 -24 23
-57 23 -72 0 -15 7 -41 15 -57 13 -25 13 -30 2 -30 -8 0 -19 11 -25 25 -6 13
-38 46 -72 71 l-60 47 0 57 c0 31 3 60 7 63 12 12 87 -59 110 -104z m-5272
-49 c15 -29 25 -39 129 -132 81 -71 108 -130 120 -260 7 -64 -9 -89 -20 -32
-10 55 -154 202 -154 157 0 -4 19 -29 41 -56 36 -42 77 -133 65 -144 -2 -2
-15 2 -30 8 -22 10 -29 9 -44 -4 -17 -16 -20 -16 -39 6 -81 87 -128 283 -107
441 8 54 17 58 39 16z m5762 -140 c-7 -137 -46 -249 -113 -319 l-33 -35 3 27
c4 32 -10 34 -39 7 -19 -17 -24 -18 -34 -7 -17 21 10 88 59 145 22 27 40 51
40 55 0 43 -133 -92 -151 -154 -15 -48 -28 -33 -23 25 9 78 28 151 50 187 21
34 130 139 145 139 4 0 24 24 45 53 l38 52 9 -40 c5 -22 6 -83 4 -135z m-5197
51 c0 -78 -6 -101 -26 -101 -9 0 -14 11 -14 29 0 39 -17 48 -31 17 -7 -14 -16
-23 -20 -20 -15 9 -10 45 11 71 11 14 20 22 20 17 0 -5 9 6 20 24 30 49 40 40
40 -37z m4677 -15 c27 -34 17 -68 -17 -59 -14 4 -20 0 -20 -11 0 -22 -27 -20
-40 3 -11 22 -14 134 -3 145 7 7 39 -24 80 -78z m-4677 -516 c0 -143 -3 -187
-15 -210 -21 -40 -26 -38 -24 8 4 52 -9 70 -28 42 -11 -16 -18 -19 -27 -10 -8
8 -7 13 2 19 7 4 12 12 11 17 -3 18 1 33 14 46 7 7 23 30 36 51 21 34 21 37 5
37 -19 0 -114 -94 -114 -114 0 -6 -7 -19 -15 -29 -12 -17 -13 -9 -8 60 4 43
13 93 20 112 14 33 120 151 135 151 5 0 8 -81 8 -180z m4668 116 c58 -61 82
-111 82 -170 0 -24 7 -63 16 -89 9 -26 14 -52 11 -59 -2 -7 -8 1 -12 17 -16
62 -111 180 -150 187 -18 3 -20 12 -23 86 -3 101 5 104 76 28z m-5036 -32 c23
-12 27 -18 17 -24 -16 -10 -44 3 -53 25 -7 19 -2 19 36 -1z m5368 8 c0 -13
-32 -39 -57 -46 -28 -9 -29 -2 -4 23 26 26 61 39 61 23z m-362 -147 c38 -53
40 -74 8 -99 -14 -10 -22 -24 -19 -32 3 -8 -1 -14 -10 -14 -11 0 -17 14 -20
48 -8 80 -8 142 0 142 4 -1 23 -21 41 -45z m52 -119 c-7 -7 -14 -6 -22 2 -10
10 -10 15 2 22 17 11 34 -10 20 -24z m-5124 -158 c83 -48 154 -117 154 -149 0
-10 5 -21 10 -24 6 -3 10 -19 10 -34 0 -15 7 -36 15 -47 8 -10 15 -27 15 -38
0 -13 -13 -4 -45 32 -42 47 -128 112 -147 112 -19 0 -5 -22 38 -62 56 -51 98
-114 90 -134 -4 -12 -10 -12 -26 -4 -26 14 -40 6 -33 -20 8 -31 -8 -24 -68 29
-93 83 -168 264 -169 405 l0 48 38 -34 c20 -18 74 -55 118 -80z m5611 25 c-12
-166 -112 -350 -226 -416 -17 -10 -31 -13 -31 -8 0 6 7 11 16 11 8 0 13 4 9 9
-3 5 -1 12 5 16 5 3 10 13 10 21 0 17 -29 19 -36 1 -2 -7 -15 -14 -29 -15 -19
-1 -23 2 -18 16 13 35 38 69 97 130 35 36 54 62 45 62 -24 0 -101 -53 -141
-98 -45 -50 -65 -55 -42 -9 10 17 18 41 19 52 9 77 63 141 173 204 48 27 100
63 116 80 17 17 32 31 34 31 3 0 2 -39 -1 -87z m-5269 31 c-7 -6 -24 -15 -38
-18 -24 -7 -24 -6 -6 8 11 9 17 16 13 16 -5 0 -2 6 5 14 9 10 17 11 26 3 11
-8 11 -12 0 -23z m4814 -4 c4 0 8 -4 8 -9 0 -5 -9 -7 -20 -4 -11 3 -20 12 -20
20 0 9 -5 11 -12 7 -8 -5 -7 -1 2 10 14 17 15 17 24 -3 5 -12 13 -21 18 -21z
m-4725 -402 c-7 -157 -13 -208 -27 -208 -12 0 -21 65 -22 170 -1 77 3 105 20
143 12 26 24 47 28 47 4 0 4 -69 1 -152z m4630 105 c13 -30 16 -65 15 -158 -1
-66 -6 -133 -11 -150 l-9 -30 -1 30 c-1 17 -6 36 -12 42 -15 15 -25 303 -11
303 7 0 19 -17 29 -37z m259 -155 c4 -7 3 -8 -4 -4 -7 4 -12 1 -12 -7 0 -8 -7
-18 -16 -21 -28 -11 -30 4 -4 24 30 23 27 23 36 8z m-5129 -13 c3 -9 2 -19 -2
-23 -4 -4 -10 -1 -12 6 -3 6 -11 12 -19 12 -9 0 -12 5 -9 10 9 15 35 12 42 -5z
m4853 -220 c0 -8 -2 -15 -4 -15 -2 0 -6 7 -10 15 -3 8 -1 15 4 15 6 0 10 -7
10 -15z m-4610 1 c0 -3 -4 -8 -10 -11 -5 -3 -10 -1 -10 4 0 6 5 11 10 11 6 0
10 -2 10 -4z m-321 -200 c15 -13 71 -40 125 -61 119 -45 160 -80 210 -174 46
-87 46 -105 0 -59 -48 50 -166 109 -178 89 -7 -10 38 -51 86 -80 39 -23 103
-90 94 -98 -3 -3 -23 2 -45 11 -39 15 -41 15 -52 -5 -6 -12 -7 -19 -1 -15 11
6 38 -21 29 -30 -11 -12 -90 39 -142 92 -78 80 -139 200 -159 317 -8 43 -2 46
33 13z m5271 17 c0 -5 -7 -37 -16 -73 -18 -80 -74 -190 -127 -253 -45 -54
-140 -123 -146 -106 -1 5 5 17 15 25 11 9 13 13 7 9 -8 -3 -13 0 -13 8 0 9
-10 14 -29 13 -16 -1 -27 -5 -24 -10 3 -5 0 -7 -8 -4 -17 6 -61 -42 -55 -59 3
-7 2 -13 -2 -13 -4 0 -18 -3 -32 -7 -36 -10 101 141 160 175 52 31 82 63 70
76 -12 12 -136 -52 -175 -91 -18 -18 -36 -33 -39 -33 -12 0 64 139 95 175 38
42 62 56 182 101 50 18 96 42 104 53 14 21 33 28 33 14z m-4870 -466 c0 -5 -6
-7 -12 -4 -7 2 -12 10 -10 16 2 10 -11 15 -30 12 -10 -1 -10 13 -1 22 7 8 53
-31 53 -46z m375 -238 c28 -5 61 -12 75 -15 47 -10 147 -88 295 -229 318 -302
560 -462 847 -560 434 -147 848 -136 1278 32 279 110 517 273 815 563 160 154
215 191 314 210 148 28 257 1 337 -83 62 -66 66 -75 170 -360 106 -290 126
-348 121 -354 -3 -2 -27 10 -53 27 -92 58 -196 73 -344 49 -123 -19 -175 -50
-405 -243 -433 -362 -771 -521 -1286 -605 -393 -64 -856 -10 -1259 148 -204
79 -507 275 -728 470 -113 99 -223 176 -287 200 -68 26 -215 44 -280 35 -67
-9 -153 -41 -189 -71 -16 -13 -30 -22 -33 -20 -5 6 204 591 227 637 72 140
214 203 385 169z m-225 -765 c71 -8 133 -32 202 -76 75 -48 80 -54 72 -93 -7
-40 -32 -147 -48 -215 -8 -30 -17 -67 -20 -82 -9 -40 -21 -35 -40 16 -42 110
-166 196 -283 196 -35 0 -79 -7 -98 -14 -23 -10 -35 -11 -35 -4 0 28 84 265
98 276 10 7 33 10 61 7 25 -3 66 -8 91 -11z m4258 -11 c27 -68 83 -255 78
-260 -3 -3 -20 0 -37 7 -53 22 -153 15 -214 -15 -67 -32 -139 -111 -162 -176
-10 -27 -20 -49 -23 -49 -9 0 -73 280 -77 335 l-4 50 58 36 c32 21 72 44 89
52 42 22 158 45 225 46 53 1 57 -1 67 -26z m-4468 -2 c0 -4 -22 -74 -50 -155
-27 -81 -50 -156 -50 -167 0 -32 26 -33 66 -3 30 23 49 29 104 32 83 5 126 -8
188 -58 68 -53 94 -116 100 -240 3 -79 1 -106 -18 -160 -40 -119 -123 -180
-247 -181 -83 -1 -111 6 -188 43 -145 71 -209 189 -210 388 0 185 44 317 140
415 61 62 165 116 165 86z m4574 -6 c78 -33 176 -152 210 -256 37 -113 45
-242 21 -354 -28 -137 -94 -222 -213 -278 -60 -28 -77 -31 -162 -32 -107 0
-132 9 -195 72 -120 120 -121 366 -2 491 84 88 234 104 326 35 27 -21 35 -23
42 -12 13 21 12 27 -21 123 -16 48 -38 119 -49 157 -22 77 -19 80 43 54z"/>
<path d="M1539 4843 c-1 -1270 2 -1974 9 -2016 l7 -37 32 17 c43 24 282 172
558 345 66 41 206 127 310 191 105 63 244 149 310 190 66 42 206 128 312 193
106 64 194 124 196 133 4 13 5 13 6 1 1 -8 51 -43 110 -78 59 -35 155 -93 212
-129 57 -36 264 -163 459 -283 195 -119 391 -239 435 -267 435 -271 506 -312
513 -295 4 9 7 656 7 1437 l0 1420 -1737 3 -1738 2 -1 -827z m513 687 c31 -27
78 -80 106 -117 55 -75 162 -248 162 -263 0 -15 -46 -23 -69 -11 -11 6 -38 49
-60 96 -37 79 -135 235 -187 298 -24 29 -30 47 -16 47 4 0 33 -22 64 -50z
m2138 -8 c0 -10 7 -27 15 -39 13 -18 13 -22 0 -33 -24 -20 -19 -67 10 -86 24
-16 38 -15 94 2 20 6 23 4 18 -9 -4 -11 1 -17 15 -19 29 -4 35 -28 9 -35 -23
-6 -29 -33 -7 -33 7 0 19 -7 26 -15 11 -13 8 -15 -19 -15 -17 0 -70 7 -118 14
-49 8 -117 17 -152 21 -64 5 -88 14 -63 22 6 3 10 9 6 14 -3 5 0 9 6 9 14 0
40 25 40 38 0 5 9 17 20 27 23 21 25 37 8 64 -9 15 -8 26 6 55 9 19 24 40 34
45 21 12 52 -4 52 -27z m-1861 -67 c50 -58 152 -247 165 -307 5 -22 3 -28 -11
-28 -47 0 -63 13 -73 54 -23 90 -64 190 -111 267 -27 44 -43 79 -35 77 7 -2
37 -30 65 -63z m2011 -5 c0 -5 -7 -10 -15 -10 -8 0 -15 5 -15 10 0 6 7 10 15
10 8 0 15 -4 15 -10z m-2243 -261 c24 -11 58 -36 75 -55 30 -32 36 -34 98 -34
91 0 135 -15 167 -55 16 -19 34 -35 41 -35 19 0 14 27 -10 50 -30 28 -16 36
34 19 57 -18 123 -83 137 -134 8 -29 34 -63 102 -131 90 -90 91 -92 75 -115
-28 -40 -21 -77 19 -100 19 -12 35 -25 35 -30 0 -17 -35 -9 -73 17 -21 14 -57
34 -80 45 -84 37 -109 14 -27 -25 65 -31 140 -79 140 -88 0 -15 -29 -7 -161
42 -74 27 -141 50 -151 50 -30 0 -199 69 -234 96 -19 15 -47 47 -61 72 -32 55
-43 40 -13 -17 26 -52 95 -102 179 -131 61 -21 101 -45 90 -53 -2 -2 -28 -18
-56 -36 -32 -20 -71 -58 -100 -97 -60 -82 -98 -96 -169 -64 -59 27 -88 24 -92
-12 -3 -22 3 -29 43 -49 39 -19 45 -27 43 -48 -4 -33 -30 -38 -67 -12 -35 25
-99 28 -107 6 -11 -28 5 -62 35 -75 24 -10 34 -9 61 5 34 18 44 14 54 -21 5
-17 -9 -35 -71 -95 -108 -101 -164 -174 -213 -273 -44 -92 -77 -126 -121 -126
-34 0 -91 47 -107 87 -11 27 -22 356 -12 350 51 -27 82 -55 98 -90 23 -48 45
-71 86 -87 72 -27 91 32 31 98 -20 23 -38 56 -44 81 -13 58 -72 118 -128 133
l-42 10 -3 112 c-2 61 -3 192 -3 291 l0 180 50 -2 c46 -1 53 -5 95 -51 25 -27
55 -54 67 -61 46 -24 139 -8 181 31 13 13 41 57 63 98 21 41 56 95 78 119 45
48 42 71 -8 71 -39 0 -90 31 -114 69 l-21 34 34 -6 c22 -4 46 -20 65 -42 31
-36 55 -45 55 -22 0 7 -15 29 -33 49 -32 35 -85 58 -135 58 -13 0 -20 4 -17
10 11 18 97 11 142 -11z m513 -19 c0 -5 -4 -10 -8 -10 -5 0 -14 -11 -20 -25
-6 -14 -18 -25 -27 -25 -25 0 -17 34 13 52 32 19 42 21 42 8z m1340 -24 c0 -6
-94 -35 -139 -42 -24 -4 -54 -16 -68 -28 -21 -18 -24 -27 -18 -59 9 -45 19
-47 40 -7 16 31 51 40 72 19 20 -20 56 -6 66 26 11 34 23 45 53 45 11 0 31 12
45 26 l24 26 140 -5 c175 -6 298 -37 303 -76 3 -21 1 -23 -20 -17 -59 18 -102
18 -158 1 -79 -24 -96 -42 -80 -90 6 -19 12 -56 12 -81 0 -60 -24 -85 -104
-108 -35 -10 -69 -20 -76 -22 -10 -3 -10 -8 -1 -25 17 -33 14 -112 -6 -142
-17 -26 -49 -43 -72 -39 -17 4 -190 -55 -216 -73 -42 -30 -57 -20 -57 36 l0
52 34 -6 c45 -7 104 22 151 75 31 33 35 44 30 71 -19 98 -51 137 -112 137 -24
0 -51 -4 -61 -9 -30 -16 -120 -51 -131 -51 -6 0 -11 6 -11 13 0 7 -14 41 -31
76 -25 52 -29 68 -21 87 19 40 197 148 297 180 37 12 115 19 115 10z m520
-217 c0 -43 -5 -55 -29 -80 -16 -16 -36 -29 -43 -29 -13 0 -58 51 -58 65 0 9
30 5 50 -7 16 -11 22 -9 35 7 8 11 18 37 21 58 9 54 24 46 24 -14z m-156 -139
c-1 -69 -7 -104 -35 -185 -19 -55 -38 -100 -44 -100 -5 0 -11 17 -13 38 -2 20
-7 37 -12 37 -10 0 -65 -111 -75 -152 -13 -50 -29 -32 -37 42 -3 23 -7 21 -62
-37 -82 -87 -96 -83 -96 24 0 39 4 53 13 51 6 -3 14 -13 15 -24 2 -10 8 -23
12 -28 12 -12 80 57 80 82 0 31 20 80 36 86 10 4 20 -5 30 -30 8 -20 18 -33
22 -29 4 3 9 46 12 93 5 79 7 87 25 87 16 0 22 -10 29 -52 19 -104 56 -51 64
89 4 84 7 98 21 96 13 -3 16 -18 15 -88z m223 -1 c41 -140 -94 -293 -507 -573
-52 -36 -121 -85 -153 -110 -32 -25 -63 -46 -68 -46 -32 0 58 85 179 170 169
119 321 236 356 273 88 96 156 233 156 317 0 36 24 17 37 -31z m-13 -434 c4
-14 4 -30 1 -35 -8 -13 21 -108 44 -147 11 -17 45 -51 77 -74 60 -46 59 -59
-3 -38 -46 15 -110 79 -133 135 -25 58 -36 150 -20 169 18 21 27 19 34 -10z
m-236 -30 c17 -37 15 -136 -3 -172 -8 -17 -48 -57 -88 -90 -39 -33 -105 -90
-146 -127 -40 -36 -78 -66 -83 -66 -16 0 -21 32 -6 41 34 19 225 190 257 229
33 42 34 43 28 120 -3 43 -2 81 1 84 12 13 29 5 40 -19z m-578 -169 c0 -2 -7
-23 -15 -46 -8 -23 -15 -60 -15 -81 0 -43 -14 -52 -24 -16 -12 45 -6 94 15
121 17 22 39 35 39 22z"/>
<path d="M2327 5043 c-4 -3 -7 -21 -7 -39 0 -43 38 -74 91 -74 22 0 39 -4 39
-10 0 -5 9 -10 20 -10 24 0 26 26 5 57 -8 11 -36 35 -62 52 -45 30 -73 38 -86
24z m83 -67 c10 -14 9 -16 -7 -16 -26 0 -58 24 -49 39 8 13 35 2 56 -23z"/>
<path d="M2327 4833 c-24 -23 6 -100 52 -132 37 -26 51 -27 51 0 0 36 -87 148
-103 132z"/>
<path d="M2527 4833 c-4 -3 -7 -21 -7 -39 0 -25 10 -43 38 -74 43 -44 72 -52
72 -19 0 36 -87 148 -103 132z"/>
<path d="M2450 4756 c-12 -33 18 -87 64 -116 42 -26 46 -25 46 4 0 22 -64 115
-90 131 -5 3 -14 -5 -20 -19z"/>
<path d="M3233 3320 c-3 -11 -28 -36 -55 -56 -28 -19 -55 -49 -61 -64 -10 -27
-15 -29 -62 -29 -190 1 -196 -1 -175 -42 13 -24 -3 -91 -26 -110 -9 -8 -40
-16 -68 -19 -44 -4 -50 -8 -47 -25 2 -11 3 -56 2 -100 -2 -78 -1 -81 33 -121
41 -48 128 -91 274 -132 73 -22 112 -39 137 -61 49 -43 115 -44 165 -3 22 17
81 43 155 66 136 43 220 84 261 127 28 29 29 34 30 140 1 74 -2 109 -10 110
-6 1 -22 0 -36 0 -31 -2 -92 22 -110 44 -9 10 -11 32 -7 70 l5 54 -51 0 c-166
-1 -187 2 -187 20 0 21 -40 64 -81 88 -15 9 -32 27 -38 40 -13 28 -41 30 -48
3z m82 -82 c48 -34 67 -74 58 -122 -7 -33 0 -33 42 0 32 24 39 26 104 19 l69
-7 5 -42 c9 -63 24 -96 44 -96 10 0 41 -9 68 -19 40 -15 50 -24 50 -43 0 -12
4 -40 9 -60 6 -30 4 -44 -10 -67 -26 -40 -75 -79 -110 -86 -25 -5 -27 -5 -13
7 30 25 41 58 33 97 -5 20 -8 52 -9 71 l0 34 -121 0 -121 -1 -11 29 c-5 15
-25 36 -43 45 -17 10 -47 31 -66 47 l-34 29 -22 -22 c-12 -13 -40 -33 -62 -44
-24 -13 -46 -35 -55 -55 -13 -28 -19 -32 -40 -26 -24 6 -64 8 -178 5 l-54 -1
7 -39 c4 -24 2 -42 -4 -46 -17 -10 -13 -47 9 -82 27 -45 2 -45 -47 1 -35 32
-37 37 -35 87 5 103 4 102 57 121 64 23 73 33 82 98 l8 55 57 9 c67 10 95 4
125 -24 12 -11 25 -20 28 -20 3 0 5 20 5 44 0 48 15 71 70 110 46 32 51 32
105 -6z"/>
<path d="M2440 2785 l0 -166 -22 12 c-13 6 -44 29 -70 50 -26 22 -53 39 -61
39 -22 0 -27 -32 -27 -202 0 -120 -3 -158 -12 -158 -13 0 -66 41 -121 93 -17
15 -34 27 -38 27 -8 0 -10 -91 -13 -524 l-1 -120 48 -12 c26 -7 54 -17 62 -24
8 -6 26 -47 40 -91 28 -84 44 -101 78 -79 34 21 135 23 247 7 58 -9 143 -19
190 -22 62 -5 143 -24 302 -71 119 -35 231 -64 250 -64 18 0 126 29 239 64
180 56 223 66 335 76 71 6 149 15 174 20 72 15 175 12 220 -6 52 -21 54 -18
95 88 31 80 34 84 76 99 l44 17 6 83 c4 46 5 116 3 154 -1 39 -3 145 -3 238
-1 105 -5 167 -11 167 -6 0 -30 -19 -55 -42 -25 -24 -60 -51 -78 -61 l-32 -17
-5 177 c-4 149 -7 178 -20 181 -9 1 -45 -20 -80 -48 -36 -27 -69 -50 -75 -50
-6 0 -10 61 -10 162 0 132 -3 163 -14 163 -8 0 -23 -27 -36 -65 -50 -147 -113
-231 -274 -362 -11 -10 -56 -39 -98 -65 -138 -83 -299 -227 -349 -312 -17 -29
-51 -51 -79 -51 -8 0 -27 19 -42 43 -54 86 -202 219 -353 319 -216 142 -322
262 -373 419 -16 47 -30 75 -41 77 -14 3 -16 -14 -16 -163z m-62 -169 l60 -44
7 -100 7 -99 176 -159 c97 -88 209 -189 249 -226 40 -37 119 -106 174 -155 56
-48 96 -89 90 -91 -6 -2 -59 25 -118 61 -60 35 -130 76 -158 92 -27 15 -158
92 -291 171 -133 79 -248 146 -258 150 -14 5 -16 31 -16 225 0 121 4 219 9
219 5 0 36 -20 69 -44z m1882 -173 l-5 -217 -240 -143 c-132 -79 -285 -169
-340 -200 -55 -31 -133 -76 -172 -100 -40 -25 -77 -43 -83 -41 -6 2 15 24 45
50 51 43 131 115 325 293 36 33 122 111 193 174 l127 113 0 98 0 97 41 29 c75
52 94 64 104 64 7 0 8 -76 5 -217z m-1606 130 c39 -36 121 -99 183 -139 189
-125 293 -219 357 -326 l34 -56 4 -161 c1 -89 -1 -161 -5 -161 -13 0 -546 474
-699 621 -48 45 -48 46 -48 110 0 43 5 73 17 89 18 27 74 90 81 90 2 0 36 -30
76 -67z m1380 11 c45 -55 46 -58 46 -125 0 -66 -1 -69 -37 -102 -21 -19 -85
-76 -142 -128 -57 -52 -154 -138 -215 -193 -61 -54 -133 -119 -161 -145 -27
-25 -84 -75 -125 -110 l-75 -64 -3 150 c-2 129 0 156 16 194 26 59 107 159
184 226 58 51 89 72 253 179 33 21 92 69 130 106 39 37 73 68 76 68 4 0 27
-25 53 -56z m-1872 -202 c18 -15 50 -40 71 -56 31 -23 37 -33 33 -52 -13 -50
3 -71 80 -114 40 -22 201 -116 356 -209 379 -225 477 -281 494 -281 8 0 14 -4
14 -10 0 -15 -13 -13 -143 29 -67 22 -169 54 -227 71 -58 18 -148 47 -200 65
-52 18 -126 42 -165 53 -189 56 -341 105 -352 114 -16 13 -19 418 -3 418 5 0
24 -13 42 -28z m2286 -183 l-3 -212 -125 -38 c-324 -98 -387 -118 -410 -128
-14 -5 -86 -29 -160 -51 -74 -23 -191 -59 -258 -81 -68 -22 -129 -38 -135 -36
-7 3 -3 8 8 13 27 11 172 94 390 224 99 59 259 153 355 210 96 56 179 108 183
114 4 6 5 26 3 45 -4 29 0 38 25 60 17 14 47 41 67 58 63 55 63 57 60 -178z
m-2026 -346 c161 -51 209 -73 161 -73 -10 0 -55 8 -100 17 -75 15 -86 16 -139
1 -58 -17 -84 -15 -84 6 0 6 -11 32 -24 59 -19 39 -21 47 -8 47 9 0 96 -26
194 -57z m1908 22 c-11 -20 -20 -41 -20 -48 0 -7 -6 -21 -12 -30 -12 -15 -17
-15 -75 0 -59 16 -67 16 -158 -2 -80 -16 -121 -16 -104 -1 11 10 338 113 361
115 l28 1 -20 -35z"/>
<path d="M1710 1322 c0 -5 7 -15 15 -22 23 -19 19 -30 -43 -120 -57 -82 -67
-92 -107 -105 -20 -7 -20 -7 -1 -18 10 -7 26 -20 35 -29 22 -25 32 -22 25 7
-5 19 5 41 42 95 26 38 51 70 56 70 4 0 8 -58 8 -130 0 -151 8 -161 62 -81
112 166 118 172 158 151 28 -15 21 -33 -52 -142 -40 -59 -67 -90 -84 -94 -26
-7 -33 -24 -10 -24 8 0 29 -12 46 -27 l32 -27 -6 30 c-5 23 -1 37 14 56 11 14
20 31 20 36 0 18 33 23 54 8 53 -38 58 -45 52 -69 -9 -38 -53 -79 -76 -72 -25
8 -27 -13 -2 -22 9 -3 35 -20 57 -37 31 -25 37 -27 31 -11 -18 44 -18 57 1 78
11 12 41 55 67 95 47 71 69 85 94 60 18 -18 15 -29 -29 -109 -23 -41 -47 -84
-53 -96 -6 -12 -22 -27 -35 -33 l-25 -11 30 -20 c38 -25 54 -24 54 3 0 12 25
66 56 120 51 89 59 98 85 98 38 0 37 -13 -6 -106 -19 -41 -35 -78 -35 -83 0
-5 -13 -23 -30 -41 -30 -32 -32 -50 -4 -50 8 0 23 -5 34 -12 23 -15 38 -4 21
15 -9 11 0 38 40 123 29 60 54 111 55 113 7 8 54 -31 54 -45 0 -33 -30 -74
-55 -74 -30 0 -39 -14 -20 -30 22 -18 80 -4 99 25 20 31 20 74 0 103 -16 24
-125 82 -153 82 -15 0 -117 66 -158 103 -20 17 -23 18 -23 4 0 -9 4 -18 10
-22 12 -7 3 -32 -27 -72 -22 -31 -53 -44 -53 -24 0 5 -16 18 -35 30 -32 19
-46 45 -27 53 4 2 18 18 31 36 17 24 28 31 42 27 11 -4 19 -2 19 4 0 6 -4 11
-9 11 -4 0 -39 23 -77 50 -71 51 -87 59 -79 37 6 -14 -87 -153 -99 -149 -5 1
-8 53 -7 115 1 79 -2 117 -11 128 -18 23 -68 53 -68 41z"/>
<path d="M4710 1290 c0 -6 -15 -24 -32 -41 -28 -25 -30 -29 -13 -29 12 0 57
-36 109 -89 79 -80 87 -91 77 -110 -7 -11 -8 -21 -2 -21 9 0 81 68 81 76 0 2
-10 4 -23 4 -15 0 -50 28 -106 84 -66 66 -82 88 -77 104 4 11 2 23 -4 27 -5 3
-10 1 -10 -5z"/>
<path d="M4501 1220 c-11 -6 -12 -16 -5 -41 13 -45 34 -50 34 -7 0 42 -11 60
-29 48z"/>
<path d="M4590 1213 c0 -5 6 -15 13 -22 10 -10 7 -16 -13 -32 -14 -11 -35 -24
-47 -29 -29 -12 -53 -91 -42 -139 16 -73 96 -140 166 -141 35 0 49 6 83 38 34
33 40 45 40 80 0 22 -5 53 -11 69 -14 38 -67 91 -106 108 -23 10 -32 21 -35
42 -2 20 -9 29 -25 31 -13 2 -23 -1 -23 -5z m97 -135 c75 -70 91 -130 46 -173
-33 -30 -43 -31 -91 -6 -123 63 -153 221 -41 221 33 0 48 -7 86 -42z"/>
<path d="M4403 1026 c-37 -24 -40 -32 -15 -41 22 -8 142 -188 142 -215 0 -25
12 -26 35 0 10 11 26 22 36 25 25 8 14 25 -16 25 -18 0 -37 20 -85 91 -40 59
-60 98 -57 110 7 27 -4 29 -40 5z"/>
<path d="M4285 962 c-98 -39 -138 -129 -95 -217 53 -109 167 -131 247 -49 18
19 33 38 33 42 0 4 -12 25 -25 47 -14 22 -25 50 -25 62 0 25 -15 39 -25 23 -4
-6 -18 -15 -32 -21 -24 -9 -24 -29 1 -29 7 0 25 -19 40 -42 26 -39 27 -45 14
-68 -11 -20 -23 -26 -59 -28 -38 -2 -52 2 -79 25 -56 47 -85 136 -60 184 15
27 68 52 96 45 13 -4 24 -11 24 -16 0 -6 7 -10 15 -10 19 0 19 0 -1 38 -18 36
-15 36 -69 14z"/>
<path d="M3915 875 c-3 -8 -7 -22 -10 -30 -3 -10 5 -17 21 -21 30 -8 57 12 31
22 -9 3 -17 15 -17 25 0 23 -19 25 -25 4z"/>
<path d="M2890 797 c-7 -18 -15 -36 -18 -40 -2 -5 6 -4 18 3 18 9 25 8 41 -6
24 -22 38 -10 16 14 -10 10 -17 23 -17 29 0 6 -6 15 -13 21 -10 9 -16 4 -27
-21z"/>
<path d="M3975 790 c-16 -10 -36 -24 -43 -30 -7 -6 -21 -9 -30 -5 -19 5 -77
-18 -87 -36 -4 -5 -16 -9 -29 -9 -33 0 -37 -9 -16 -39 10 -14 22 -42 25 -63 7
-39 7 -40 -67 -52 -40 -7 -41 -6 -54 67 -3 21 -2 43 4 50 8 9 -21 11 -136 9
-81 -2 -150 -6 -153 -10 -4 -4 -9 -19 -13 -34 -7 -33 8 -38 24 -8 7 13 21 20
40 20 26 0 29 -3 34 -42 14 -118 14 -198 0 -212 -22 -23 -17 -26 36 -26 52 0
60 5 36 24 -11 8 -17 46 -22 134 l-7 122 42 0 c40 0 43 -2 61 -42 10 -24 26
-78 35 -121 14 -62 15 -80 5 -92 -7 -9 -10 -18 -7 -21 5 -6 87 4 87 10 0 2 -7
16 -15 33 -8 16 -18 50 -21 74 l-6 45 55 2 56 2 10 -37 c14 -51 14 -80 -1 -86
-7 -2 -10 -8 -6 -12 8 -9 98 24 98 36 0 5 -7 9 -15 9 -15 0 -23 24 -50 149
-26 118 -4 171 37 90 10 -19 32 -71 50 -117 23 -63 28 -86 20 -94 -26 -26 -7
-24 81 11 l92 37 3 43 c2 28 0 41 -7 36 -6 -3 -11 -19 -11 -34 0 -24 -6 -31
-43 -45 -23 -9 -48 -16 -54 -16 -9 0 -53 96 -53 115 0 3 11 5 25 5 14 0 25 5
25 10 0 15 21 12 42 -7 17 -15 18 -15 18 3 0 11 -7 30 -16 42 l-16 23 -23 -26
c-13 -14 -35 -25 -47 -25 -19 0 -26 8 -34 39 -13 46 -11 50 36 74 31 17 35 17
46 3 16 -23 24 -20 24 8 0 18 -21 41 -33 35 -1 0 -15 -9 -32 -19z"/>
<path d="M2556 756 c-63 -59 -82 -135 -49 -203 32 -69 115 -93 182 -52 45 27
36 32 -22 11 -46 -16 -49 -16 -85 3 -35 19 -37 23 -40 77 -3 63 17 115 61 157
22 20 32 22 67 16 36 -6 44 -12 59 -44 9 -21 22 -36 29 -33 17 5 16 62 -2 62
-7 0 -25 9 -39 20 -17 14 -40 20 -75 20 -44 0 -56 -5 -86 -34z"/>
<path d="M2876 696 c-20 -31 -20 -35 -2 -55 7 -9 16 -35 20 -58 6 -40 5 -43
-18 -43 -38 0 -50 23 -31 60 17 33 17 54 -1 42 -5 -4 -26 -36 -46 -72 -20 -36
-46 -75 -57 -87 -26 -27 -27 -43 -3 -43 9 0 28 -3 42 -7 25 -6 25 -6 6 16 -19
21 -19 22 1 49 17 22 28 27 58 25 21 -2 44 -8 51 -14 17 -14 18 -71 2 -87 -7
-7 -10 -12 -7 -13 49 -6 99 -8 99 -4 0 4 -6 12 -13 20 -8 7 -20 49 -27 92 -34
207 -42 227 -74 179z"/>
<path d="M3043 679 c14 -21 15 -38 6 -120 -11 -113 -4 -140 43 -169 50 -30 94
-26 133 13 28 28 33 42 39 100 4 38 5 71 3 74 -14 14 -25 -13 -32 -74 -9 -84
-24 -103 -81 -103 -33 0 -46 5 -54 19 -20 38 -6 241 16 241 8 0 14 7 14 15 0
10 -10 15 -27 15 -16 0 -39 3 -52 7 -23 6 -23 5 -8 -18z"/>
<path d="M2061 681 c-17 -11 -10 -46 9 -46 17 0 26 33 13 46 -4 4 -14 4 -22 0z"/>
<path d="M3230 674 c0 -20 24 -84 32 -84 5 0 11 14 15 30 3 17 10 33 14 36 20
12 7 24 -26 24 -19 0 -35 -3 -35 -6z"/>
<path d="M124 5466 c-35 -16 -74 -72 -74 -106 0 -15 23 -45 66 -86 36 -35 70
-64 75 -64 19 0 129 -102 162 -152 52 -75 82 -110 90 -102 4 4 7 30 7 58 0 98
30 150 125 222 l28 21 -57 32 c-31 18 -92 59 -136 91 -43 32 -93 66 -111 75
-44 23 -136 29 -175 11z"/>
<path d="M6295 5460 c-22 -11 -80 -49 -130 -85 -49 -36 -107 -74 -127 -85 -21
-11 -38 -27 -38 -35 0 -8 17 -28 39 -43 70 -49 86 -82 89 -194 2 -54 7 -98 10
-98 7 0 37 40 107 141 49 70 141 149 180 155 6 0 15 2 22 2 7 1 10 8 7 16 -3
7 2 16 10 19 8 3 29 25 46 48 16 23 30 37 30 31 0 -7 4 -12 8 -12 4 0 6 17 4
37 -3 26 -17 50 -45 80 -40 42 -41 43 -106 43 -45 0 -79 -7 -106 -20z"/>
</g>
</svg>
