<?xml version="1.0" standalone="no"?>
<!DOCTYPE svg PUBLIC "-//W3C//DTD SVG 20010904//EN"
 "http://www.w3.org/TR/2001/REC-SVG-20010904/DTD/svg10.dtd">
<svg version="1.0" xmlns="http://www.w3.org/2000/svg"
 width="259.000000pt" height="195.000000pt" viewBox="0 0 259.000000 195.000000"
 preserveAspectRatio="xMidYMid meet">

<g transform="translate(0.000000,195.000000) scale(0.100000,-0.100000)"
fill="#000000" stroke="none">
<path d="M607 1634 c-13 -13 -7 -41 10 -55 15 -12 16 -12 10 6 l-7 20 16 -20
c15 -19 15 -18 12 15 -3 33 -24 51 -41 34z"/>
<path d="M1872 1628 c-7 -7 -12 -23 -12 -36 0 -22 2 -23 17 -11 9 8 19 13 22
11 3 -1 7 9 9 23 4 27 -15 34 -36 13z"/>
<path d="M687 1609 c-9 -6 -17 -15 -17 -20 0 -6 5 -7 12 -3 8 5 9 2 5 -10 -4
-11 -3 -15 4 -11 6 4 8 13 5 20 -3 8 0 16 7 18 7 2 10 7 7 10 -3 3 -13 1 -23
-4z"/>
<path d="M940 1342 l0 -279 52 -7 c71 -10 145 -47 193 -97 l40 -42 -35 25
c-72 53 -128 73 -262 93 l-38 6 0 254 0 255 -25 0 -25 0 0 -274 0 -273 93 -5
c111 -7 185 -27 262 -73 57 -35 80 -42 87 -27 6 14 75 52 134 73 37 13 97 23
162 26 l102 6 0 273 0 274 -30 0 -30 0 0 -255 c0 -140 -1 -255 -2 -256 -2 0
-23 -2 -48 -5 -74 -8 -173 -41 -216 -72 -64 -46 -71 -47 -30 -4 45 47 135 90
206 99 l50 6 -2 276 -3 276 -50 -3 c-76 -5 -173 -40 -215 -78 -45 -41 -53 -41
-92 -9 -58 49 -126 75 -230 90 l-48 6 0 -279z m449 125 c-39 -26 -60 -83 -52
-137 3 -19 19 -68 34 -107 16 -40 32 -90 35 -112 14 -89 -83 -107 -215 -39
l-23 13 23 5 c60 14 18 82 -82 132 -52 26 -53 27 -22 28 17 0 61 -15 97 -34
36 -19 66 -31 66 -28 0 4 -7 27 -15 50 -33 95 3 175 100 222 72 35 101 39 54
7z"/>
<path d="M1276 1313 c-6 -14 -5 -15 5 -6 7 7 10 15 7 18 -3 3 -9 -2 -12 -12z"/>
<path d="M1800 1611 c0 -6 5 -13 10 -16 6 -4 8 -11 5 -16 -8 -11 5 -12 23 0
11 6 10 11 -3 25 -18 18 -35 21 -35 7z"/>
<path d="M570 1530 c-10 -25 -10 -34 4 -55 16 -25 34 -36 20 -12 -5 8 -2 8 9
-2 15 -12 17 -11 17 8 0 12 -8 37 -19 56 l-19 35 -12 -30z"/>
<path d="M1912 1526 c-12 -16 -22 -40 -22 -54 0 -25 0 -25 22 -6 12 10 18 13
14 7 -4 -7 -2 -13 4 -13 17 0 23 28 14 63 l-9 31 -23 -28z"/>
<path d="M652 1511 c-8 -5 -12 -17 -10 -27 2 -15 5 -13 15 9 14 30 14 30 -5
18z"/>
<path d="M1853 1499 c-1 -10 2 -19 8 -19 11 0 12 27 1 34 -4 2 -9 -4 -9 -15z"/>
<path d="M536 1404 c-8 -31 21 -85 34 -64 6 10 9 9 13 -1 3 -8 6 0 6 16 0 26
-27 75 -42 75 -3 0 -8 -12 -11 -26z"/>
<path d="M1942 1407 c-13 -13 -22 -36 -22 -53 l1 -29 17 28 c9 15 21 27 26 27
5 0 2 -8 -7 -18 -24 -26 -21 -39 3 -17 21 19 26 50 12 73 -6 9 -14 6 -30 -11z"/>
<path d="M525 1287 c-8 -29 7 -62 35 -77 17 -9 19 -8 13 7 -6 16 -5 16 10 4
33 -27 19 18 -18 56 l-34 35 -6 -25z"/>
<path d="M1954 1283 c-34 -30 -58 -87 -26 -61 13 11 15 11 10 -3 -5 -13 -2
-16 13 -12 26 7 41 37 37 74 l-3 30 -31 -28z"/>
<path d="M550 1141 c0 -35 18 -69 40 -76 29 -9 32 -4 15 29 -17 32 -20 50 -4
24 5 -10 15 -18 21 -18 16 0 -11 29 -44 46 -26 14 -28 13 -28 -5z"/>
<path d="M1930 1144 c-44 -23 -81 -81 -43 -67 11 4 14 3 9 -5 -4 -7 -1 -12 8
-12 26 0 56 38 56 70 0 17 -1 30 -2 29 -2 -1 -14 -7 -28 -15z m-15 -34 c-3 -5
-11 -10 -16 -10 -6 0 -7 5 -4 10 3 6 11 10 16 10 6 0 7 -4 4 -10z"/>
<path d="M600 1027 c0 -15 29 -77 37 -78 4 -1 22 -3 38 -4 28 -3 28 -2 8 7
-21 10 -22 12 -5 25 9 8 11 12 5 8 -8 -4 -13 0 -13 9 0 10 -9 16 -23 16 -13 0
-28 5 -35 12 -7 7 -12 9 -12 5z"/>
<path d="M1888 1011 c-7 -12 -16 -21 -21 -21 -4 0 -5 5 -2 10 3 6 -1 10 -9 10
-8 0 -18 -5 -22 -12 -4 -6 -3 -8 3 -5 11 7 28 -22 18 -31 -3 -3 -5 0 -5 6 0 7
-5 12 -12 12 -6 0 -8 -3 -5 -7 4 -3 2 -12 -4 -20 -9 -10 -7 -13 8 -13 23 0 59
32 68 60 9 30 -1 36 -17 11z"/>
<path d="M701 869 c14 -28 25 -39 42 -38 12 0 16 3 9 6 -6 2 -10 9 -6 14 5 8
-8 13 -27 11 -4 -1 -5 7 -2 17 3 12 -2 20 -16 24 l-20 5 20 -39z"/>
<path d="M1802 902 c-22 -3 -23 -4 -5 -18 17 -13 16 -14 -10 -10 -24 4 -27 2
-22 -14 4 -14 0 -20 -17 -23 -13 -3 -9 -4 11 -4 24 2 40 10 54 28 23 32 20 45
-11 41z"/>
<path d="M790 780 c8 -5 11 -10 5 -10 -5 0 5 -13 23 -30 31 -28 75 -40 85 -22
3 4 -9 7 -26 7 -26 0 -33 5 -35 23 -2 15 -9 22 -17 18 -7 -2 -16 2 -19 10 -3
8 -11 14 -18 14 -9 0 -8 -3 2 -10z"/>
<path d="M1680 765 c-9 -16 -22 -25 -39 -26 -23 0 -24 -1 -6 -8 16 -7 17 -9 5
-13 -8 -3 -4 -3 10 -1 27 5 56 28 71 55 8 14 6 18 -9 18 -10 0 -25 -11 -32
-25z"/>
<path d="M855 740 c3 -5 8 -10 11 -10 2 0 4 5 4 10 0 6 -5 10 -11 10 -5 0 -7
-4 -4 -10z"/>
<path d="M990 660 c8 -5 20 -10 25 -10 6 0 3 5 -5 10 -8 5 -19 10 -25 10 -5 0
-3 -5 5 -10z"/>
<path d="M1493 659 c-18 -5 -33 -12 -33 -15 0 -9 53 5 65 17 10 10 11 10 -32
-2z"/>
<path d="M1030 650 c0 -6 7 -10 15 -10 8 0 15 2 15 4 0 2 -7 6 -15 10 -8 3
-15 1 -15 -4z"/>
<path d="M920 567 c-18 -9 -26 -22 -28 -45 -3 -28 4 -42 42 -82 49 -53 52 -60
34 -78 -21 -21 -56 -14 -72 16 l-15 27 -1 -32 c0 -27 5 -34 25 -39 56 -14 105
18 105 68 0 24 -10 41 -45 72 -51 48 -57 73 -19 82 21 5 31 2 45 -17 l19 -24
0 26 c0 19 -6 28 -22 33 -32 8 -40 7 -68 -7z"/>
<path d="M1134 569 c-47 -14 -76 -51 -81 -106 -4 -39 -1 -53 18 -77 27 -35 75
-56 126 -56 46 0 58 7 68 39 l7 24 -27 -21 c-67 -53 -145 1 -145 98 0 48 34
90 74 90 39 0 76 -18 76 -36 0 -24 13 -8 17 20 3 20 -2 24 -34 30 -47 7 -60 7
-99 -5z"/>
<path d="M1683 573 c-33 -6 -79 -57 -86 -92 -9 -42 12 -100 44 -123 37 -28 99
-34 138 -14 81 42 96 165 25 211 -25 16 -87 26 -121 18z m88 -42 c24 -25 29
-38 29 -79 0 -82 -51 -124 -112 -91 -49 26 -64 134 -23 174 33 33 70 32 106
-4z"/>
<path d="M1953 565 c-76 -33 -95 -138 -36 -197 37 -37 94 -46 145 -25 49 21
72 58 72 118 0 55 -19 84 -71 105 -40 17 -69 17 -110 -1z m81 -15 c56 -21 76
-131 31 -175 -30 -31 -66 -32 -101 -2 -22 19 -28 34 -32 80 -4 50 -2 58 21 81
28 28 42 31 81 16z"/>
<path d="M195 560 c13 -5 35 -44 64 -119 24 -60 48 -108 51 -106 4 3 30 54 56
115 46 102 51 110 77 110 l28 0 -3 -110 -3 -110 35 1 c19 0 29 3 23 6 -18 7
-18 209 0 216 6 3 -28 6 -78 6 -49 0 -84 -3 -77 -7 9 -6 6 -25 -14 -80 -15
-40 -30 -72 -34 -72 -4 0 -19 32 -35 71 -23 59 -25 73 -14 80 9 6 -6 9 -41 8
-39 0 -49 -3 -35 -9z"/>
<path d="M605 548 c-2 -13 -6 -65 -7 -116 -3 -86 -2 -92 17 -92 19 0 20 6 17
82 l-4 83 79 -83 c44 -45 85 -82 91 -82 9 0 12 31 12 109 0 78 4 111 13 114 6
3 -8 5 -33 5 -25 0 -38 -2 -29 -5 12 -3 18 -21 22 -71 3 -37 2 -70 -2 -75 -4
-4 -42 29 -85 73 -43 44 -80 80 -82 80 -2 0 -6 -10 -9 -22z"/>
<path d="M1313 563 c15 -4 17 -18 17 -108 0 -73 -4 -105 -12 -108 -7 -3 10 -5
37 -5 28 0 42 2 33 5 -14 3 -18 15 -18 54 0 27 5 49 10 50 6 0 28 1 50 1 22 0
45 -1 50 -1 15 -1 13 -98 -2 -104 -7 -3 10 -5 37 -5 28 0 42 2 33 5 -16 4 -18
18 -18 108 0 90 2 104 18 108 9 3 -8 5 -38 5 -30 0 -47 -2 -37 -5 13 -3 17
-15 17 -49 l0 -45 -57 3 -58 3 -3 42 c-2 33 1 42 15 46 10 3 -7 5 -37 5 -30 0
-47 -2 -37 -5z"/>
<path d="M2183 563 c15 -4 17 -18 17 -108 0 -74 -4 -105 -12 -107 -7 -3 18 -8
56 -11 78 -7 86 -5 85 26 0 12 -3 16 -6 10 -2 -8 -22 -13 -44 -13 l-39 0 0 99
c0 86 2 100 18 104 9 3 -8 5 -38 5 -30 0 -47 -2 -37 -5z"/>
</g>
</svg>
