<?xml version="1.0" standalone="no"?>
<!DOCTYPE svg PUBLIC "-//W3C//DTD SVG 20010904//EN"
 "http://www.w3.org/TR/2001/REC-SVG-20010904/DTD/svg10.dtd">
<svg version="1.0" xmlns="http://www.w3.org/2000/svg"
 width="654.000000pt" height="693.000000pt" viewBox="0 0 654.000000 693.000000"
 preserveAspectRatio="xMidYMid meet">

<g transform="translate(0.000000,693.000000) scale(0.100000,-0.100000)"
fill="#000000" stroke="none">
<path d="M5210 6351 c-17 -5 10 -9 85 -12 61 -3 119 -2 130 2 14 6 9 8 -20 8
-22 1 -69 3 -105 6 -36 2 -76 1 -90 -4z"/>
<path d="M1131 6346 c12 -10 60 -16 54 -6 -3 5 -18 10 -32 10 -15 0 -24 -2
-22 -4z"/>
<path d="M1243 6333 c26 -2 68 -2 95 0 26 2 4 3 -48 3 -52 0 -74 -1 -47 -3z"/>
<path d="M4988 6322 c-14 -9 -64 -44 -109 -77 -46 -33 -118 -85 -160 -115 -93
-66 -381 -274 -539 -388 -63 -46 -119 -89 -125 -95 -9 -10 19 9 199 136 107
75 412 294 471 337 28 21 102 74 165 120 63 45 119 87 125 91 15 15 2 10 -27
-9z"/>
<path d="M5491 6322 c-1 -19 -5 -21 -26 -16 -14 3 -25 2 -25 -4 0 -6 -9 -8
-20 -5 -12 3 -40 -5 -65 -18 -43 -23 -57 -39 -34 -39 6 0 8 -8 5 -17 -5 -15
-4 -15 9 1 16 21 21 11 6 -12 -5 -9 -25 -13 -52 -12 -62 3 -69 1 -69 -11 0 -6
7 -8 18 -4 13 5 14 4 5 -6 -8 -8 -16 -9 -25 -2 -13 10 -32 0 -275 -151 -43
-26 -125 -77 -183 -113 -58 -35 -148 -91 -200 -124 -52 -32 -113 -68 -134 -80
-21 -11 -78 -47 -125 -79 -47 -31 -102 -65 -121 -75 -19 -10 -78 -46 -130 -80
-178 -115 -225 -144 -353 -217 -70 -40 -124 -74 -118 -76 10 -3 289 138 393
198 39 23 54 37 45 42 -9 6 -9 10 3 18 23 15 43 12 36 -5 -8 -21 0 -19 74 20
38 21 57 35 45 35 -20 1 -20 1 -1 15 16 12 21 12 28 2 5 -9 65 17 223 97 118
59 212 112 209 117 -3 5 -10 6 -16 3 -7 -5 -9 -1 -5 9 4 11 -1 21 -14 28 -20
10 -20 11 -3 30 9 10 22 16 28 11 10 -7 28 -8 51 -2 6 2 -6 6 -25 9 l-35 6 32
12 c18 7 32 9 31 5 -1 -4 2 -15 6 -24 10 -23 76 -22 76 0 0 9 3 12 7 9 3 -4
13 -1 21 6 9 6 13 7 10 2 -4 -6 -3 -17 3 -25 7 -13 9 -12 9 2 0 9 5 20 12 24
7 4 8 3 4 -4 -10 -17 7 -15 30 4 10 8 13 13 7 9 -16 -8 -17 21 -1 31 7 4 8 3
4 -4 -4 -7 -3 -12 3 -12 5 0 12 8 14 18 4 13 5 11 6 -5 2 -37 42 -22 48 18 2
13 6 25 9 28 8 9 58 7 64 -1 8 -11 229 105 223 116 -4 5 1 7 11 3 10 -4 24 1
35 12 11 11 21 17 24 15 2 -3 45 16 94 41 l89 45 260 1 c145 1 248 5 234 9
-14 4 -122 8 -241 9 -244 1 -228 -5 -230 84 -1 57 -16 123 -18 79z m9 -90 c0
-40 -26 -76 -58 -80 -18 -1 -23 2 -20 15 3 13 12 17 31 16 23 -2 27 2 26 25
-1 15 -1 41 0 57 2 42 21 12 21 -33z m-110 -39 c-11 -17 -11 -17 -6 0 3 10 6
24 7 30 0 9 2 9 5 0 3 -7 0 -20 -6 -30z m17 -38 c-4 -8 -14 -15 -22 -15 -9 0
-13 5 -10 10 4 6 11 8 16 5 5 -4 9 2 9 11 0 10 3 15 6 11 4 -3 4 -13 1 -22z
m-194 -15 c3 -11 3 -20 1 -20 -2 0 -8 9 -14 20 -6 11 -7 20 -2 20 6 0 12 -9
15 -20z m-43 -46 c39 -3 40 -3 40 -18 0 -9 -12 -14 -34 -14 -19 0 -40 -3 -46
-7 -6 -4 -23 1 -38 11 l-27 18 30 12 c17 7 35 9 40 6 6 -4 21 -8 35 -8z m-343
-189 c20 -20 12 -28 -21 -19 -26 6 -32 15 -19 27 10 11 23 8 40 -8z m-294
-163 c-10 -10 -20 -17 -22 -16 -6 5 20 34 30 34 5 0 1 -8 -8 -18z m49 -44 c-8
-8 -9 -4 -5 13 4 13 8 18 11 10 2 -7 -1 -18 -6 -23z m-92 1 c0 -5 5 -7 10 -4
22 13 8 -17 -17 -40 -39 -34 -63 -33 -57 3 5 28 28 52 51 52 7 0 13 -5 13 -11z
m-137 -81 c4 -12 1 -28 -5 -35 -9 -11 -14 -10 -30 3 -17 16 -17 18 -2 36 22
24 30 23 37 -4z m31 0 c-5 -8 -1 -9 12 -4 14 5 16 4 7 -5 -13 -13 -37 -3 -28
12 4 5 8 9 11 9 3 0 2 -5 -2 -12z m-152 -82 c7 4 8 2 4 -5 -9 -13 -26 -5 -25
12 0 9 2 8 6 -1 2 -6 10 -9 15 -6z m-92 -31 c-7 -9 -15 -13 -19 -10 -3 3 1 10
9 15 21 14 24 12 10 -5z"/>
<path d="M1447 6323 c18 -2 50 -2 70 0 21 2 7 4 -32 4 -38 0 -55 -2 -38 -4z"/>
<path d="M1037 6253 c-6 -56 -13 -75 -27 -83 -11 -6 -103 -10 -212 -11 -106 0
-211 -4 -233 -9 -25 -5 57 -8 225 -7 l265 1 -3 70 c-5 110 -7 116 -15 39z"/>
<path d="M1090 6310 c0 -5 5 -10 11 -10 5 0 7 5 4 10 -3 6 -8 10 -11 10 -2 0
-4 -4 -4 -10z"/>
<path d="M1568 6313 c7 -3 16 -2 19 1 4 3 -2 6 -13 5 -11 0 -14 -3 -6 -6z"/>
<path d="M1116 6294 c-3 -8 -11 -13 -17 -12 -16 4 -23 -60 -9 -77 14 -16 20
-76 8 -69 -4 3 -8 1 -8 -4 0 -5 11 -14 25 -20 22 -10 25 -9 31 12 4 16 12 23
27 21 12 -1 30 -3 40 -4 20 -1 18 -26 -1 -26 -6 0 -16 -5 -23 -12 -6 -6 -18
-9 -25 -6 -8 3 -14 3 -14 0 0 -3 30 -21 68 -40 37 -20 85 -45 107 -56 22 -12
67 -34 100 -50 33 -16 153 -76 267 -134 187 -96 207 -104 211 -85 4 12 -2 26
-14 36 -12 11 -15 18 -7 23 6 4 8 15 4 24 -4 13 -14 16 -36 13 -24 -4 -30 -1
-30 14 0 10 7 18 18 18 24 1 -15 29 -174 125 -73 44 -185 113 -248 153 -109
67 -119 72 -160 67 -41 -5 -44 -4 -39 15 4 13 11 19 20 16 24 -10 3 13 -26 29
-21 10 -31 11 -40 2 -8 -8 -11 -6 -11 10 0 24 -36 38 -44 17z m294 -158 c0
-11 -19 -15 -25 -6 -3 5 1 10 9 10 9 0 16 -2 16 -4z m-145 -22 c12 -5 14 -9 4
-14 -14 -9 -39 -2 -39 11 0 11 12 11 35 3z m-32 -38 c4 -10 1 -13 -9 -9 -7 3
-14 9 -14 14 0 14 17 10 23 -5z m184 -9 c-1 -5 -15 -11 -29 -13 -25 -2 -26 -1
-10 15 17 18 46 17 39 -2z m54 -79 c1 -7 1 -19 0 -25 -2 -16 4 -16 30 -3 13 7
19 7 19 0 0 -5 -6 -10 -12 -11 -7 0 -4 -4 7 -9 16 -7 17 -9 3 -9 -34 -2 -68
21 -68 46 0 23 19 33 21 11z m195 -25 c13 -16 24 -32 24 -38 0 -5 -4 -4 -9 4
-5 8 -16 11 -24 8 -12 -4 -14 -2 -10 10 5 13 2 15 -14 11 -16 -4 -19 -2 -16
13 7 26 22 24 49 -8z m-66 -29 c0 -8 -5 -14 -11 -14 -5 0 -7 -4 -4 -10 3 -5 0
-10 -9 -10 -14 0 -15 11 -1 42 8 20 25 15 25 -8z m134 -31 c9 4 16 2 16 -3 0
-6 -6 -10 -12 -10 -9 0 -8 -4 2 -10 8 -5 12 -10 8 -11 -5 -1 -12 -3 -18 -4 -5
-1 -18 -3 -27 -4 -16 -1 -16 -3 -3 -12 11 -8 8 -9 -15 -4 -31 7 -70 35 -47 35
7 0 12 -6 12 -12 0 -7 5 -5 11 5 5 9 18 17 27 18 12 0 13 2 3 6 -11 5 -11 7 0
14 8 4 16 3 20 -3 4 -6 14 -8 23 -5z m-94 -3 c0 -5 -5 -10 -11 -10 -5 0 -7 5
-4 10 3 6 8 10 11 10 2 0 4 -4 4 -10z m145 -19 c-3 -5 3 -11 12 -13 11 -2 14
-6 8 -10 -15 -9 -39 7 -31 21 4 6 9 11 12 11 3 0 3 -4 -1 -9z m12 -87 c-3 -3
-12 -4 -19 -1 -8 3 -5 6 6 6 11 1 17 -2 13 -5z"/>
<path d="M1620 6297 c0 -3 33 -29 73 -58 39 -29 115 -85 167 -124 122 -91 160
-118 160 -111 0 2 -60 49 -132 103 -175 130 -268 196 -268 190z"/>
<path d="M523 6118 c-30 -47 -33 -67 -33 -218 0 -175 -1 -179 -66 -200 -19 -7
-33 -14 -31 -16 2 -3 30 5 61 17 l57 21 132 -37 c73 -20 159 -45 192 -55 33
-11 103 -30 155 -44 52 -13 178 -47 280 -76 102 -28 250 -69 330 -91 80 -21
201 -55 270 -75 69 -19 157 -43 195 -53 39 -11 135 -37 215 -60 149 -43 296
-83 530 -146 74 -20 160 -45 190 -56 63 -22 60 -22 60 -10 0 5 -49 30 -110 55
-60 25 -133 57 -162 70 -258 118 -416 188 -548 246 -381 166 -511 224 -599
266 -51 24 -95 44 -96 44 -2 0 -82 34 -177 76 -188 82 -191 84 -323 144 -205
95 -434 191 -487 204 -17 4 -30 1 -35 -6z"/>
<path d="M5805 6055 c-298 -134 -880 -391 -1045 -461 -58 -25 -134 -59 -170
-76 -36 -17 -119 -54 -185 -83 -135 -59 -461 -204 -605 -270 -144 -65 -310
-135 -320 -135 -6 0 -10 -5 -10 -11 0 -6 8 -8 18 -5 9 2 62 18 117 35 55 16
152 44 215 60 63 17 162 44 220 60 97 27 410 112 660 180 58 16 168 47 245 69
164 48 341 97 440 122 39 10 108 29 155 43 47 14 130 37 185 52 55 14 147 40
204 57 l103 31 107 -32 c58 -18 120 -39 136 -46 l30 -14 -43 0 c-40 -1 -175
-32 -347 -79 -38 -11 -173 -48 -300 -81 -126 -34 -320 -86 -430 -116 -247 -67
-1568 -420 -1685 -450 -47 -12 -100 -30 -117 -38 -36 -19 -71 -60 -79 -94 -9
-34 -19 -29 -55 26 -24 35 -45 55 -78 69 -25 11 -194 60 -376 108 -181 48
-368 98 -415 111 -47 13 -152 41 -235 63 -302 80 -563 149 -690 183 -71 20
-224 61 -340 92 -116 32 -250 68 -300 80 -96 25 -220 58 -375 99 -107 29 -144
31 -179 12 -53 -29 -51 65 -46 -2256 3 -1185 8 -2184 11 -2219 8 -81 39 -132
100 -160 24 -12 54 -21 66 -21 28 0 230 -50 348 -86 47 -14 101 -30 120 -34
19 -5 73 -20 120 -33 169 -48 236 -65 302 -78 38 -7 68 -16 68 -20 0 -4 17 -9
37 -12 21 -3 94 -22 163 -42 203 -59 223 -64 315 -85 54 -12 112 -26 160 -40
22 -6 82 -20 133 -31 51 -11 101 -24 110 -28 48 -24 99 -40 247 -76 61 -15
119 -30 130 -35 48 -18 93 -30 113 -30 11 0 24 -4 27 -10 3 -5 18 -10 33 -10
15 0 47 -7 71 -16 42 -14 117 -32 168 -39 13 -2 40 -6 60 -9 21 -3 101 -8 178
-11 128 -5 148 -3 235 20 52 15 106 29 120 31 14 3 34 9 45 14 11 5 34 11 50
13 17 3 46 10 65 15 159 45 221 61 400 103 48 12 92 26 125 40 11 4 65 20 120
34 55 14 114 30 130 35 17 5 64 18 105 30 41 13 86 26 100 30 14 4 43 13 65
18 22 6 72 20 110 31 39 11 104 28 145 37 41 9 84 20 95 24 25 9 85 25 190 49
44 11 109 26 145 36 36 9 85 21 110 26 64 15 122 30 145 39 11 4 38 15 60 24
22 9 85 25 140 36 233 47 290 73 335 151 l25 44 3 2230 c2 1983 1 2230 -13
2238 -8 4 -15 16 -15 26 0 23 -58 52 -172 87 -80 24 -88 29 -97 58 -5 17 -8
78 -6 135 2 65 0 99 -6 90 -6 -9 -9 3 -10 39 -3 75 -3 76 -16 90 -22 23 -79
10 -218 -53z m-3149 -1517 c-9 -12 -16 -42 -16 -65 l0 -43 40 0 c35 0 40 3 46
27 4 14 2 40 -5 58 -6 17 -11 34 -11 38 0 4 27 7 61 7 58 0 60 -1 52 -22 -10
-27 -11 -264 -1 -273 3 -4 15 -4 26 -1 19 6 67 115 108 244 l17 53 39 -3 40
-3 39 -134 c21 -74 43 -139 49 -145 25 -25 10 -36 -49 -36 l-59 0 1 48 2 47
-45 0 -45 0 -5 -45 -5 -45 -118 -3 -119 -3 16 23 c16 23 21 83 10 112 -4 11
-19 16 -46 16 l-40 0 4 -57 c3 -32 7 -65 9 -73 3 -12 -8 -16 -55 -18 l-58 -3
7 28 c15 59 16 225 1 254 -8 15 -11 30 -8 33 3 3 34 6 69 6 l64 0 -15 -22z
m620 14 c6 -4 31 -44 54 -90 24 -46 48 -86 53 -89 10 -6 3 120 -9 165 -6 20
-3 22 36 22 41 0 42 -1 36 -27 -3 -16 -8 -82 -9 -149 -2 -67 -7 -126 -11 -133
-24 -38 -80 14 -134 124 -18 36 -36 65 -41 65 -7 0 -7 -134 0 -175 3 -17 -2
-21 -34 -23 l-39 -3 6 38 c12 87 16 210 7 240 -5 17 -7 34 -3 37 8 9 75 7 88
-2z m452 -17 c56 -47 67 -171 21 -236 -40 -57 -113 -74 -185 -44 -85 35 -99
216 -21 281 24 20 40 24 92 24 53 0 68 -4 93 -25z m212 11 c0 -8 -4 -18 -10
-21 -13 -8 -13 -199 -1 -242 5 -18 6 -35 3 -37 -4 -2 -30 -5 -57 -7 -45 -3
-50 -1 -47 17 2 10 6 73 9 140 4 102 2 122 -11 133 -29 24 -17 31 49 31 50 0
65 -3 65 -14z m-3230 -506 c11 -8 12 -12 3 -18 -17 -11 -22 -257 -5 -274 22
-22 12 -28 -45 -28 l-58 0 3 139 c2 84 -1 147 -7 159 -6 11 -7 22 -4 26 10 10
96 7 113 -4z m142 -2 c8 -7 32 -44 53 -83 46 -86 55 -96 57 -64 0 13 2 38 3
54 1 17 -4 44 -11 62 -16 41 -21 40 180 42 203 3 216 0 216 -45 0 -31 -3 -34
-29 -34 -18 0 -34 8 -44 23 -14 19 -18 20 -27 7 -12 -17 -8 -220 5 -257 7 -22
5 -23 -46 -23 l-54 0 3 145 c4 127 2 145 -12 145 -8 0 -23 -11 -32 -25 -20
-31 -46 -29 -54 5 -3 14 -14 26 -23 28 -15 3 -17 -7 -18 -80 -1 -46 0 -108 1
-139 1 -40 -3 -59 -14 -68 -32 -27 -59 -5 -116 93 -30 52 -58 92 -61 90 -4 -2
-5 -21 -3 -42 2 -20 5 -63 8 -94 l5 -58 -51 0 c-51 0 -51 0 -33 20 27 29 35
238 12 274 -9 13 -13 26 -10 30 11 11 79 6 95 -6z m743 4 c6 -4 11 -24 12 -44
3 -33 0 -38 -18 -38 -12 0 -30 11 -41 25 -22 28 -63 33 -72 9 -9 -23 -7 -82 3
-88 4 -3 17 1 27 9 38 28 54 19 54 -30 0 -49 -8 -54 -46 -29 -33 22 -46 8 -42
-47 3 -39 6 -44 30 -47 25 -3 35 4 61 41 8 12 19 16 30 11 14 -5 17 -16 15
-50 l-3 -44 -110 0 -110 0 3 140 c3 99 1 144 -8 155 -6 8 -9 19 -5 25 7 11
204 14 220 2z m263 -15 c29 -16 32 -22 32 -65 0 -35 -5 -52 -20 -65 -23 -19
-26 -40 -7 -59 14 -14 67 -103 67 -112 0 -9 -73 -7 -87 2 -6 4 -24 32 -40 62
-34 67 -58 73 -57 15 0 -22 4 -50 8 -62 7 -22 5 -23 -59 -23 l-66 0 15 22 c23
32 23 260 1 278 -27 23 3 31 95 27 55 -2 97 -9 118 -20z m180 15 c14 -10 87
-131 97 -162 3 -11 11 -20 17 -20 9 0 7 102 -4 165 -2 17 3 20 31 20 l35 0 -3
-149 c-1 -82 -5 -155 -8 -162 -8 -20 -50 -17 -70 5 -10 11 -38 58 -62 106 -24
47 -48 88 -54 92 -8 5 -6 -65 6 -192 2 -17 -5 -20 -40 -23 -24 -2 -43 -1 -43
1 0 3 7 18 15 33 17 33 21 239 6 264 -6 8 -7 18 -5 22 7 10 65 10 82 0z m395
-14 c8 -13 27 -72 43 -132 15 -60 38 -124 51 -142 l22 -34 -67 0 -68 0 0 48
c1 42 -1 47 -23 50 -61 9 -93 -23 -66 -64 8 -13 15 -26 15 -29 0 -3 -27 -5
-60 -5 -33 0 -60 3 -60 7 0 4 9 16 19 27 19 20 111 236 111 260 0 38 62 48 83
14z m356 8 c17 -20 10 -70 -10 -74 -9 -2 -30 9 -47 23 -17 14 -33 22 -36 17
-10 -17 -4 -209 9 -244 l12 -36 -59 -4 c-72 -4 -83 -1 -66 19 9 11 14 59 17
145 3 111 1 128 -13 128 -8 0 -23 -11 -32 -25 -22 -34 -41 -31 -49 7 -11 50 9
58 146 58 89 0 119 -3 128 -14z m142 -11 c-8 -36 -5 -259 3 -282 8 -22 6 -23
-45 -23 l-54 0 3 140 c3 98 0 145 -8 155 -20 24 -1 36 53 33 46 -3 52 -5 48
-23z m279 3 c56 -34 79 -158 41 -228 -29 -56 -76 -83 -137 -78 -68 6 -100 31
-120 95 -15 43 -15 60 -6 109 13 63 31 90 77 111 35 15 112 11 145 -9z m177
16 c15 -4 37 -33 68 -90 25 -46 50 -86 55 -89 12 -7 1 123 -12 149 -14 26 2
38 48 34 29 -2 38 -7 35 -18 -6 -23 -10 -95 -10 -202 l-1 -98 -38 0 c-35 0
-41 4 -62 43 -35 64 -92 157 -97 157 -5 0 5 -147 12 -181 6 -25 3 -27 -30 -31
-41 -5 -50 6 -37 43 11 29 10 223 -2 262 -8 25 -6 27 20 27 16 0 39 -3 51 -6z
m403 -10 c8 -8 26 -64 41 -123 34 -135 52 -173 82 -169 21 3 22 8 24 113 1 61
-2 126 -7 145 -12 42 -2 50 64 50 46 0 48 -1 40 -22 -13 -38 -16 -235 -4 -258
14 -26 41 -14 67 30 9 17 23 30 29 30 15 0 21 -36 14 -75 l-5 -30 -128 -5
c-71 -3 -158 -3 -194 -2 l-65 4 23 24 c19 21 21 27 10 50 -10 24 -15 25 -49
19 -20 -4 -40 -9 -44 -11 -14 -9 -9 -52 8 -68 14 -15 10 -16 -48 -16 l-64 0
33 68 c18 37 45 101 60 142 15 41 33 85 41 98 17 26 54 29 72 6z m676 8 c6 -4
15 -22 19 -40 9 -44 -17 -54 -50 -18 -27 29 -43 32 -70 12 -26 -19 -14 -41 48
-80 81 -52 97 -103 48 -158 -24 -27 -36 -32 -88 -36 -78 -5 -103 7 -103 53 0
28 4 35 19 35 10 0 26 -12 35 -26 13 -18 24 -24 44 -22 22 2 28 9 30 36 3 27
-1 35 -29 50 -57 31 -79 56 -86 94 -6 43 14 83 50 98 27 11 118 12 133 2z
m282 -35 c4 -50 -19 -59 -51 -21 -22 26 -27 27 -51 16 -15 -6 -31 -23 -36 -38
-15 -38 -12 -130 4 -169 12 -29 20 -35 44 -35 21 0 35 8 46 25 23 35 46 32 46
-4 0 -44 -23 -61 -82 -61 -68 0 -124 31 -139 79 -7 19 -12 61 -11 94 0 50 5
65 29 95 36 44 81 62 148 59 l50 -2 3 -38z m160 34 c10 -6 10 -10 -3 -21 -10
-8 -15 -29 -15 -61 l0 -49 45 0 45 0 0 49 c0 31 -5 53 -15 61 -23 19 -8 30 45
30 72 0 81 -5 64 -38 -20 -38 -19 -231 1 -258 8 -10 15 -22 15 -26 0 -5 -30
-8 -66 -8 -59 0 -65 2 -59 18 4 9 9 43 12 75 l6 57 -47 0 -46 0 0 -53 c0 -31
6 -61 16 -75 l15 -22 -64 0 c-69 0 -83 6 -66 27 7 8 11 60 11 140 0 108 -3
128 -17 136 -14 8 -15 11 -4 18 18 11 110 11 127 0z m421 -9 c56 -28 73 -59
73 -138 1 -82 -17 -123 -65 -153 -40 -25 -93 -27 -143 -6 -78 33 -100 193 -35
269 38 45 113 57 170 28z m329 -1 c50 -26 72 -66 72 -135 0 -80 -24 -132 -71
-156 -127 -65 -241 35 -209 184 23 108 114 155 208 107z m227 -3 c-10 -33 -18
-213 -11 -243 9 -36 36 -31 72 12 35 42 54 38 54 -12 0 -64 -1 -65 -121 -65
-83 0 -109 3 -109 13 0 7 5 18 11 24 12 12 7 232 -6 271 -7 21 -5 22 55 22 60
0 62 -1 55 -22z m-2528 -623 c0 -8 -4 -15 -8 -15 -4 0 -9 7 -13 15 -3 9 0 15
8 15 7 0 13 -7 13 -15z m-77 -5 c0 -5 -2 -10 -4 -10 -3 0 -8 5 -11 10 -3 6 -1
10 4 10 6 0 11 -4 11 -10z m470 -10 c0 -5 -4 -10 -10 -10 -5 0 -10 5 -10 10 0
6 5 10 10 10 6 0 10 -4 10 -10z m-388 -60 c12 -10 25 -17 30 -14 4 3 8 1 8 -4
0 -5 23 -7 52 -4 44 4 50 3 45 -11 -7 -20 15 -39 37 -31 13 5 14 9 5 20 -9 11
-8 15 5 20 8 3 21 4 28 1 7 -2 21 0 32 5 12 6 21 7 25 1 7 -11 115 -39 197
-52 47 -7 51 -6 46 11 -3 13 1 18 17 18 11 0 21 -4 21 -10 0 -5 11 -10 25 -10
16 0 25 6 25 15 0 17 2 18 24 9 11 -4 14 -13 9 -32 -4 -16 -2 -23 4 -19 6 4
21 -2 34 -14 21 -19 55 -23 51 -6 -1 4 -2 16 -2 27 0 11 -3 19 -7 19 -22 -4
-32 2 -27 15 3 8 14 14 25 13 19 -1 23 -9 20 -34 -1 -7 5 -13 12 -13 8 0 18
-10 22 -22 4 -14 8 -18 11 -11 4 10 9 10 20 -1 8 -8 14 -19 14 -24 0 -5 9 -17
19 -26 19 -17 32 -19 94 -15 33 2 47 -9 28 -20 -9 -6 3 -16 40 -34 39 -18 56
-22 61 -14 5 9 10 9 20 -1 6 -6 8 -12 3 -12 -5 0 39 -27 97 -59 59 -33 132
-76 162 -95 31 -20 71 -42 90 -50 19 -8 51 -30 72 -48 22 -19 60 -50 85 -69
141 -104 303 -257 412 -389 43 -52 95 -115 116 -140 20 -25 55 -74 77 -110 21
-36 54 -87 72 -115 49 -75 153 -286 200 -405 52 -136 98 -295 128 -445 34
-170 33 -179 -15 -193 -21 -7 -41 -12 -44 -12 -9 0 -25 61 -32 125 -9 82 -50
264 -62 276 -6 6 -24 -4 -49 -26 -54 -48 -160 -108 -296 -166 -65 -28 -112
-54 -112 -61 1 -7 6 -33 12 -58 31 -135 42 -186 42 -197 0 -20 -63 -50 -117
-57 -49 -6 -53 -5 -53 14 0 15 7 20 25 20 25 0 48 29 37 46 -4 6 -29 10 -57
10 -48 -1 -50 0 -53 28 -7 58 -69 115 -112 101 -10 -3 -21 -1 -25 5 -10 16
-61 12 -83 -7 -23 -20 -112 -151 -112 -164 0 -5 18 -12 41 -15 53 -9 71 -28
67 -72 -4 -43 -38 -71 -96 -79 -36 -5 -42 -3 -42 12 0 19 -27 55 -42 55 -4 0
-6 -17 -2 -38 4 -29 2 -41 -11 -52 -17 -14 -17 -11 -12 36 4 39 1 59 -12 81
-10 15 -24 45 -30 66 -13 37 -35 57 -66 57 -9 0 -31 11 -49 25 -38 29 -56 30
-146 10 -36 -8 -146 -22 -245 -30 -99 -9 -187 -18 -195 -20 -13 -4 -15 -35
-12 -215 2 -143 0 -210 -7 -210 -6 0 -11 6 -12 13 0 6 -3 100 -5 207 -3 107
-7 197 -10 199 -7 8 -88 5 -199 -6 -116 -12 -362 -23 -532 -23 l-101 0 -6 -28
c-3 -15 -8 -136 -12 -269 -5 -209 -8 -243 -22 -243 -13 0 -14 27 -8 243 4 133
8 255 9 272 l2 30 -194 18 c-107 10 -199 16 -206 13 -10 -4 -10 -17 0 -67 15
-71 11 -93 -16 -86 -15 4 -19 -1 -19 -24 0 -34 -17 -38 -61 -12 -25 15 -29 22
-23 46 6 28 5 28 -33 25 -30 -2 -39 -7 -41 -25 -2 -12 -10 -24 -18 -27 -10 -4
-14 3 -14 27 0 39 8 52 38 61 12 4 22 12 22 17 0 5 17 7 39 3 32 -5 43 -2 61
16 33 33 14 44 -55 33 -40 -7 -60 -7 -68 1 -23 21 -68 36 -112 36 -74 0 -109
-54 -118 -185 -2 -26 2 -30 34 -40 20 -5 34 -15 32 -21 -2 -5 -26 -34 -53 -63
l-50 -53 -85 23 c-49 14 -85 29 -85 36 0 7 17 22 38 32 20 11 61 45 90 75 54
55 54 56 59 129 l5 75 -51 11 c-83 18 -101 15 -101 -14 0 -14 -10 -33 -21 -43
-12 -9 -34 -30 -49 -46 -30 -31 -57 -29 -40 4 14 25 13 27 -11 33 -31 8 -12
29 23 25 23 -2 32 2 38 18 13 35 -3 45 -99 61 -89 15 -94 15 -134 -4 -23 -11
-56 -26 -74 -33 -23 -8 -35 -22 -43 -46 -7 -19 -15 -34 -18 -34 -4 0 -17 -3
-29 -6 -20 -5 -22 -2 -25 37 -3 40 -6 44 -30 47 -27 3 -28 2 -28 -48 0 -60
-18 -140 -32 -140 -9 0 -1 122 12 170 10 39 -26 116 -61 131 -17 6 -34 20 -40
31 -19 35 -39 15 -65 -62 -25 -74 -25 -76 -9 -130 10 -30 21 -63 26 -72 23
-45 -12 -52 -60 -13 -39 34 -45 56 -26 100 15 37 21 167 9 211 -4 15 -23 26
-72 41 -121 39 -187 64 -207 82 -11 9 -37 26 -58 37 -22 10 -68 45 -103 77
-42 39 -66 54 -68 45 -39 -115 -86 -335 -86 -400 0 -33 -20 -37 -76 -13 -30
12 -35 19 -31 37 3 13 9 41 12 63 54 331 198 720 357 963 109 166 125 189 195
272 181 216 282 313 493 476 169 130 510 319 668 370 29 9 59 23 66 30 8 7 16
11 19 8 2 -3 17 -2 32 2 25 6 26 8 11 19 -15 11 -14 13 6 19 21 7 19 9 -17 20
-22 7 -39 18 -38 24 2 7 -2 12 -9 12 -6 0 -8 3 -5 7 4 3 17 -2 29 -13 18 -15
20 -16 9 -1 -10 12 -10 17 -2 17 7 0 9 6 6 13 -4 6 0 4 8 -5 8 -10 25 -18 39
-18 34 0 50 -18 37 -42 -16 -29 -4 -33 43 -15 24 9 66 19 93 23 28 4 55 13 60
19 6 7 39 15 75 19 36 3 67 11 68 16 2 6 7 8 11 5 4 -2 21 0 37 5 24 7 25 8 7
9 -13 1 -23 7 -23 16 0 20 50 20 76 0 10 -8 33 -15 50 -15 39 0 54 -28 27 -48
-12 -10 -13 -13 -3 -9 8 2 23 -3 33 -11 12 -10 21 -13 25 -6 37 54 50 61 123
63 18 1 28 8 32 22 5 18 11 21 36 16 18 -4 31 -2 31 3 0 15 8 12 32 -10z
m-852 -15 c0 -8 -4 -15 -9 -15 -13 0 -22 16 -14 24 11 11 23 6 23 -9z m610
-35 c0 -5 -2 -10 -4 -10 -3 0 -8 5 -11 10 -3 6 -1 10 4 10 6 0 11 -4 11 -10z
m-780 -20 c-6 -11 -20 -20 -32 -20 -11 0 -26 -7 -32 -16 -7 -9 -22 -14 -37
-12 -20 2 -13 8 41 35 36 18 66 33 68 33 1 0 -2 -9 -8 -20z m1935 -7 c35 -17
51 -42 18 -28 -10 5 -33 10 -50 13 -19 2 -33 10 -33 18 0 19 22 18 65 -3z
m-45 -83 c0 -5 -2 -10 -4 -10 -3 0 -8 5 -11 10 -3 6 -1 10 4 10 6 0 11 -4 11
-10z m-2064 -82 c4 -7 4 -10 -1 -6 -4 4 -15 2 -24 -5 -14 -11 -14 -10 -2 6 16
20 18 21 27 5z m2564 -50 c27 -17 31 -23 18 -26 -17 -3 -67 26 -68 41 0 12 13
8 50 -15z m-2899 -23 c-42 -19 -52 -19 -27 0 11 8 29 15 40 15 16 -1 12 -5
-13 -15z m-68 -40 c-22 -17 -30 -11 -13 10 7 8 17 12 22 9 5 -3 1 -12 -9 -19z
m3991 -1771 c3 -9 6 -24 6 -35 0 -11 6 -32 14 -47 17 -34 30 -170 15 -155 -5
5 -12 31 -15 56 -3 25 -14 69 -25 99 -20 56 -25 98 -10 98 5 0 12 -7 15 -16z
m-4681 -46 c5 -16 -52 -259 -64 -273 -16 -16 -10 37 16 143 14 57 25 112 25
123 0 21 15 26 23 7z m4117 -338 c0 -13 -57 -13 -65 -1 -9 16 27 31 47 20 10
-5 18 -14 18 -19z m-2790 -150 c0 -5 -7 -10 -15 -10 -8 0 -15 5 -15 10 0 6 7
10 15 10 8 0 15 -4 15 -10z m390 -206 c16 -41 12 -64 -12 -73 -33 -12 -48 -3
-48 31 0 63 41 92 60 42z m-160 -30 c0 -8 -5 -12 -10 -9 -6 4 -8 11 -5 16 9
14 15 11 15 -7z m528 -133 c15 -22 15 -23 -9 -19 -16 2 -25 10 -27 27 -4 29
15 25 36 -8z"/>
<path d="M2980 4465 c0 -5 -3 -27 -6 -47 -5 -36 -4 -38 21 -38 21 0 26 4 21
16 -3 9 -6 21 -6 28 0 15 -29 55 -30 41z"/>
<path d="M3595 4507 c-11 -17 -16 -48 -16 -96 0 -87 5 -105 37 -125 23 -16 25
-15 49 8 22 22 25 33 25 103 0 91 -14 127 -52 131 -19 2 -31 -4 -43 -21z"/>
<path d="M1747 4003 c-10 -9 -8 -85 1 -101 7 -9 15 -10 35 -3 23 9 27 17 27
49 0 21 -5 43 -12 50 -13 13 -41 16 -51 5z"/>
<path d="M2362 3915 c-17 -37 -15 -55 7 -55 26 0 32 12 25 49 -8 38 -17 39
-32 6z"/>
<path d="M3083 3983 c-21 -31 -23 -156 -4 -192 34 -63 87 -38 100 47 9 56 -1
136 -20 158 -19 23 -57 16 -76 -13z"/>
<path d="M3727 3944 c-3 -5 -8 -26 -12 -47 -7 -37 -6 -39 16 -35 20 2 23 8 21
33 -5 36 -17 61 -25 49z"/>
<path d="M5224 3989 c-15 -17 -18 -35 -17 -100 2 -96 19 -132 61 -127 36 4 52
39 52 118 0 106 -49 161 -96 109z"/>
<path d="M5558 4000 c-26 -16 -42 -112 -28 -168 14 -57 26 -72 56 -72 40 0 59
43 59 131 0 62 -4 82 -19 98 -21 23 -41 26 -68 11z"/>
<path d="M3606 3237 c4 -13 2 -17 -5 -13 -6 4 -11 3 -11 -3 0 -16 42 -23 70
-13 28 10 80 10 97 -1 6 -4 13 0 17 8 3 9 -1 16 -9 16 -8 1 -18 2 -22 4 -5 1
-19 5 -33 8 -14 4 -44 9 -68 10 -38 3 -42 1 -36 -16z"/>
<path d="M2880 3240 c-30 -3 -48 -9 -40 -12 37 -16 119 -25 165 -18 59 9 51
12 -45 19 -20 1 -22 3 -10 11 17 11 22 11 -70 0z"/>
<path d="M3060 3225 c0 -8 7 -15 15 -15 9 0 12 6 9 15 -4 8 -10 15 -15 15 -5
0 -9 -7 -9 -15z"/>
<path d="M3100 3210 c0 -6 7 -10 15 -10 8 0 15 2 15 4 0 2 -7 6 -15 10 -8 3
-15 1 -15 -4z"/>
<path d="M3810 3210 c0 -5 -6 -9 -12 -7 -7 1 -12 -6 -12 -15 1 -13 -6 -18 -23
-18 -13 0 -21 4 -18 10 9 14 -8 13 -23 -2 -9 -9 -12 -9 -12 1 0 7 -5 9 -12 5
-16 -10 -68 -13 -68 -4 0 13 -59 3 -75 -13 -16 -17 -30 -22 -50 -17 -33 8 -75
8 -70 0 3 -5 0 -12 -6 -16 -7 -4 -9 -3 -6 2 3 6 2 16 -4 24 -6 10 -9 11 -9 3
0 -7 -7 -13 -16 -13 -9 0 -12 -5 -8 -12 4 -6 -9 1 -29 16 -21 16 -43 26 -52
22 -19 -7 -19 -22 0 -30 8 -3 15 -12 15 -19 0 -8 8 -25 19 -38 10 -13 22 -39
25 -56 4 -18 13 -33 21 -33 28 0 75 13 75 21 0 5 -6 6 -14 3 -8 -3 -26 7 -40
22 -24 26 -24 29 -8 44 34 31 78 16 88 -32 1 -5 3 -10 4 -13 1 -3 3 -11 4 -17
2 -21 54 -21 174 -2 93 15 116 22 125 39 6 11 11 25 12 30 0 6 6 11 13 11 25
3 25 4 6 20 -14 12 -15 14 -3 11 17 -6 22 22 6 34 -4 3 14 5 41 4 27 -2 56 3
66 10 15 12 12 14 -26 20 -24 4 -55 9 -70 11 -16 2 -28 0 -28 -6z m-325 -70
c-3 -5 -12 -10 -18 -10 -7 0 -6 4 3 10 19 12 23 12 15 0z m228 -23 c-3 -4 -16
-13 -30 -18 -19 -7 -24 -15 -20 -30 4 -16 3 -18 -8 -9 -8 7 -15 7 -19 1 -12
-18 -46 0 -46 25 0 13 1 24 3 24 1 1 20 3 42 6 22 4 41 7 42 8 7 6 41 0 36 -7z"/>
<path d="M4031 3106 c-43 -39 -125 -86 -150 -86 -6 0 -11 -4 -11 -10 0 -5 -8
-10 -19 -10 -12 0 -20 -9 -23 -25 -3 -14 -1 -25 3 -25 5 0 9 -7 9 -16 0 -17
15 -36 122 -162 l63 -74 70 7 c39 4 93 7 120 7 44 -1 47 0 27 10 -18 9 -22 17
-17 39 7 32 -14 52 -22 21 -2 -11 -11 -19 -19 -18 -22 3 -27 13 -16 32 7 13 6
27 -5 47 -18 37 -11 44 22 23 29 -19 79 -18 81 2 3 25 4 27 12 14 7 -10 19
-10 60 -1 47 11 50 14 40 32 -8 16 -7 23 6 32 9 7 16 17 16 23 0 6 15 12 33
14 31 3 29 4 -42 42 -59 31 -75 36 -82 25 -7 -11 -9 -10 -9 4 0 10 -12 22 -26
28 -28 10 -68 3 -59 -11 3 -4 -3 -11 -13 -16 -24 -10 -62 -12 -62 -2 0 5 -10
3 -21 -4 -17 -11 -23 -11 -26 0 -3 6 -9 10 -14 6 -5 -3 -9 0 -9 6 0 6 -4 8
-10 5 -5 -3 -10 1 -10 9 0 9 6 16 13 16 8 0 7 4 -3 10 -13 9 -13 10 0 11 8 1
20 2 25 4 6 1 18 3 28 3 26 3 20 19 -10 25 -21 4 -36 -4 -72 -37z m12 -133
c19 -5 33 -16 35 -27 4 -17 -1 -18 -33 -13 -21 3 -48 16 -61 28 l-24 23 22 24
23 24 3 -25 c2 -18 12 -27 35 -34z m231 25 c-3 -5 0 -8 6 -8 6 0 9 -4 6 -8 -2
-4 -1 -14 5 -22 6 -10 9 -11 9 -2 0 6 12 12 26 12 14 0 23 -4 20 -9 -4 -5 0
-12 6 -14 8 -4 4 -8 -9 -12 -13 -4 -23 -11 -23 -16 0 -5 -3 -8 -7 -7 -5 0 -16
-2 -25 -6 -33 -15 -53 -3 -54 32 -1 23 3 32 15 32 14 1 14 2 -1 11 -10 5 -18
18 -18 29 0 16 3 17 24 7 13 -7 22 -15 20 -19z"/>
<path d="M3966 3133 c-3 -4 -13 -8 -21 -10 -8 -2 -22 -4 -31 -6 -9 -2 -21 -12
-26 -22 -10 -16 -8 -17 23 -11 33 6 78 40 68 51 -3 3 -9 2 -13 -2z"/>
<path d="M4140 3121 c0 -18 50 -42 67 -32 14 8 11 12 -21 25 -45 19 -46 19
-46 7z"/>
<path d="M3112 2955 c2 -25 1 -45 -2 -46 -3 0 -13 -2 -22 -4 -10 -2 -18 2 -18
8 0 7 -5 5 -10 -3 -7 -11 -10 -11 -10 -2 0 7 -5 10 -10 7 -6 -4 -9 -1 -8 7 2
8 -7 13 -27 13 -20 0 -29 -4 -27 -14 2 -8 -3 -11 -13 -8 -9 4 -15 1 -15 -7 0
-7 -9 -25 -21 -40 -11 -14 -18 -26 -14 -26 3 0 1 -9 -5 -20 -6 -12 -7 -20 -1
-20 5 0 7 -9 4 -20 -6 -24 10 -26 28 -3 12 15 12 16 -1 8 -13 -7 -13 -6 -1 6
10 11 15 11 18 1 3 -6 8 -10 13 -7 8 5 40 -54 40 -74 0 -6 5 -11 10 -11 16 0
51 -63 49 -90 -2 -44 1 -50 27 -62 22 -10 25 -17 21 -45 -5 -26 -1 -36 16 -48
41 -29 47 -20 47 63 0 42 6 110 14 149 7 40 11 94 8 119 -3 32 -2 45 6 40 8
-4 8 3 1 26 -5 18 -9 50 -9 70 0 35 -14 52 -22 28 -2 -6 -18 3 -37 20 l-33 31
4 -46z"/>
<path d="M3292 2961 c-18 -11 1 -44 34 -62 31 -16 47 -59 48 -129 1 -33 5 -62
9 -66 4 -4 2 -13 -4 -21 -12 -13 -28 -76 -33 -123 -4 -39 -17 -61 -42 -70 -12
-5 -28 -18 -34 -30 -11 -21 -10 -21 87 -16 98 5 179 12 261 22 40 5 43 7 38
32 -15 91 -97 320 -119 334 -6 4 -9 10 -5 13 3 4 0 21 -7 38 -7 18 -11 42 -9
53 3 16 -3 23 -19 28 -34 9 -190 7 -205 -3z m173 -121 c3 -6 -4 -10 -17 -10
-18 0 -20 2 -8 10 19 12 18 12 25 0z"/>
<path d="M3534 2958 c-4 -5 3 -23 15 -39 11 -15 21 -37 21 -48 0 -11 22 -75
49 -143 26 -68 57 -154 67 -192 l19 -68 105 5 c99 5 292 25 298 31 5 6 -48
104 -64 117 -11 9 -47 13 -113 14 -78 0 -96 3 -96 15 0 11 13 16 45 18 27 2
50 9 58 19 7 10 12 12 12 5 0 -7 5 -12 10 -12 16 0 12 14 -10 38 -11 12 -20
25 -20 29 0 7 -20 30 -111 131 -16 17 -26 32 -23 32 4 0 -7 13 -23 29 -29 27
-34 28 -131 29 -57 0 -105 -4 -108 -10z"/>
<path d="M2824 2888 c-15 -24 -31 -44 -35 -46 -4 -2 -5 -10 -2 -19 5 -12 1
-14 -15 -8 -26 8 -30 -10 -5 -19 11 -5 23 0 31 11 10 12 13 13 10 3 -3 -8 2
-21 9 -28 18 -19 35 -4 52 45 7 21 24 53 38 71 l24 32 -40 0 c-37 0 -43 -4
-67 -42z"/>
<path d="M3238 2745 c2 -33 -1 -61 -8 -70 -16 -20 -26 -200 -11 -209 6 -4 14
0 17 8 3 9 11 16 18 16 6 1 23 11 37 23 22 18 27 33 32 87 3 36 8 72 11 81 5
10 -9 33 -39 67 -26 29 -50 52 -53 52 -4 0 -5 -25 -4 -55z"/>
<path d="M4426 2704 c-4 -10 1 -26 13 -38 10 -12 22 -31 26 -43 5 -20 3 -23
-22 -23 -21 0 -24 3 -13 10 8 5 12 10 10 12 -31 20 -49 25 -61 17 -22 -14 -69
-11 -69 5 0 8 -8 17 -17 20 -22 9 -152 -4 -159 -15 -3 -5 -16 -9 -30 -9 -32 0
-31 -5 11 -56 19 -23 35 -47 35 -53 0 -26 281 37 415 94 17 7 42 17 57 23 20
8 25 16 21 31 -7 27 -43 28 -50 1 -3 -12 -12 -20 -20 -18 -8 2 -13 7 -11 12 2
5 -17 14 -42 21 -25 6 -55 15 -66 18 -16 6 -23 3 -28 -9z"/>
<path d="M2947 2693 c-3 -5 2 -29 11 -56 13 -42 13 -49 0 -65 -15 -17 -41
-103 -33 -111 3 -2 11 2 20 9 10 8 15 9 15 1 0 -18 45 -13 69 8 12 11 30 17
41 14 11 -3 20 -1 20 5 0 6 -17 12 -37 14 -34 3 -38 6 -35 28 3 26 1 31 -38
113 -24 49 -26 52 -33 40z"/>
<path d="M4670 2625 c-7 -8 -20 -15 -29 -15 -9 0 -25 -6 -36 -14 -11 -7 -32
-16 -47 -20 -32 -7 -38 -26 -8 -26 11 0 20 -5 20 -10 0 -18 66 -80 85 -80 10
0 23 -7 29 -15 7 -9 16 -12 25 -6 11 7 9 10 -8 16 -16 5 -20 12 -16 23 14 33
25 93 20 103 -4 5 1 9 9 9 19 0 21 21 4 38 -16 16 -33 15 -48 -3z"/>
<path d="M4470 2549 c-19 -4 -73 -19 -120 -33 -47 -14 -107 -28 -135 -32 -27
-4 -44 -9 -37 -11 6 -3 12 -9 12 -13 0 -5 28 -57 63 -117 34 -59 75 -137 91
-173 15 -36 35 -76 44 -90 9 -14 22 -43 27 -64 l11 -39 93 96 c117 120 120
125 118 175 -1 28 5 51 19 69 34 47 37 65 11 63 -41 -4 -47 0 -47 28 0 31 -58
107 -90 117 -10 3 -20 11 -22 18 -2 9 -14 10 -38 6z"/>
<path d="M4025 2450 c-44 -4 -123 -10 -175 -14 -152 -11 -161 -16 -117 -59 14
-14 23 -38 25 -63 2 -21 10 -70 18 -109 8 -38 26 -133 39 -210 34 -185 51
-242 74 -248 10 -2 71 0 137 4 65 5 170 12 232 15 61 4 112 10 112 14 0 3 9
48 20 99 22 104 21 110 -43 219 -19 32 -39 74 -46 94 -6 19 -37 77 -67 129
-31 52 -60 104 -65 117 -9 24 -7 24 -144 12z"/>
<path d="M2861 2404 c-24 -13 -57 -24 -72 -24 -18 0 -37 -11 -56 -31 -15 -17
-44 -47 -63 -65 l-35 -35 33 -25 c40 -31 59 -67 63 -118 4 -38 3 -38 -47 -57
-46 -18 -51 -22 -46 -45 4 -20 1 -25 -9 -22 -8 3 -14 15 -13 27 1 29 -36 38
-70 16 -15 -10 -26 -27 -26 -39 0 -23 -33 -123 -55 -166 -8 -16 -10 -33 -4
-47 8 -21 16 -23 86 -25 146 -5 174 -1 204 28 30 29 56 25 39 -6 -8 -15 -6
-21 10 -30 28 -15 184 -32 260 -28 l61 3 1 158 c0 87 -3 161 -6 164 -12 13
-67 3 -94 -15 -15 -11 -43 -20 -62 -20 -48 1 -110 -28 -110 -50 0 -23 -27 -62
-43 -62 -7 0 -27 28 -44 63 l-32 62 28 6 c16 3 46 20 69 38 26 21 55 35 83 38
26 4 57 17 75 32 17 14 45 34 63 43 27 15 31 22 31 58 0 50 -22 105 -48 121
-17 11 -18 15 -6 26 20 21 17 32 -12 43 -43 17 -106 10 -153 -16z"/>
<path d="M3578 2410 c-9 -6 -92 -12 -185 -14 -193 -4 -219 -11 -220 -59 0 -18
-4 -113 -8 -212 -4 -99 -8 -232 -8 -295 l-2 -115 220 -3 c216 -3 450 12 461
30 3 5 -1 30 -9 56 -8 26 -22 94 -32 152 -9 58 -25 134 -36 170 -10 36 -24 98
-30 139 -6 41 -19 88 -30 104 -13 23 -15 34 -7 44 8 10 0 13 -43 13 -30 0 -62
-5 -71 -10z"/>
<path d="M3100 2353 c1 -15 39 -58 46 -51 13 14 -6 58 -26 58 -11 0 -20 -3
-20 -7z"/>
<path d="M2347 2264 c-43 -22 -47 -27 -41 -52 12 -55 13 -56 34 -37 26 24 120
13 120 -15 0 -11 -10 -20 -26 -24 -33 -9 -84 -46 -84 -62 0 -22 51 -103 82
-129 31 -26 48 -25 48 3 0 10 9 34 20 55 11 20 20 51 20 69 0 17 7 40 17 50
19 21 21 101 3 123 -18 21 -63 18 -93 -5 -23 -18 -27 -19 -41 -4 -21 20 -20
31 2 43 38 22 -14 10 -61 -15z"/>
<path d="M2571 2116 c-26 -28 -25 -61 3 -61 22 0 40 49 28 72 -6 10 -13 8 -31
-11z"/>
<path d="M2378 1718 c-8 -13 -20 -37 -27 -55 -8 -19 -42 -55 -82 -88 -65 -52
-77 -57 -192 -86 -136 -34 -163 -52 -147 -95 17 -43 -19 -84 -73 -84 -45 0
-45 46 -1 75 28 18 34 72 8 82 -47 18 -164 -62 -164 -113 0 -34 25 -81 72
-132 48 -52 66 -92 74 -166 5 -39 12 -57 23 -60 44 -12 87 -18 148 -18 37 0
85 -7 107 -14 40 -15 92 -21 245 -31 64 -4 85 -3 92 8 17 27 9 45 -26 58 -33
11 -35 15 -35 55 0 27 -6 48 -15 56 -19 16 -19 46 -1 134 18 85 25 92 64 72
40 -21 50 -65 27 -116 -19 -43 -14 -90 11 -90 15 0 73 -37 85 -54 10 -13 -17
-71 -33 -71 -8 0 -12 9 -10 24 3 29 -12 41 -51 41 -25 0 -27 -3 -21 -22 8 -26
100 -118 118 -118 7 0 10 19 8 55 -3 48 -2 55 15 55 35 0 45 -15 42 -66 l-3
-49 39 -1 c110 -1 353 -18 372 -25 14 -5 25 -3 32 5 7 8 11 103 11 272 0 142
5 291 10 329 5 39 13 95 16 126 l7 56 -149 7 c-216 11 -217 11 -241 -2 -26
-14 -54 -6 -47 13 6 15 -25 21 -168 30 l-88 5 0 -39 c0 -22 6 -44 15 -51 8 -7
15 -18 15 -26 0 -22 -33 -87 -57 -115 -14 -15 -27 -47 -33 -80 -5 -30 -18
-101 -30 -159 -12 -58 -25 -143 -29 -188 -8 -77 -22 -116 -34 -95 -10 18 14
198 48 353 20 91 38 183 39 205 2 22 10 54 19 70 15 29 26 129 15 140 -3 3
-12 -5 -20 -17z m-380 -474 c18 -8 32 -19 32 -22 -1 -12 -71 -52 -81 -46 -17
10 -8 84 11 84 4 0 21 -7 38 -16z"/>
<path d="M4190 1724 c-8 -2 -82 -8 -164 -13 -82 -6 -151 -13 -154 -15 -3 -3 3
-32 12 -64 9 -32 16 -79 16 -104 0 -25 4 -58 10 -74 14 -43 40 -272 46 -404 3
-63 7 -121 9 -127 3 -8 23 -13 52 -13 74 0 370 28 445 42 l67 12 -17 28 c-9
15 -19 28 -23 28 -4 0 -15 20 -24 45 -17 42 -17 46 0 71 18 28 17 60 -5 229
-14 101 -15 136 -5 183 5 21 4 32 -4 32 -17 0 -19 -12 -24 -170 -5 -140 -11
-180 -26 -180 -15 0 -37 105 -29 135 6 23 3 36 -13 58 -16 23 -17 28 -5 33 8
3 17 24 21 47 3 23 11 72 17 110 9 54 9 72 -2 92 -13 24 -17 25 -99 24 -47 -1
-93 -3 -101 -5z"/>
<path d="M3409 1673 l-255 -3 -14 -113 c-8 -61 -15 -239 -17 -394 l-4 -282 37
-7 c41 -8 622 17 739 32 l40 5 -2 77 c-4 114 -32 359 -49 423 -8 30 -14 77
-14 104 0 27 -7 75 -16 107 l-17 58 -86 -2 c-47 -2 -201 -4 -342 -5z"/>
<path d="M5660 1597 c-49 -23 -129 -88 -149 -122 -16 -28 -43 -46 -128 -88
l-107 -52 -19 -60 c-11 -33 -27 -84 -37 -112 -17 -50 -17 -53 -1 -53 41 0 56
25 55 94 0 64 0 65 18 49 14 -13 18 -28 16 -62 -3 -45 -3 -46 26 -43 43 5 171
58 264 110 l83 46 -6 41 c-10 62 -36 139 -51 148 -8 4 -14 15 -14 23 0 9 -5
12 -12 8 -7 -4 -4 2 7 13 l20 20 12 -35 c7 -19 17 -40 22 -46 8 -10 30 -78 37
-114 4 -22 11 -24 36 -10 47 26 49 47 12 159 -29 87 -45 103 -84 86z"/>
<path d="M955 1508 c-90 -12 -119 -26 -123 -61 -5 -45 67 -117 182 -180 58
-32 81 -35 67 -9 -6 12 -5 21 5 30 12 11 14 9 16 -10 0 -13 2 -29 2 -35 1 -7
10 -20 20 -30 18 -17 18 -17 12 7 -3 14 -9 61 -12 105 -4 47 -14 92 -24 110
-10 17 -20 42 -24 58 -7 30 -6 30 -121 15z"/>
<path d="M4844 1339 c-34 -16 -51 -36 -90 -102 -45 -77 -49 -87 -52 -163 l-4
-80 44 2 c23 1 71 11 105 23 34 11 77 21 96 21 36 0 198 38 208 49 4 3 9 49
12 101 l6 95 -41 33 c-46 37 -84 42 -93 12 -8 -26 -15 -25 -59 5 -45 30 -78
31 -132 4z"/>
<path d="M1206 1212 l-38 -26 63 -22 c35 -12 65 -20 67 -19 2 1 -2 23 -9 49
-13 54 -26 57 -83 18z"/>
<path d="M5183 1056 c-7 -8 -18 -16 -25 -19 -9 -3 -3 -15 20 -35 17 -17 32
-35 32 -41 0 -20 61 -80 75 -74 9 3 18 -4 25 -21 7 -19 17 -26 35 -26 29 0 30
2 11 38 -8 15 -16 53 -20 86 -3 32 -8 61 -11 64 -13 13 -24 -25 -18 -60 3 -21
3 -38 1 -38 -3 0 -19 23 -36 50 -17 28 -36 50 -41 50 -5 0 -13 9 -16 20 -7 23
-15 25 -32 6z"/>
<path d="M5257 1053 c-14 -13 -6 -33 13 -33 22 0 23 1 14 24 -7 17 -16 20 -27
9z"/>
<path d="M2280 880 c0 -5 6 -10 14 -10 8 0 18 5 21 10 3 6 -3 10 -14 10 -12 0
-21 -4 -21 -10z"/>
<path d="M2030 5997 c0 -3 26 -24 58 -48 31 -23 52 -36 45 -28 -14 17 -103 83
-103 76z"/>
<path d="M2150 5907 c0 -2 57 -47 128 -99 194 -143 232 -170 232 -165 0 3 -42
35 -92 72 -51 38 -118 87 -148 110 -75 56 -120 87 -120 82z"/>
<path d="M4945 5880 c-3 -5 -2 -10 4 -10 5 0 13 5 16 10 3 6 2 10 -4 10 -5 0
-13 -4 -16 -10z"/>
<path d="M1890 5832 c0 -5 11 -19 25 -32 14 -13 25 -20 25 -16 0 5 6 3 13 -3
8 -6 17 -8 20 -4 4 3 7 1 7 -5 0 -7 -5 -12 -11 -12 -8 0 -8 -5 1 -15 11 -14 7
-19 -12 -16 -5 0 -8 -3 -8 -8 0 -5 14 -12 30 -16 17 -4 30 -12 30 -18 0 -9 2
-9 8 0 6 9 14 6 32 -10 14 -13 34 -21 45 -19 13 3 17 1 10 -6 -5 -6 -20 -12
-32 -14 -16 -2 -2 -12 53 -39 65 -32 71 -34 51 -13 -12 13 -29 24 -36 24 -12
0 -12 3 -3 12 9 9 15 9 23 1 8 -8 20 -8 40 -1 l29 10 -22 18 c-24 17 -308 190
-314 190 -2 0 -4 -4 -4 -8z"/>
<path d="M4756 5785 c-10 -8 -22 -12 -27 -10 -4 3 -10 1 -13 -3 -3 -5 -18 -8
-32 -6 -33 3 -62 -22 -45 -39 9 -9 28 -3 81 23 38 19 70 38 70 43 0 11 -13 8
-34 -8z"/>
<path d="M1910 5723 c0 -12 28 -38 34 -32 2 2 -5 13 -15 23 -11 11 -19 15 -19
9z"/>
<path d="M317 5665 c-43 -15 -65 -32 -27 -20 55 17 94 34 80 34 -8 0 -32 -6
-53 -14z"/>
<path d="M3853 5507 c-166 -121 -250 -185 -163 -127 156 106 371 266 348 259
-2 0 -85 -60 -185 -132z"/>
<path d="M2530 5626 c0 -2 14 -14 30 -26 17 -12 30 -19 30 -16 0 2 -13 14 -30
26 -16 12 -30 19 -30 16z"/>
<path d="M2245 5609 c-4 -6 -5 -12 -2 -15 2 -3 7 2 10 11 7 17 1 20 -8 4z"/>
<path d="M2600 5576 c0 -2 8 -10 18 -17 15 -13 16 -12 3 4 -13 16 -21 21 -21
13z"/>
<path d="M2285 5542 c-3 -8 -2 -19 2 -23 10 -8 115 -61 326 -164 87 -42 197
-99 244 -126 47 -27 90 -48 96 -46 12 4 -326 212 -343 210 -3 0 -10 7 -16 15
-6 8 -30 16 -53 17 -27 2 -47 9 -57 21 -10 13 -17 15 -20 7 -4 -9 -11 -9 -30
-1 -26 12 -30 23 -14 33 6 3 10 2 10 -3 0 -6 11 -9 25 -8 33 1 32 11 -3 25
-15 6 -40 23 -56 36 -27 23 -54 26 -41 4 9 -13 -9 -11 -23 3 -18 18 -40 18
-47 0z"/>
<path d="M2680 5516 c0 -3 20 -19 45 -36 25 -17 45 -29 45 -26 0 3 -20 19 -45
36 -25 17 -45 29 -45 26z"/>
<path d="M2830 5406 c0 -3 20 -19 45 -36 25 -17 45 -29 45 -26 0 3 -20 19 -45
36 -25 17 -45 29 -45 26z"/>
<path d="M3629 5343 c-13 -16 -12 -17 4 -4 16 13 21 21 13 21 -2 0 -10 -8 -17
-17z"/>
<path d="M3530 5274 c-76 -57 -109 -85 -80 -68 26 15 160 115 160 120 0 7 -3
5 -80 -52z"/>
<path d="M3001 5277 c2 -1 13 -9 24 -17 19 -14 19 -14 6 3 -7 9 -18 17 -24 17
-6 0 -8 -1 -6 -3z"/>
<path d="M3218 5118 c5 -5 16 -8 23 -6 8 3 3 7 -10 11 -17 4 -21 3 -13 -5z"/>
</g>
</svg>
