<?xml version="1.0" standalone="no"?>
<!DOCTYPE svg PUBLIC "-//W3C//DTD SVG 20010904//EN"
 "http://www.w3.org/TR/2001/REC-SVG-20010904/DTD/svg10.dtd">
<svg version="1.0" xmlns="http://www.w3.org/2000/svg"
 width="197.000000pt" height="86.000000pt" viewBox="0 0 197.000000 86.000000"
 preserveAspectRatio="xMidYMid meet">

<g transform="translate(0.000000,86.000000) scale(0.100000,-0.100000)"
fill="#000000" stroke="none">
<path d="M470 572 c-58 -8 -106 -15 -108 -17 -2 -1 0 -15 4 -30 6 -24 10 -27
40 -22 40 7 40 7 56 -129 l13 -106 34 6 c18 3 35 6 36 8 1 2 -4 44 -11 93 -20
140 -19 145 16 145 34 0 45 16 33 46 -8 19 -11 19 -113 6z"/>
<path d="M868 563 c-10 -2 -18 -13 -18 -24 0 -10 -7 -19 -15 -19 -9 0 -15 -9
-15 -25 0 -16 6 -25 15 -25 12 0 15 -14 15 -68 0 -54 4 -72 18 -85 31 -29 102
-15 102 19 0 10 8 6 23 -12 19 -21 32 -27 66 -27 80 0 111 35 111 123 0 42 -4
52 -31 74 -44 37 -101 36 -140 -3 -24 -25 -29 -37 -29 -80 0 -48 -2 -51 -25
-51 -24 0 -25 3 -25 55 0 52 1 55 25 55 20 0 25 5 25 25 0 20 -5 25 -25 25
-20 0 -25 5 -25 25 0 25 -11 29 -52 18z m230 -149 c2 -36 -1 -54 -13 -64 -25
-21 -45 5 -45 60 0 53 6 62 35 58 17 -3 20 -11 23 -54z"/>
<path d="M754 513 c-19 -4 -21 -9 -16 -77 4 -63 2 -74 -13 -80 -28 -10 -37 7
-43 83 -4 64 -7 71 -26 71 -44 0 -48 -11 -40 -104 6 -72 10 -89 28 -101 28
-20 49 -19 79 5 22 18 26 18 38 4 19 -23 63 -14 67 14 2 12 -1 22 -7 22 -6 0
-11 21 -11 48 0 68 -11 122 -24 121 -6 -1 -20 -4 -32 -6z"/>
<path d="M1197 468 c-4 -18 -9 -66 -13 -105 l-7 -73 36 0 35 0 7 58 c8 63 18
82 46 82 12 0 19 -9 21 -27 2 -22 9 -29 33 -33 28 -5 30 -9 28 -43 -1 -20 2
-37 6 -37 5 0 16 -3 25 -6 12 -5 17 3 22 33 6 38 6 38 45 35 36 -4 39 -2 39
22 0 20 -5 26 -22 26 -38 0 -52 15 -44 45 5 19 3 31 -6 36 -26 17 -38 8 -44
-30 -6 -37 -7 -38 -38 -31 -27 6 -31 10 -29 38 4 39 -11 48 -42 28 -22 -15
-25 -15 -25 -1 0 10 -10 15 -34 15 -30 0 -34 -3 -39 -32z"/>
</g>
</svg>
