<?xml version="1.0" standalone="no"?>
<!DOCTYPE svg PUBLIC "-//W3C//DTD SVG 20010904//EN"
 "http://www.w3.org/TR/2001/REC-SVG-20010904/DTD/svg10.dtd">
<svg version="1.0" xmlns="http://www.w3.org/2000/svg"
 width="539.000000pt" height="406.000000pt" viewBox="0 0 539.000000 406.000000"
 preserveAspectRatio="xMidYMid meet">

<g transform="translate(0.000000,406.000000) scale(0.100000,-0.100000)"
fill="#000000" stroke="none">
<path d="M2605 3806 c-219 -35 -436 -132 -590 -266 -352 -303 -502 -753 -404
-1207 50 -230 154 -418 330 -593 164 -164 359 -272 589 -327 114 -27 421 -24
546 5 319 75 593 275 764 556 47 77 116 235 134 308 42 162 52 368 27 518 -41
239 -160 476 -325 648 -163 170 -389 297 -616 347 -100 21 -351 28 -455 11z
m385 -36 c19 -6 68 -17 108 -26 125 -26 366 -149 400 -204 18 -30 -13 -27 -41
4 -12 13 -32 27 -44 31 -33 9 -30 -17 12 -95 40 -73 41 -82 19 -101 -15 -12
-21 -8 -55 31 -35 41 -40 43 -66 34 -23 -8 -29 -17 -34 -49 -3 -22 -11 -50
-19 -62 -12 -18 -12 -34 -1 -97 14 -83 10 -101 -18 -86 -29 15 -51 73 -51 135
0 41 -3 56 -12 53 -7 -3 -14 -15 -16 -29 -5 -34 -29 -49 -79 -49 -37 0 -44 -4
-58 -30 -8 -16 -15 -38 -15 -50 0 -16 6 -20 34 -20 28 0 38 -6 55 -34 12 -20
21 -50 21 -75 0 -37 2 -41 25 -41 29 0 31 -7 9 -31 -9 -10 -21 -50 -27 -89
l-11 -72 -62 -28 c-34 -15 -67 -37 -73 -48 -6 -12 -11 -53 -11 -92 0 -64 2
-72 20 -77 17 -4 18 -8 7 -17 -11 -9 -13 -45 -9 -169 5 -183 1 -177 114 -177
39 0 76 -7 102 -19 73 -34 100 -34 137 -1 30 25 32 30 16 36 -10 4 -36 2 -56
-5 -21 -6 -56 -11 -77 -10 -38 1 -38 1 16 15 30 8 68 15 83 15 52 3 55 25 25
254 -12 94 -23 122 -42 106 -25 -20 -245 -45 -261 -29 -3 3 32 8 77 12 46 4
101 12 123 18 22 5 48 12 59 14 10 2 20 5 22 6 5 6 -74 276 -96 323 -17 39
-38 90 -55 140 -10 28 -29 69 -42 92 -13 23 -20 44 -15 47 10 6 74 -108 87
-154 4 -14 17 -50 30 -80 30 -74 71 -199 94 -290 22 -88 17 -87 161 -47 114
32 294 121 322 160 11 15 28 32 38 37 17 9 16 6 -4 -31 -19 -33 -40 -49 -102
-81 -44 -23 -82 -45 -85 -50 -3 -5 -21 -14 -40 -19 -19 -5 -82 -21 -142 -37
-59 -15 -111 -32 -116 -38 -5 -5 -3 -35 5 -74 7 -36 14 -107 14 -158 0 -70 3
-94 14 -98 18 -7 236 55 257 72 8 8 24 14 35 14 11 0 46 15 77 34 31 19 59 31
62 26 17 -27 -242 -137 -366 -156 -83 -13 -98 -33 -53 -75 l26 -24 -24 -5
c-19 -5 -23 -13 -25 -45 -4 -57 -25 -145 -36 -152 -7 -4 -7 6 -2 28 14 62 22
133 17 151 -3 13 -14 18 -38 18 -39 0 -46 -22 -14 -42 42 -26 6 -39 -45 -16
-20 9 -34 9 -61 -1 -41 -15 -74 -7 -74 19 0 18 -36 38 -47 26 -3 -3 -20 6 -38
19 -50 39 -56 34 -53 -47 2 -44 -1 -73 -8 -75 -7 -2 -11 15 -11 46 0 28 -8 68
-18 91 -17 39 -17 41 0 80 15 34 17 58 13 164 -3 68 -10 130 -14 138 -12 18
-7 188 5 221 6 15 25 36 43 45 55 29 91 70 86 97 -3 13 -2 47 3 74 7 47 -1
116 -12 96 -3 -6 -12 -29 -19 -53 -8 -26 -26 -53 -43 -65 -62 -47 -79 -67 -71
-85 12 -25 10 -90 -3 -103 -8 -8 -15 2 -25 37 -11 40 -20 52 -49 67 -38 18
-69 14 -69 -9 0 -8 10 -14 24 -14 35 0 42 -18 12 -30 -31 -11 -32 -26 -6 -60
26 -33 25 -53 -6 -106 -28 -47 -48 -62 -103 -79 -22 -6 -41 -21 -51 -40 -9
-17 -25 -32 -35 -33 -15 -3 -17 1 -11 22 5 20 3 26 -9 26 -27 0 -29 -31 -7
-74 30 -55 28 -77 -10 -110 l-32 -28 -26 29 c-28 31 -69 63 -82 63 -17 0 -7
-38 22 -84 24 -38 50 -117 50 -153 0 -10 66 11 73 23 4 7 29 23 55 34 26 12
59 32 74 46 27 27 66 29 59 3 -2 -8 -6 -36 -9 -64 -4 -42 -3 -48 9 -39 22 18
106 17 113 -1 3 -8 12 -15 20 -15 19 0 28 -27 11 -34 -7 -2 -16 1 -19 9 -3 8
-14 13 -25 12 -15 -1 -21 -8 -21 -27 0 -23 -4 -26 -35 -27 -32 -1 -37 2 -42
28 -7 38 -19 45 -33 19 -14 -25 -65 -27 -115 -3 -27 13 -38 14 -47 5 -17 -17
15 -49 55 -55 18 -3 59 -15 91 -26 47 -17 75 -20 128 -16 70 5 89 -6 45 -26
-24 -11 -87 -4 -227 25 -41 9 -81 14 -89 11 -11 -4 -12 -37 -6 -183 4 -97 7
-184 7 -192 0 -52 21 -178 34 -202 14 -28 14 -30 -3 -26 -22 4 -31 44 -43 198
-5 63 -12 131 -16 150 -4 19 -6 85 -5 147 3 111 2 112 -25 135 -83 70 -96 84
-109 114 -7 18 -27 47 -44 65 -17 17 -31 36 -31 42 0 9 30 6 63 -8 15 -6 17 0
17 61 0 95 -6 113 -44 122 -25 7 -32 14 -34 40 -3 32 -33 62 -62 62 -8 0 -27
-6 -42 -14 -14 -8 -42 -19 -62 -26 -42 -14 -71 -59 -62 -99 18 -88 19 -94 5
-89 -8 3 -27 24 -44 47 -28 40 -30 49 -30 129 l0 87 -45 14 c-41 13 -43 15
-22 24 12 6 22 16 22 24 0 24 -20 53 -35 53 -8 0 -33 16 -55 36 -29 26 -42 47
-46 75 -8 46 -24 42 -24 -6 0 -26 7 -39 31 -58 25 -19 30 -30 27 -57 -4 -44
-44 -68 -130 -79 l-63 -7 38 -23 c20 -13 37 -27 37 -33 0 -5 -23 -49 -51 -96
-51 -86 -51 -88 -45 -152 14 -163 19 -199 27 -194 5 3 9 14 9 24 0 15 37 49
41 38 1 -2 6 -37 13 -78 9 -62 14 -75 31 -79 23 -4 78 -41 72 -48 -3 -2 -22 5
-43 16 -21 12 -48 21 -60 21 -86 0 -184 302 -184 566 0 124 33 293 84 434 23
62 80 162 107 185 12 11 41 49 65 85 84 126 222 235 312 245 28 3 77 15 108
25 31 11 60 17 65 14 17 -10 9 -51 -16 -78 -14 -15 -25 -29 -25 -31 0 -21 367
38 392 63 4 4 4 22 -1 40 -7 24 -6 32 3 32 18 0 33 -19 41 -52 10 -40 49 -78
73 -71 14 3 25 -3 37 -21 18 -27 49 -34 60 -15 4 5 0 18 -9 28 -29 32 -20 44
27 37 70 -11 197 28 197 60 0 23 17 8 22 -21 4 -21 1 -25 -19 -25 -13 0 -34
-5 -45 -11 -12 -7 -44 -14 -71 -18 -62 -7 -70 -24 -19 -39 49 -15 90 -15 131
-1 23 8 43 8 76 0 28 -7 52 -8 67 -2 13 6 17 10 9 10 -28 2 -50 33 -77 112
-17 48 -36 84 -48 92 -20 13 -127 30 -270 43 -63 7 -68 6 -64 -12 1 -10 17
-26 35 -35 26 -13 29 -17 14 -25 -19 -12 -158 6 -145 19 9 8 -97 10 -120 1
-22 -8 -10 -24 18 -24 13 0 29 -7 36 -15 11 -13 8 -15 -17 -15 -16 0 -33 3
-37 7 -14 14 -74 12 -87 -3 -15 -19 -29 -18 -29 2 0 18 38 53 60 54 10 0 11 3
4 10 -8 8 -24 6 -55 -4 -24 -9 -60 -16 -80 -16 -21 0 -62 -14 -98 -32 -58 -30
-97 -32 -57 -2 39 28 224 92 307 107 99 17 359 21 409 7z m174 -95 c9 -13 16
-32 16 -41 0 -10 -10 -3 -25 20 -27 40 -29 46 -16 46 5 0 16 -11 25 -25z
m-714 -12 c0 -5 -7 -16 -14 -26 -12 -16 -14 -16 -20 -1 -3 9 -4 20 0 25 6 11
34 12 34 2z m-231 -54 c-24 -15 -45 -11 -24 5 11 8 24 12 28 9 5 -3 3 -9 -4
-14z m251 -20 c0 -14 33 -11 75 7 52 21 65 13 24 -16 -35 -26 -138 -65 -146
-56 -3 3 2 14 10 26 8 12 12 30 10 41 -4 15 -2 18 11 13 9 -3 16 -10 16 -15z
m1029 -123 l22 -23 -25 -5 c-23 -5 -26 -2 -26 23 0 35 1 35 29 5z m-99 -106
c0 -5 -4 -10 -9 -10 -4 0 -25 -12 -46 -26 -36 -24 -65 -26 -65 -4 0 5 10 10
23 10 12 0 36 9 52 19 35 23 45 25 45 11z m110 -26 c0 -17 17 -43 52 -80 28
-30 49 -57 46 -59 -3 -3 -35 27 -72 66 -52 57 -64 75 -55 85 18 21 29 17 29
-12z m-68 -197 c22 -32 38 -63 36 -69 -4 -12 -138 177 -138 194 0 13 48 -46
102 -125z m308 104 c20 -49 5 -59 -19 -13 -16 32 -18 42 -7 42 7 0 19 -13 26
-29z m-20 -64 c0 -7 -9 -20 -20 -30 -11 -9 -20 -22 -20 -29 0 -7 -38 -31 -85
-53 -46 -22 -84 -46 -84 -53 -1 -8 -7 -12 -13 -9 -7 2 -44 -5 -83 -16 -89 -24
-150 -33 -141 -19 3 5 20 12 38 15 70 11 153 37 163 50 5 8 15 12 22 10 21 -7
127 57 168 101 42 46 55 54 55 33z m78 -42 c-3 -3 -9 2 -12 12 -6 14 -5 15 5
6 7 -7 10 -15 7 -18z m-91 -72 c26 -33 93 -173 83 -173 -5 0 -16 16 -24 35 -8
19 -31 62 -50 95 -34 57 -39 79 -9 43z m-159 -125 c35 -64 72 -161 72 -190 0
-31 -13 -12 -35 52 -10 30 -28 75 -40 100 -25 50 -39 90 -32 90 3 0 18 -24 35
-52z m339 -60 c-3 -8 -6 -5 -6 6 -1 11 2 17 5 13 3 -3 4 -12 1 -19z m-1920
-174 c3 -9 1 -19 -5 -23 -10 -6 -48 -178 -55 -251 -2 -19 -5 -4 -5 35 -2 56
15 178 34 243 5 17 23 15 31 -4z m1913 -83 c5 -17 5 -31 0 -31 -8 0 -20 34
-20 59 0 21 9 8 20 -28z m-210 -40 c5 -30 9 -86 9 -125 l-1 -71 -13 100 c-7
55 -16 116 -20 135 -6 26 -5 32 4 25 6 -6 15 -35 21 -64z m-829 6 c-16 -16
-26 20 -10 40 13 15 14 14 17 -7 2 -12 -1 -27 -7 -33z m-601 -31 c0 -2 -7 -65
-15 -140 -11 -95 -12 -143 -5 -156 7 -13 7 -21 0 -25 -17 -11 6 -283 27 -306
11 -14 11 -18 0 -28 -27 -22 -36 13 -43 169 -4 85 -10 160 -15 165 -4 6 -4 29
1 50 5 22 10 70 10 107 0 76 17 168 31 168 5 0 9 -2 9 -4z m615 -58 c5 -20 17
-44 26 -54 27 -31 50 -84 47 -107 -2 -15 -11 -23 -29 -25 -30 -4 -58 23 -42
39 11 11 -11 69 -27 69 -12 0 -22 65 -14 95 9 35 26 27 39 -17z m1050 -30 c-9
-30 -21 -42 -34 -34 -7 5 -6 15 5 32 20 30 38 31 29 2z m-2104 -73 c36 -19 75
-36 86 -38 12 -2 27 -8 35 -14 15 -13 134 -53 157 -53 9 0 34 -9 56 -19 62
-30 14 -25 -100 10 -55 17 -110 31 -123 32 -12 1 -26 7 -30 13 -4 6 -39 28
-79 47 -65 33 -97 57 -76 57 5 0 38 -16 74 -35z m1019 0 c0 -12 -36 -45 -49
-45 -10 0 -8 7 9 25 22 23 40 32 40 20z m-913 -162 c-3 -10 -5 -4 -5 12 0 17
2 24 5 18 2 -7 2 -21 0 -30z m451 -5 c39 -6 72 -15 72 -20 0 -16 -176 17 -187
35 -4 7 2 8 18 3 13 -3 57 -12 97 -18z m1321 -50 c-1 -40 -7 -84 -12 -98 -5
-14 -9 -35 -9 -46 1 -12 -5 -27 -13 -34 -7 -6 -21 -34 -31 -62 -9 -28 -23 -62
-30 -77 -8 -14 -14 -38 -14 -53 0 -18 -11 -35 -37 -56 -21 -17 -58 -49 -82
-71 -46 -43 -61 -50 -60 -28 1 29 17 48 60 76 26 16 61 50 79 76 34 50 84 164
76 172 -3 3 4 19 15 35 14 19 26 64 37 133 8 58 17 105 20 105 2 0 3 -33 1
-72z m-1759 -48 c5 -19 12 -51 15 -70 3 -19 13 -43 22 -52 14 -16 14 -18 -2
-24 -22 -9 -50 23 -35 41 6 7 4 29 -5 60 -8 26 -14 67 -14 89 1 24 3 31 5 16
3 -14 8 -41 14 -60z m1930 18 c-16 -30 -41 -58 -52 -58 -5 0 5 21 22 46 33 46
51 55 30 12z m-612 -147 c39 -64 77 -94 102 -81 39 20 224 70 232 62 5 -5 -35
-21 -89 -36 -155 -44 -146 -38 -157 -107 -7 -42 -49 -99 -87 -122 -15 -8 -33
-28 -41 -43 -8 -18 -23 -30 -38 -33 -25 -3 -25 -3 -6 18 18 20 18 21 0 26 -11
3 -51 21 -89 40 -70 34 -71 34 -125 21 -158 -38 -210 -40 -210 -10 0 7 -11 39
-25 70 -14 31 -25 58 -25 59 0 2 27 12 61 24 33 11 87 38 121 61 33 22 66 40
73 40 7 0 36 12 63 26 58 30 85 26 104 -14 15 -30 56 -42 69 -20 5 7 9 28 9
46 0 17 5 32 10 32 6 0 27 -27 48 -59z m-1106 -48 c38 -12 47 -18 31 -21 -12
-2 -31 2 -42 7 -11 6 -28 11 -38 11 -10 1 -31 7 -48 15 l-30 15 37 -5 c20 -3
60 -13 90 -22z m311 -59 c42 -4 77 -11 77 -16 0 -6 -27 -7 -67 -3 -85 8 -163
25 -163 35 0 4 17 4 38 -1 20 -4 72 -11 115 -15z m-434 -48 c25 -39 27 -53 6
-36 -19 16 -46 70 -35 70 5 0 18 -15 29 -34z m261 -49 c7 -29 22 -71 33 -94
21 -44 17 -68 -7 -42 -12 13 -66 191 -66 214 1 24 30 -32 40 -78z m1420 66 c0
-10 -83 -93 -93 -93 -5 0 11 22 35 50 41 46 58 59 58 43z m-1732 -62 c28 -24
29 -35 1 -21 -28 16 -59 43 -59 53 0 9 26 -5 58 -32z m157 -83 c5 -5 0 -8 -12
-8 -24 0 -73 46 -73 68 0 11 12 5 38 -19 20 -18 41 -37 47 -41z m830 -50 c-4
-29 -12 -59 -18 -66 -6 -7 -18 -34 -27 -60 -9 -26 -21 -55 -25 -66 -8 -18 -5
-18 51 -11 32 4 85 16 118 26 77 26 103 21 52 -9 -67 -39 -140 -53 -296 -54
-148 -1 -224 7 -200 22 7 4 58 5 114 3 65 -4 110 -2 123 5 13 7 28 37 43 84
13 40 27 77 32 83 4 5 8 25 8 45 0 37 6 50 23 50 5 0 6 -22 2 -52z m319 -1
c-9 -5 -28 -22 -41 -36 l-24 -26 7 24 c8 31 44 61 62 53 11 -4 10 -7 -4 -15z
m-1074 -54 c11 -10 38 -27 60 -39 22 -12 37 -24 33 -27 -11 -11 -123 57 -123
75 0 12 8 10 30 -9z m1145 -47 c-34 -23 -113 -55 -120 -48 -4 4 20 19 52 34
64 29 101 37 68 14z m-854 -84 c-22 -4 -91 33 -91 49 0 5 25 -4 56 -19 43 -20
51 -28 35 -30z"/>
<path d="M2110 3474 c-22 -12 -23 -13 -5 -13 24 -1 50 14 38 22 -4 3 -19 -1
-33 -9z"/>
<path d="M1913 3228 c-27 -13 -28 -25 -7 -53 13 -17 16 -18 24 -5 8 13 15 71
8 69 -2 0 -13 -5 -25 -11z"/>
<path d="M1806 3185 c-28 -42 -35 -142 -12 -151 30 -11 37 10 34 97 l-3 83
-19 -29z"/>
<path d="M2012 3168 c-15 -19 -62 -123 -62 -137 0 -29 24 -1 46 54 14 33 31
65 39 71 8 6 15 14 15 18 0 11 -27 6 -38 -6z"/>
<path d="M2080 3116 c0 -9 5 -16 10 -16 6 0 10 4 10 9 0 6 -4 13 -10 16 -5 3
-10 -1 -10 -9z"/>
<path d="M857 1783 c-16 -15 -5 -30 23 -31 19 0 30 4 30 13 0 19 -39 33 -53
18z"/>
<path d="M4635 1750 c-27 -22 -74 -55 -102 -72 -29 -18 -53 -36 -53 -40 0 -11
53 14 71 34 9 10 32 24 51 32 19 8 40 22 48 30 7 9 18 16 26 16 7 0 18 9 24
20 18 33 -9 24 -65 -20z"/>
<path d="M4777 1776 c-9 -7 -17 -18 -17 -25 0 -6 -7 -11 -15 -11 -8 0 -15 -4
-15 -10 0 -14 41 -8 62 10 32 26 18 59 -15 36z"/>
<path d="M1007 1759 c18 -11 36 -21 40 -21 4 -1 26 -18 48 -40 22 -21 45 -38
52 -38 6 0 18 -6 26 -14 18 -19 36 -22 66 -12 l24 8 -23 13 c-13 7 -30 11 -37
8 -7 -3 -13 0 -13 6 0 20 -52 61 -76 61 -13 0 -24 6 -24 13 0 18 -43 37 -83
37 l-32 0 32 -21z"/>
<path d="M4488 1763 c-21 -8 -38 -19 -38 -23 0 -5 -22 -22 -48 -38 -27 -16
-69 -48 -93 -71 -24 -22 -47 -41 -51 -41 -3 0 -4 -10 0 -22 3 -14 2 -19 -6
-14 -7 4 -12 1 -12 -6 0 -10 -3 -9 -9 1 -8 12 -15 10 -43 -13 -18 -15 -48 -36
-65 -47 -18 -12 -33 -25 -33 -30 0 -5 -7 -9 -15 -9 -8 0 -15 -4 -15 -10 0 -5
-26 -23 -57 -39 -32 -16 -74 -45 -93 -63 -20 -18 -55 -42 -78 -52 -52 -24 -67
-42 -26 -32 52 13 175 77 181 94 7 19 31 36 53 38 23 2 302 203 381 275 30 27
55 45 84 58 11 6 34 21 50 35 l30 25 -30 0 c-16 0 -47 -7 -67 -16z"/>
<path d="M954 1714 c24 -26 39 -35 57 -32 22 3 21 5 -20 36 -58 43 -78 41 -37
-4z"/>
<path d="M860 1705 c0 -8 4 -15 10 -15 5 0 7 7 4 15 -4 8 -8 15 -10 15 -2 0
-4 -7 -4 -15z"/>
<path d="M938 1658 c9 -9 15 -9 24 0 9 9 7 12 -12 12 -19 0 -21 -3 -12 -12z"/>
<path d="M1026 1655 c-4 -11 3 -19 20 -25 32 -13 44 -13 44 0 0 5 -7 7 -15 4
-10 -4 -15 0 -15 15 0 24 -25 28 -34 6z"/>
<path d="M744 1645 c-8 -20 3 -48 16 -40 5 3 10 2 10 -3 0 -6 7 -13 16 -16 8
-3 12 -2 9 4 -7 11 -7 11 55 15 27 2 54 -3 68 -11 15 -10 22 -11 22 -3 0 25
-63 52 -72 31 -1 -5 -14 -5 -28 -1 -16 4 -19 7 -7 8 9 1 17 5 17 10 0 24 -97
30 -106 6z"/>
<path d="M4557 1631 c-47 -48 -27 -49 32 -3 18 14 20 20 9 24 -7 3 -26 -7 -41
-21z"/>
<path d="M4720 1645 c-7 -9 -19 -14 -26 -11 -6 2 -20 -2 -31 -10 -17 -13 -16
-14 10 -8 17 4 27 2 27 -5 0 -6 10 -9 23 -7 12 3 31 5 42 6 17 2 16 3 -5 10
-24 8 -24 8 -2 9 12 1 22 7 22 16 0 20 -44 20 -60 0z"/>
<path d="M1340 1643 c0 -5 12 -16 28 -25 15 -9 38 -26 52 -38 46 -41 73 -54
102 -51 20 2 28 -2 28 -14 0 -9 5 -13 11 -10 6 4 10 1 8 -6 -3 -29 2 -38 39
-60 20 -13 48 -33 60 -45 13 -13 44 -33 68 -44 24 -12 44 -25 44 -30 0 -7 99
-60 113 -60 20 0 1 18 -40 40 -27 14 -67 43 -89 65 -106 102 -275 230 -288
218 -3 -4 -6 -1 -6 6 0 7 -19 20 -42 30 -60 26 -88 34 -88 24z"/>
<path d="M4798 1638 c10 -12 9 -18 -3 -28 -8 -7 -13 -16 -10 -20 3 -4 -2 -13
-10 -20 -8 -7 -15 -9 -15 -4 0 5 -5 1 -11 -8 -5 -10 -17 -18 -24 -18 -8 0 -15
-5 -15 -11 0 -5 -4 -8 -9 -4 -6 3 -8 -4 -6 -15 2 -12 -3 -24 -14 -30 -19 -10
-38 -44 -22 -38 24 8 152 141 148 153 -4 9 1 11 15 7 16 -4 19 -1 16 14 -2 10
-8 19 -13 19 -6 0 -17 4 -25 10 -13 7 -13 6 -2 -7z"/>
<path d="M978 1633 c7 -3 16 -2 19 1 4 3 -2 6 -13 5 -11 0 -14 -3 -6 -6z"/>
<path d="M1280 1615 c0 -8 4 -15 10 -15 5 0 17 -8 27 -19 27 -27 73 -55 73
-43 0 6 -15 19 -32 31 -18 11 -43 29 -55 41 -18 16 -23 18 -23 5z"/>
<path d="M4087 1586 c-71 -44 -88 -57 -191 -141 -33 -28 -88 -72 -121 -97 -63
-48 -94 -78 -79 -78 20 1 133 68 174 103 37 31 42 40 30 48 -12 9 -11 10 5 4
25 -8 78 21 98 54 14 25 17 31 17 49 0 4 5 0 10 -8 6 -9 10 -10 10 -3 0 15 28
43 42 43 7 0 1 -11 -12 -25 -32 -34 -12 -31 41 6 68 48 94 89 56 89 -7 0 -43
-20 -80 -44z m33 -6 c0 -5 -7 -10 -16 -10 -8 0 -12 5 -9 10 3 6 10 10 16 10 5
0 9 -4 9 -10z"/>
<path d="M1010 1611 c0 -10 21 -16 43 -12 5 1 6 -3 3 -8 -3 -5 5 -16 19 -25
13 -9 32 -24 42 -34 23 -23 100 -72 112 -72 6 0 8 7 5 15 -4 8 -11 15 -18 15
-6 0 -35 25 -65 55 -29 30 -57 52 -61 50 -5 -3 -10 -1 -12 4 -5 13 -68 25 -68
12z"/>
<path d="M4404 1585 c-10 -8 -14 -15 -8 -15 5 0 19 7 30 15 10 8 14 15 8 15
-5 0 -19 -7 -30 -15z"/>
<path d="M950 1566 c0 -26 28 -40 51 -25 11 7 9 13 -11 29 -33 26 -40 25 -40
-4z"/>
<path d="M1156 1582 c-3 -6 1 -12 9 -16 8 -3 15 -12 15 -21 0 -8 8 -15 18 -15
18 0 82 -55 82 -71 0 -11 38 -22 50 -14 9 6 -37 48 -132 119 -20 15 -39 23
-42 18z"/>
<path d="M4485 1579 c-11 -17 0 -20 21 -4 17 13 17 14 2 15 -9 0 -20 -5 -23
-11z"/>
<path d="M4540 1544 c-36 -24 -64 -48 -62 -52 4 -13 27 -8 40 10 12 17 47 14
36 -3 -3 -5 -9 -7 -14 -4 -4 3 -10 -4 -13 -15 -3 -11 -1 -23 4 -26 5 -3 9 3 9
12 0 14 3 15 12 6 21 -21 26 -13 18 23 -6 29 -5 35 11 40 16 5 36 42 27 50 -1
1 -32 -17 -68 -41z"/>
<path d="M1305 1549 c-8 -11 47 -64 78 -74 9 -4 17 -10 17 -14 0 -4 19 -18 43
-31 23 -13 51 -33 62 -45 11 -12 31 -28 45 -36 28 -17 110 -49 123 -48 5 0 14
-6 20 -14 14 -17 47 -30 47 -18 0 13 -87 71 -107 71 -25 0 -82 36 -90 58 -17
46 -100 109 -129 98 -8 -3 -13 -2 -10 3 3 5 -14 14 -39 21 -25 7 -42 16 -40
21 3 4 1 10 -4 13 -5 4 -13 1 -16 -5z"/>
<path d="M4440 1544 c0 -14 3 -14 15 -4 8 7 15 14 15 16 0 2 -7 4 -15 4 -8 0
-15 -7 -15 -16z"/>
<path d="M4325 1531 c-6 -11 9 -23 19 -14 9 9 7 23 -3 23 -6 0 -12 -4 -16 -9z"/>
<path d="M1005 1490 c3 -5 10 -10 16 -10 5 0 9 5 9 10 0 6 -7 10 -16 10 -8 0
-12 -4 -9 -10z"/>
<path d="M1071 1483 c-10 -11 -11 -17 -2 -26 9 -9 14 -8 22 3 8 11 12 12 16 3
2 -7 11 -13 19 -13 8 0 14 -4 14 -10 0 -5 6 -9 13 -7 6 1 11 -4 9 -11 -1 -8 2
-11 8 -7 21 13 9 32 -38 57 -41 22 -49 24 -61 11z"/>
<path d="M4605 1460 c3 -5 8 -10 11 -10 2 0 4 5 4 10 0 6 -5 10 -11 10 -5 0
-7 -4 -4 -10z"/>
<path d="M4240 1450 c0 -6 -4 -9 -8 -6 -5 3 -23 -8 -41 -24 -18 -17 -41 -35
-53 -41 -17 -9 -18 -13 -7 -20 11 -7 12 -12 2 -29 -21 -32 -15 -33 27 -3 22
15 40 36 40 46 0 12 6 17 18 15 9 -1 23 1 30 6 10 6 9 11 -5 23 -10 8 -13 12
-7 9 14 -7 27 21 14 29 -6 4 -10 1 -10 -5z"/>
<path d="M4270 1430 c0 -5 7 -10 15 -10 8 0 15 5 15 10 0 6 -7 10 -15 10 -8 0
-15 -4 -15 -10z"/>
<path d="M1360 1421 c0 -10 19 -26 43 -34 29 -11 19 11 -13 28 -16 9 -30 11
-30 6z"/>
<path d="M945 1410 c3 -5 8 -10 11 -10 2 0 4 5 4 10 0 6 -5 10 -11 10 -5 0 -7
-4 -4 -10z"/>
<path d="M1300 1411 c0 -12 51 -51 104 -81 26 -14 42 -18 49 -11 13 13 -11 44
-30 37 -7 -3 -13 -2 -13 3 0 5 -8 11 -17 15 -10 3 -25 9 -33 14 -42 25 -60 31
-60 23z"/>
<path d="M1215 1390 c-5 -9 8 -14 19 -7 8 4 46 -36 46 -50 0 -7 6 -12 13 -10
6 1 11 -4 9 -11 -1 -8 5 -12 17 -10 23 4 84 -39 75 -53 -3 -6 3 -13 15 -16 12
-3 21 -9 21 -14 0 -5 3 -8 8 -7 15 4 72 -14 72 -23 0 -5 7 -9 15 -9 8 0 15 -4
15 -10 0 -5 11 -10 25 -10 15 0 24 5 23 13 -2 6 5 11 15 9 28 -5 19 17 -10 24
-92 19 -163 47 -198 76 -54 45 -102 78 -113 78 -5 0 -17 9 -27 20 -20 22 -31
25 -40 10z"/>
<path d="M4545 1380 c2 -3 0 -12 -5 -20 -7 -12 -12 -12 -22 -2 -15 15 -28 16
-28 1 0 -5 4 -8 9 -4 5 3 11 -4 13 -16 l3 -21 28 22 c29 23 36 47 12 47 -8 0
-12 -3 -10 -7z"/>
<path d="M1030 1340 c25 -22 49 -40 55 -40 5 0 4 5 -2 11 -6 6 -9 17 -7 24 3
7 1 16 -5 20 -6 3 -11 1 -11 -5 0 -6 -10 -2 -22 10 -12 11 -29 20 -37 20 -10
-1 2 -16 29 -40z"/>
<path d="M4281 1361 c-16 -12 -20 -20 -12 -25 6 -4 18 0 27 8 8 9 12 16 7 16
-4 0 -1 5 7 10 8 5 11 10 5 10 -5 0 -21 -9 -34 -19z"/>
<path d="M1470 1343 c1 -4 13 -22 28 -39 29 -34 92 -58 132 -52 22 3 20 5 -15
17 -22 8 -58 26 -80 40 -60 40 -65 43 -65 34z"/>
<path d="M1250 1304 c0 -8 5 -12 10 -9 6 4 8 11 5 16 -9 14 -15 11 -15 -7z"/>
<path d="M4205 1308 c-11 -7 -30 -21 -42 -32 l-23 -21 33 0 c17 0 35 5 39 10
5 6 8 4 8 -5 0 -13 1 -13 10 0 6 9 5 17 -3 22 -8 5 -6 12 8 22 25 19 1 22 -30
4z"/>
<path d="M3987 1285 c-68 -32 -70 -39 -8 -31 55 7 124 35 89 36 -10 0 -18 5
-18 10 0 14 -8 12 -63 -15z"/>
<path d="M1147 1255 c-5 -11 15 -25 76 -54 101 -48 158 -66 150 -45 -3 8 -9
14 -14 14 -5 0 -8 5 -6 11 3 14 -36 25 -86 25 -20 -1 -37 4 -37 10 0 6 -11 20
-25 32 -14 12 -25 17 -25 11 0 -8 -4 -8 -14 0 -10 9 -15 8 -19 -4z"/>
<path d="M4390 1256 c0 -8 -6 -14 -12 -13 -34 1 -46 -5 -51 -24 -4 -14 -11
-20 -21 -16 -14 6 -44 -19 -34 -29 6 -6 58 16 58 25 0 3 12 7 26 7 33 2 80 44
62 56 -19 12 -28 10 -28 -6z"/>
<path d="M1039 1187 c-19 -20 -20 -21 -14 -2 7 20 7 20 -10 0 -26 -32 -15 -58
40 -87 27 -15 51 -25 53 -23 2 2 -2 13 -8 25 -8 15 -18 20 -31 17 -20 -5 -27
17 -8 28 15 10 119 12 119 3 0 -5 10 -8 23 -8 12 0 42 -11 66 -25 23 -14 52
-25 62 -25 18 0 76 -34 89 -52 6 -8 49 -3 58 6 3 3 -4 8 -14 12 -10 4 -44 18
-74 31 -95 42 -271 102 -286 96 -8 -3 -14 -1 -14 5 0 21 -31 20 -51 -1z"/>
<path d="M4485 1189 c4 -6 13 -8 20 -5 9 3 12 -3 10 -19 -2 -25 20 -43 29 -22
3 9 5 8 5 -1 1 -17 21 -5 21 13 0 23 -30 45 -61 45 -19 0 -28 -4 -24 -11z"/>
<path d="M3201 1181 c-8 -5 -20 -7 -28 -4 -7 3 -13 0 -13 -6 0 -6 3 -11 8 -12
4 0 18 -2 31 -5 19 -3 22 -1 17 13 -4 14 -3 14 9 -2 12 -16 23 -19 64 -17 39
3 48 7 44 18 -3 9 -12 13 -19 10 -7 -3 -16 -1 -19 4 -8 12 -75 13 -94 1z"/>
<path d="M3512 1179 c4 -13 86 -33 270 -67 l46 -9 -15 23 c-18 28 -13 31 57
37 42 3 41 4 -11 5 -44 2 -58 -2 -63 -14 -3 -8 -11 -12 -18 -8 -6 4 -26 7 -44
6 -24 -1 -32 2 -28 12 4 10 -15 14 -87 15 -51 1 -97 5 -102 8 -5 3 -8 0 -5 -8z"/>
<path d="M4415 1181 c-11 -3 -29 -11 -39 -17 -17 -10 -18 -14 -5 -26 8 -7 20
-13 27 -12 6 1 18 2 25 3 7 1 4 8 -8 18 -17 13 -17 15 -2 10 11 -4 20 -1 24 9
7 19 3 22 -22 15z"/>
<path d="M1847 1168 c-7 -5 0 -8 15 -8 20 0 26 -4 22 -15 -4 -10 0 -15 10 -15
19 0 157 37 163 44 8 8 -198 2 -210 -6z"/>
<path d="M2401 1171 c-11 -7 -9 -10 8 -16 26 -8 49 4 30 16 -17 11 -21 11 -38
0z"/>
<path d="M4190 1165 c-5 -6 -7 -14 -4 -17 8 -9 54 6 54 17 0 14 -38 15 -50 0z"/>
<path d="M1700 1159 c0 -5 5 -8 12 -6 7 1 12 -2 13 -8 1 -28 18 -36 63 -30 49
6 67 14 39 16 -9 1 -20 2 -24 4 -51 14 -62 18 -59 24 2 3 -7 7 -20 7 -13 1
-24 -2 -24 -7z"/>
<path d="M2360 1159 c0 -5 5 -7 10 -4 6 3 10 8 10 11 0 2 -4 4 -10 4 -5 0 -10
-5 -10 -11z"/>
<path d="M3090 1159 c0 -6 -6 -9 -14 -6 -8 3 -22 -1 -33 -9 -16 -14 -15 -14
17 -8 19 3 37 10 40 14 3 4 14 10 25 13 15 4 14 5 -7 6 -16 0 -28 -4 -28 -10z"/>
<path d="M3357 1163 c-7 -12 38 -39 81 -48 18 -3 30 -10 27 -14 -2 -5 26 -9
62 -10 39 -1 74 -7 83 -15 8 -7 49 -16 90 -19 41 -4 76 -11 78 -17 2 -5 26
-10 54 -10 119 0 -1 39 -193 63 -62 8 -118 23 -159 43 -19 10 -50 18 -70 18
-19 1 -38 5 -41 10 -4 4 -9 4 -12 -1z"/>
<path d="M2045 1124 c-65 -23 -172 -45 -288 -59 -51 -7 -55 -25 -6 -25 18 0
28 4 24 10 -4 6 11 10 37 11 119 3 144 5 150 14 5 7 14 6 27 -2 11 -7 23 -9
26 -4 3 5 23 12 44 16 26 4 45 15 55 30 28 43 27 43 -69 9z"/>
<path d="M4140 1139 c0 -5 9 -9 20 -9 11 0 20 2 20 4 0 2 -9 6 -20 9 -11 3
-20 1 -20 -4z"/>
<path d="M4330 1139 c0 -5 5 -7 10 -4 6 3 10 8 10 11 0 2 -4 4 -10 4 -5 0 -10
-5 -10 -11z"/>
<path d="M4495 1120 c-11 -4 -23 -6 -27 -3 -5 2 -8 -1 -8 -6 0 -6 -3 -11 -7
-10 -22 3 -53 -16 -53 -31 0 -13 -6 -17 -20 -13 -14 4 -20 0 -20 -11 0 -11 -5
-14 -12 -10 -6 4 -8 3 -5 -3 5 -7 -6 -10 -30 -8 -49 5 -99 -19 -108 -52 -3
-14 -4 -28 -1 -31 8 -8 58 17 52 26 -2 4 2 16 9 26 10 13 22 17 42 13 27 -5
104 28 197 86 39 24 33 42 -9 27z"/>
<path d="M3850 1110 c19 -13 30 -13 30 0 0 6 -10 10 -22 10 -19 0 -20 -2 -8
-10z"/>
<path d="M4245 1110 c-7 -12 2 -12 30 0 19 8 19 9 -2 9 -12 1 -25 -3 -28 -9z"/>
<path d="M2564 1068 c-3 -4 -2 -12 1 -18 3 -5 1 -10 -5 -10 -8 0 -8 -6 0 -20
6 -12 20 -20 33 -19 17 1 18 2 5 6 -10 2 -18 9 -18 14 0 6 5 7 10 4 14 -9 13
8 -2 23 -9 9 -9 12 0 12 7 0 12 4 12 8 0 5 -7 9 -15 9 -9 0 -18 -4 -21 -9z"/>
<path d="M1150 1050 c0 -5 5 -10 11 -10 5 0 7 5 4 10 -3 6 -8 10 -11 10 -2 0
-4 -4 -4 -10z"/>
<path d="M2620 1040 c0 -5 5 -10 11 -10 5 0 7 5 4 10 -3 6 -8 10 -11 10 -2 0
-4 -4 -4 -10z"/>
<path d="M2925 1040 c-3 -5 -3 -15 1 -22 4 -7 3 -8 -4 -4 -6 3 -16 -2 -21 -13
-15 -26 -14 -36 2 -23 6 6 28 15 47 20 25 7 29 10 13 11 -15 1 -21 6 -17 15 6
17 -12 31 -21 16z"/>
<path d="M2640 1010 c0 -5 0 -13 1 -16 0 -4 -5 -11 -13 -15 -10 -7 -9 -9 5 -9
9 0 17 5 17 11 0 8 5 8 15 -1 18 -15 19 -1 1 23 -15 19 -26 22 -26 7z"/>
<path d="M1330 961 c0 -5 7 -12 16 -15 14 -5 15 -4 4 9 -14 17 -20 19 -20 6z"/>
<path d="M1392 928 c2 -6 15 -15 29 -20 l24 -9 -22 20 c-25 23 -37 27 -31 9z"/>
<path d="M2838 883 c-16 -28 -28 -52 -28 -55 0 -2 12 -5 26 -6 19 -1 25 2 21
12 -3 8 -1 16 4 18 6 2 9 21 7 43 l-3 39 -27 -51z"/>
<path d="M1510 899 c0 -5 -11 -7 -25 -5 -50 9 -23 -11 38 -28 66 -19 248 -34
234 -20 -5 5 -29 9 -54 10 -25 0 -48 5 -51 11 -4 6 -20 13 -37 16 -36 7 -70
15 -70 17 0 1 -8 3 -17 5 -10 2 -18 -1 -18 -6z"/>
<path d="M2717 886 c-10 -27 -8 -36 7 -36 22 0 27 15 12 35 -12 17 -13 17 -19
1z"/>
<path d="M3922 878 c-29 -8 -31 -11 -18 -23 8 -8 21 -15 28 -15 21 0 90 21 85
26 -13 13 -66 20 -95 12z"/>
<path d="M1767 873 c-12 -18 4 -43 27 -43 11 0 39 -3 60 -7 29 -4 37 -3 32 6
-4 6 -11 9 -16 6 -4 -3 -10 0 -12 6 -2 6 -16 12 -31 12 -15 0 -24 3 -21 8 3 5
0 9 -5 9 -6 0 -11 -6 -12 -12 0 -7 -4 -4 -8 6 -5 12 -10 16 -14 9z"/>
<path d="M2751 818 c-1 -20 4 -28 15 -28 12 0 14 4 7 13 -6 6 -13 19 -16 27
-3 9 -6 3 -6 -12z"/>
<path d="M1975 801 c33 -10 80 -26 104 -35 46 -17 54 -17 43 0 -15 23 -81 46
-142 50 l-65 4 60 -19z"/>
<path d="M3589 815 c-3 -2 -14 -6 -25 -8 -10 -1 -28 -9 -39 -16 -14 -9 -15
-11 -3 -7 9 3 35 10 57 16 41 11 53 20 28 20 -8 0 -16 -2 -18 -5z"/>
<path d="M3452 776 c-25 -32 -24 -36 5 -24 41 17 47 25 24 31 -11 3 -24 0 -29
-7z"/>
<path d="M2150 741 c0 -5 5 -13 10 -16 6 -3 10 -2 10 4 0 5 -4 13 -10 16 -5 3
-10 2 -10 -4z"/>
<path d="M3398 733 c-10 -2 -18 -9 -18 -14 0 -6 -5 -7 -12 -3 -7 4 -8 3 -4 -4
5 -9 13 -9 26 -2 15 8 40 33 28 29 -2 -1 -11 -3 -20 -6z"/>
<path d="M3320 679 c0 -5 5 -7 10 -4 6 3 10 8 10 11 0 2 -4 4 -10 4 -5 0 -10
-5 -10 -11z"/>
<path d="M2835 620 c3 -5 18 -10 33 -9 24 0 25 1 7 9 -28 12 -47 12 -40 0z"/>
<path d="M2681 581 c-22 -21 -42 -37 -44 -34 -2 2 -12 -8 -21 -22 -9 -14 -22
-25 -29 -25 -21 -1 -59 -39 -54 -54 4 -9 -1 -17 -12 -21 -19 -6 -68 8 -63 19
6 15 1 26 -10 23 -7 -1 -11 5 -10 13 2 8 0 12 -4 8 -4 -4 -14 -2 -22 5 -13 10
-14 9 -6 -3 27 -45 67 -100 73 -100 11 0 192 129 249 177 31 27 32 28 13 40
-17 11 -25 8 -60 -26z"/>
<path d="M2837 593 c-13 -12 -7 -25 9 -19 8 3 13 2 10 -3 -11 -17 134 -127
149 -114 4 5 5 3 2 -3 -7 -12 53 -64 73 -64 6 0 10 8 8 18 -2 9 -7 15 -12 14
-14 -6 -26 21 -20 41 5 15 2 18 -14 13 -11 -4 -23 -2 -27 4 -3 5 1 10 10 10 9
0 13 5 10 10 -9 14 -49 8 -55 -8 -4 -9 -10 -9 -28 3 -23 17 -29 35 -11 35 5 0
7 -4 4 -10 -3 -6 1 -7 9 -4 19 7 11 24 -10 24 -8 0 -12 5 -9 10 3 6 -1 13 -9
16 -9 3 -16 12 -16 20 0 14 -60 20 -73 7z"/>
<path d="M2775 470 c-3 -5 1 -10 10 -10 9 0 13 5 10 10 -3 6 -8 10 -10 10 -2
0 -7 -4 -10 -10z"/>
<path d="M2810 450 c0 -5 5 -10 11 -10 5 0 7 5 4 10 -3 6 -8 10 -11 10 -2 0
-4 -4 -4 -10z"/>
<path d="M2695 409 c-24 -22 -47 -50 -50 -60 -7 -22 12 -52 26 -43 5 3 9 -2 9
-10 0 -9 4 -16 8 -16 20 0 20 15 1 47 l-21 33 24 9 c13 6 19 10 15 10 -4 1 4
17 19 36 35 46 24 44 -31 -6z"/>
<path d="M3110 439 c0 -5 5 -7 10 -4 6 3 10 8 10 11 0 2 -4 4 -10 4 -5 0 -10
-5 -10 -11z"/>
<path d="M2840 419 c1 -14 48 -54 56 -47 2 3 -10 17 -26 33 -19 18 -30 24 -30
14z"/>
<path d="M2710 271 c0 -5 5 -13 10 -16 6 -3 10 -2 10 4 0 5 -4 13 -10 16 -5 3
-10 2 -10 -4z"/>
<path d="M2772 208 c6 -18 25 -20 31 -3 5 10 0 15 -14 15 -12 0 -19 -5 -17
-12z"/>
</g>
</svg>
