<?xml version="1.0" standalone="no"?>
<!DOCTYPE svg PUBLIC "-//W3C//DTD SVG 20010904//EN"
 "http://www.w3.org/TR/2001/REC-SVG-20010904/DTD/svg10.dtd">
<svg version="1.0" xmlns="http://www.w3.org/2000/svg"
 width="900.000000pt" height="900.000000pt" viewBox="0 0 900.000000 900.000000"
 preserveAspectRatio="xMidYMid meet">

<g transform="translate(0.000000,900.000000) scale(0.100000,-0.100000)"
fill="#000000" stroke="none">
<path d="M4310 8505 c-58 -8 -138 -21 -179 -29 -282 -61 -604 -242 -806 -455
-95 -98 -124 -135 -202 -253 -203 -308 -297 -677 -264 -1041 20 -228 71 -411
171 -609 167 -331 467 -617 801 -764 385 -170 817 -188 1199 -52 93 33 260
110 300 138 14 10 42 27 64 39 103 58 328 269 408 382 88 125 119 177 173 286
98 201 149 399 161 623 21 416 -98 793 -359 1130 -72 92 -110 132 -209 216
-284 239 -590 366 -952 394 -154 12 -170 12 -306 -5z m158 -171 l3 -131 -89
-6 c-100 -7 -219 -33 -331 -71 -141 -49 -345 -172 -453 -274 -20 -19 -41 -33
-46 -31 -24 9 -183 170 -180 183 7 30 238 207 352 269 174 95 361 156 556 182
58 7 123 13 145 12 l40 -2 3 -131z m238 121 c220 -30 382 -84 579 -193 117
-64 318 -219 330 -255 5 -13 -6 -30 -41 -63 -68 -65 -78 -69 -121 -47 -28 14
-40 28 -51 61 -10 31 -25 50 -53 69 -36 24 -39 29 -33 59 5 26 2 34 -14 43
-32 17 -42 13 -42 -14 0 -27 -13 -31 -56 -15 -22 9 -31 7 -49 -10 -26 -24 -63
-26 -113 -4 -151 64 -299 101 -434 111 l-88 6 0 133 0 134 38 0 c21 0 87 -7
148 -15z m-236 -430 l0 -135 -44 0 c-24 0 -88 -9 -142 -20 -151 -31 -322 -117
-449 -226 -29 -24 -56 -44 -61 -44 -15 0 -174 164 -174 179 0 21 70 82 185
160 140 95 281 155 449 191 82 17 121 23 209 28 l27 2 0 -135z m270 110 c70
-13 256 -72 304 -97 43 -22 66 -51 66 -83 0 -18 10 -45 21 -60 12 -15 26 -48
31 -73 10 -58 18 -65 51 -53 37 14 51 7 71 -40 18 -40 18 -42 -1 -68 -14 -17
-29 -26 -49 -26 -25 0 -30 5 -42 48 -11 41 -19 51 -48 63 -25 11 -36 22 -41
44 -9 46 -20 44 -26 -3 -5 -36 -2 -46 20 -69 35 -37 19 -35 -37 3 -140 95
-358 169 -497 169 l-42 0 -3 128 c-2 70 -1 131 0 135 5 10 120 0 222 -18z
m-1309 -266 l91 -91 -24 -26 c-12 -15 -30 -35 -40 -44 -24 -25 -126 -193 -163
-268 -34 -68 -85 -219 -105 -307 -7 -29 -15 -95 -18 -145 l-7 -93 -125 -5
c-69 -3 -128 -4 -132 -2 -17 7 -8 127 23 307 32 184 158 465 283 630 78 103
106 135 118 135 4 0 49 -41 99 -91z m2293 25 c216 -263 350 -601 358 -900 l3
-109 -127 -1 -128 0 0 25 c0 68 -35 258 -66 360 -20 62 -40 138 -44 169 -11
67 -112 249 -179 324 l-43 48 77 76 c43 41 83 73 89 71 6 -2 33 -30 60 -63z
m-1254 -204 l0 -159 -37 -6 c-139 -24 -266 -75 -341 -138 -24 -21 -48 -37 -53
-37 -17 0 -217 195 -218 213 -1 22 93 96 202 160 106 61 305 122 415 126 l32
1 0 -160z m223 135 c145 -33 272 -90 381 -172 48 -37 90 -73 93 -80 7 -19
-186 -213 -211 -213 -10 0 -39 15 -65 34 -94 69 -209 115 -326 130 -22 3 -41
5 -42 6 -2 0 -3 72 -3 160 l0 160 33 0 c17 0 80 -11 140 -25z m-1039 -174 c47
-46 86 -87 86 -91 0 -5 -16 -26 -36 -47 -64 -67 -146 -223 -184 -348 -22 -69
-52 -238 -48 -263 3 -15 -9 -16 -107 -14 -60 1 -121 2 -133 2 -24 0 -24 1 -17
88 15 197 98 442 202 594 61 90 127 168 140 166 6 -2 50 -41 97 -87z m1699
-40 c13 -5 34 -25 46 -44 15 -25 37 -41 76 -57 51 -21 82 -49 127 -114 12 -15
29 -26 49 -28 29 -3 33 -8 60 -81 39 -106 71 -266 67 -341 l-3 -61 -123 -1
c-67 -1 -125 2 -128 7 -3 5 -10 55 -16 111 -8 77 -8 109 1 135 13 36 6 62 -12
44 -18 -18 -24 -13 -41 29 -18 45 -21 100 -6 100 5 0 17 -16 26 -35 18 -39 34
-46 34 -15 0 11 -23 43 -51 71 -28 28 -59 69 -68 92 -10 23 -28 51 -40 61 -11
11 -21 24 -21 30 0 5 -12 27 -26 47 -36 53 -15 74 49 50z m-1459 -190 c74 -75
105 -114 100 -123 -31 -51 -98 -138 -123 -161 -17 -16 -31 -33 -31 -38 0 -5
-11 -9 -25 -9 -39 0 -72 -40 -80 -96 -14 -101 -11 -98 -111 -105 -49 -4 -93
-4 -98 -1 -19 11 22 247 59 337 35 84 76 157 130 230 31 41 59 75 63 75 5 0
57 -49 116 -109z m1384 29 c28 -38 52 -72 52 -76 0 -3 -7 -12 -15 -20 -23 -23
-19 -30 31 -65 88 -60 100 -175 26 -242 -23 -21 -37 -9 -27 22 3 11 3 31 -1
45 -5 20 -12 26 -34 26 -15 0 -33 -7 -40 -15 -18 -21 -40 -19 -40 5 0 13 -23
34 -70 64 -67 44 -130 113 -130 144 0 17 168 181 185 182 6 0 34 -31 63 -70z
m-810 -97 l-3 -128 -43 -3 c-35 -3 -45 -8 -57 -32 -32 -62 -85 -74 -136 -30
-66 58 -149 143 -149 155 0 15 87 74 166 111 60 28 147 52 197 53 l28 1 -3
-127z m154 116 c59 -12 206 -79 232 -105 10 -9 15 -23 12 -31 -3 -7 1 -16 9
-19 21 -9 18 -30 -7 -54 -17 -16 -33 -20 -63 -18 l-40 3 3 -42 c4 -52 -15 -65
-59 -39 -20 12 -39 15 -59 11 -26 -6 -30 -4 -30 14 0 12 4 21 8 21 15 0 53 41
47 51 -11 16 -30 10 -40 -13 -13 -29 -45 -34 -84 -13 l-31 16 0 114 0 115 25
0 c13 0 48 -5 77 -11z m-504 -263 c28 -28 52 -56 52 -63 0 -23 -26 -14 -54 18
-25 27 -32 30 -79 28 -29 -2 -52 1 -54 8 -6 17 55 76 69 67 7 -5 37 -31 66
-58z m384 -96 c18 -11 40 -20 48 -20 8 0 33 -21 57 -47 41 -44 43 -50 43 -107
0 -75 8 -87 56 -95 42 -7 57 -29 25 -38 -16 -4 -23 -16 -28 -46 -8 -52 -34
-77 -78 -77 -30 0 -37 -5 -49 -35 -16 -39 -47 -51 -99 -41 -17 4 -47 8 -65 10
-36 3 -68 28 -58 45 4 6 27 11 52 11 43 0 46 2 64 43 35 75 21 111 -42 105
-28 -3 -37 -10 -60 -53 -33 -63 -44 -75 -67 -75 -30 0 -33 28 -6 53 26 24 49
83 36 92 -5 2 -19 -7 -31 -20 -30 -32 -48 -32 -60 1 -17 44 -13 57 15 50 21
-5 27 -1 45 33 11 22 20 46 20 53 0 16 87 103 112 111 9 3 19 19 23 36 4 17 8
31 11 31 2 0 18 -9 36 -20z m948 -45 c0 -14 -6 -34 -12 -46 -11 -17 -10 -22 9
-37 24 -19 37 -60 25 -79 -5 -8 -41 -14 -96 -17 -72 -3 -88 -2 -93 11 -10 26
26 77 71 101 27 15 49 36 59 58 20 40 37 44 37 9z m-1616 -130 c11 -30 -5 -46
-43 -43 -30 2 -35 6 -33 23 2 11 9 23 15 27 20 13 55 9 61 -7z m-667 -160 c2
-33 12 -113 24 -177 26 -141 23 -148 -57 -148 l-54 0 0 -60 c0 -59 1 -61 47
-105 27 -25 61 -46 80 -50 20 -4 52 -25 85 -57 29 -28 64 -58 79 -67 15 -9 45
-39 66 -66 22 -28 47 -56 56 -64 10 -7 17 -21 17 -30 0 -18 -161 -181 -179
-181 -12 0 -112 119 -167 200 -124 183 -225 463 -254 705 -9 77 -15 146 -12
153 3 9 36 12 136 10 l131 -3 2 -60z m298 54 c4 -6 9 -36 12 -67 5 -53 2 -60
-29 -102 -29 -40 -33 -53 -34 -110 -1 -36 -2 -71 -3 -77 -1 -9 -21 -13 -65
-13 -39 0 -67 5 -73 13 -15 18 -51 202 -58 290 l-6 77 125 0 c78 0 127 -4 131
-11z m205 7 c0 -2 -7 -21 -16 -42 -15 -35 -14 -66 1 -106 16 -42 -83 -9 -122
40 -7 9 -13 37 -13 64 l0 48 75 0 c41 0 75 -2 75 -4z m170 -11 c18 -22 7 -39
-25 -40 -27 0 -30 -4 -37 -45 -5 -26 -4 -48 2 -54 14 -14 24 0 25 32 0 19 6
28 20 30 17 2 24 -10 47 -85 26 -86 67 -161 116 -214 l24 -27 -44 -40 c-23
-22 -55 -51 -69 -64 -15 -14 -32 -35 -38 -46 -13 -24 -30 -29 -35 -9 -2 6 -13
44 -24 82 -35 120 -41 138 -66 211 -13 39 -36 95 -51 124 l-27 52 25 27 c14
14 30 36 36 48 8 15 23 23 49 26 20 2 42 4 48 5 6 1 17 -5 24 -13z m358 -13
c3 -19 -1 -22 -27 -22 -24 0 -31 4 -31 19 0 37 53 39 58 3z m1278 17 c9 -15
-24 -184 -53 -269 -57 -168 -180 -366 -210 -336 -3 3 -9 23 -12 43 -6 35 -9
38 -38 37 -31 -2 -32 0 -27 30 3 17 12 52 20 77 25 81 -5 103 -66 49 -35 -31
-84 -41 -78 -16 2 7 23 29 48 48 39 30 82 81 92 108 3 11 99 39 163 49 55 8
55 28 1 102 -25 35 -46 69 -46 76 0 16 196 17 206 2z m302 -50 c5 -103 -45
-305 -113 -455 -58 -126 -208 -344 -237 -344 -4 0 -8 21 -8 48 0 60 -17 122
-36 129 -19 7 -44 -14 -44 -38 0 -10 -4 -20 -9 -23 -14 -9 -71 43 -71 65 0 10
27 56 61 101 33 45 72 104 86 131 41 83 93 253 99 330 10 130 -5 118 142 115
l127 -3 3 -56z m314 49 c7 -18 -10 -179 -28 -273 -51 -267 -188 -552 -354
-736 l-51 -57 -95 95 -95 95 49 56 c147 172 258 419 297 664 8 54 15 114 15
133 l0 35 129 0 c94 0 130 -3 133 -12z m-2109 -115 c49 -13 63 -23 79 -50 24
-40 31 -41 46 -8 20 43 48 23 31 -22 -5 -13 -6 -37 -2 -53 5 -27 0 -36 -40
-75 -25 -25 -50 -45 -56 -45 -27 0 -119 161 -136 238 -8 38 -5 39 78 15z m274
-39 c4 -11 -6 -28 -30 -50 -41 -39 -47 -41 -47 -14 0 29 21 69 39 73 28 8 32
7 38 -9z m91 -73 c31 -16 72 -32 90 -36 l32 -7 0 -90 c0 -75 -3 -94 -20 -115
-11 -14 -20 -31 -20 -38 0 -6 9 -20 20 -30 11 -10 20 -23 20 -28 0 -18 -124 1
-191 29 -68 29 -176 99 -192 124 -7 12 15 38 95 117 56 57 104 103 106 103 1
0 28 -13 60 -29z m220 -87 c4 -26 -23 -55 -43 -48 -18 7 -20 45 -3 62 18 18
43 10 46 -14z m269 -51 c2 -6 -10 -24 -26 -39 -39 -34 -41 -64 -6 -64 34 0 31
-14 -7 -38 -61 -37 -118 -50 -195 -45 -80 6 -88 15 -49 52 18 17 33 22 53 18
15 -3 45 -8 65 -12 48 -10 66 5 75 58 10 63 76 114 90 70z m-740 -123 c47 -41
147 -94 198 -105 17 -4 36 -8 42 -10 9 -3 0 -29 -28 -81 l-40 -77 29 -41 c37
-52 82 -82 131 -91 40 -7 55 -22 42 -44 -6 -10 -28 -10 -97 -2 -152 17 -335
89 -409 162 -22 21 -57 54 -77 73 -21 19 -38 43 -38 54 0 23 167 202 188 202
8 0 34 -18 59 -40z m853 -40 c22 -11 56 -20 77 -20 44 0 69 -13 59 -29 -10
-15 -34 -14 -115 5 -81 18 -114 38 -91 54 21 13 25 13 70 -10z m323 -225 c26
-24 53 -58 62 -75 8 -16 27 -33 41 -36 14 -4 24 -12 22 -19 -3 -14 -147 -135
-160 -135 -14 0 -9 89 7 127 22 51 19 65 -20 103 -33 32 -43 58 -28 73 14 14
32 5 76 -38z m-1683 -69 c0 -16 -27 -29 -41 -20 -19 11 -9 34 16 34 15 0 25
-6 25 -14z m107 -46 c31 -35 47 -37 122 -11 123 42 127 42 224 -6 101 -50 293
-103 373 -103 l54 0 0 -135 0 -135 -32 0 c-130 1 -353 58 -496 126 -141 68
-342 217 -342 254 0 47 58 53 97 10z m963 -35 c7 -14 11 -27 9 -29 -2 -2 -36
-7 -75 -11 -61 -6 -72 -4 -78 10 -12 33 21 53 90 54 33 1 43 -3 54 -24z m877
-106 c74 -70 88 -88 79 -100 -16 -22 -140 -127 -209 -178 -70 -51 -236 -141
-303 -165 -175 -60 -239 -78 -337 -96 -61 -11 -141 -20 -179 -20 l-68 0 0 129
c0 150 -12 136 125 147 50 3 129 17 177 29 53 14 104 21 130 18 39 -4 49 0
113 46 39 28 106 76 150 106 44 30 109 81 145 114 36 33 70 59 76 58 7 -1 52
-41 101 -88z m-1926 45 c48 -51 191 -145 306 -203 149 -74 286 -114 438 -126
125 -10 115 3 115 -146 l0 -129 -62 0 c-66 0 -244 28 -339 53 -65 17 -236 85
-311 123 -77 39 -177 106 -264 176 -116 93 -124 101 -124 116 0 21 163 171
186 172 11 0 36 -16 55 -36z m1113 -20 c9 -3 16 -18 16 -33 0 -57 21 -101 65
-138 25 -20 45 -40 45 -44 0 -17 -208 -59 -292 -59 l-38 0 0 135 0 134 68 4
c37 2 79 4 94 5 14 1 33 -1 42 -4z"/>
<path d="M4811 7296 c-19 -23 4 -28 24 -6 15 17 16 20 3 20 -9 0 -21 -6 -27
-14z"/>
<path d="M4405 6860 c-7 -12 2 -30 16 -30 12 0 12 27 0 35 -5 3 -12 1 -16 -5z"/>
<path d="M3782 6618 c2 -13 8 -23 13 -23 6 0 11 10 13 23 2 15 -2 22 -13 22
-11 0 -15 -7 -13 -22z"/>
<path d="M5370 6730 c0 -5 6 -10 14 -10 8 0 18 5 21 10 3 6 -3 10 -14 10 -12
0 -21 -4 -21 -10z"/>
<path d="M3151 8354 c-67 -45 -165 -144 -206 -209 -42 -66 -88 -156 -82 -162
22 -22 224 156 275 243 60 100 92 157 92 160 0 13 -32 -1 -79 -32z"/>
<path d="M5770 8384 c0 -21 93 -176 138 -230 51 -62 187 -174 211 -174 18 0 6
33 -42 119 -54 94 -142 191 -227 247 -67 44 -80 50 -80 38z"/>
<path d="M2774 8232 c-34 -31 -71 -71 -83 -89 -33 -49 -60 -138 -76 -248 -18
-122 -36 -457 -26 -468 4 -4 19 9 33 31 27 40 142 147 271 251 133 107 228
233 252 334 5 18 3 27 -5 27 -30 0 -309 -198 -356 -254 -17 -20 -38 -36 -46
-36 -13 0 -11 23 12 158 30 171 51 256 81 314 11 21 16 38 12 38 -5 0 -36 -26
-69 -58z"/>
<path d="M6140 8281 c0 -5 4 -13 10 -16 20 -13 49 -97 73 -221 29 -143 44
-264 32 -264 -4 0 -35 25 -68 56 -89 81 -310 234 -339 234 -13 0 -3 -31 36
-115 26 -55 53 -90 125 -163 51 -51 117 -108 146 -128 29 -19 98 -81 152 -138
l99 -103 -4 161 c-2 89 -12 223 -23 299 -22 163 -51 235 -131 322 -49 54 -108
95 -108 76z"/>
<path d="M2483 7882 c-38 -52 -82 -159 -103 -251 -33 -151 -28 -231 32 -503
29 -133 57 -238 63 -238 6 0 24 28 40 63 36 77 71 130 136 204 37 42 79 114
150 258 54 109 97 201 95 203 -5 4 -78 -43 -147 -96 -55 -42 -138 -130 -173
-184 -38 -59 -42 -40 -51 215 -5 133 -8 268 -7 300 1 31 -2 57 -6 57 -5 0 -18
-13 -29 -28z"/>
<path d="M6469 7743 c-2 -93 -4 -228 -4 -300 0 -84 -3 -133 -10 -133 -5 0 -47
42 -92 94 -57 64 -110 112 -172 154 -50 34 -93 62 -96 62 -2 0 15 -39 39 -87
24 -49 69 -140 101 -204 38 -78 74 -136 110 -175 51 -56 115 -160 144 -231 15
-38 39 -43 45 -10 3 12 16 72 30 132 57 246 68 312 68 396 -1 161 -40 308
-115 427 -15 23 -31 42 -36 42 -4 0 -10 -75 -12 -167z"/>
<path d="M2225 7328 c-3 -13 -9 -88 -12 -168 -4 -123 -2 -160 16 -244 21 -99
75 -225 142 -331 18 -27 57 -89 87 -137 30 -49 58 -88 63 -88 7 0 11 14 24 95
7 40 23 87 115 325 26 69 51 150 54 180 4 30 12 86 17 123 15 96 1 105 -45 29
-53 -88 -136 -265 -162 -346 -13 -42 -28 -71 -36 -71 -8 0 -26 44 -49 120 -20
66 -61 172 -92 235 -56 118 -97 233 -97 276 0 30 -15 31 -25 2z"/>
<path d="M6750 7339 c0 -33 -60 -199 -109 -299 -28 -58 -66 -157 -85 -220 -42
-141 -55 -149 -86 -53 -32 96 -152 342 -189 386 -19 24 -28 13 -24 -25 29
-231 37 -261 143 -528 21 -52 43 -128 50 -167 7 -40 17 -73 21 -73 7 0 44 58
176 273 111 181 151 351 132 572 -6 72 -15 134 -20 140 -6 5 -9 3 -9 -6z"/>
<path d="M2716 6739 c-9 -28 -25 -116 -40 -219 -28 -187 -36 -260 -36 -326 0
-36 -4 -64 -10 -64 -5 0 -24 19 -40 43 -17 23 -36 49 -43 57 -74 92 -247 334
-290 406 -22 37 -31 44 -38 33 -27 -44 12 -237 72 -355 61 -118 140 -222 258
-337 91 -88 208 -187 222 -187 3 0 2 30 -2 68 -9 103 0 291 16 349 25 86 17
205 -31 453 -15 75 -29 106 -38 79z"/>
<path d="M6252 6734 c-5 -10 -13 -44 -16 -74 -4 -30 -14 -95 -22 -145 -17
-102 -15 -269 6 -380 8 -46 11 -117 8 -207 -4 -99 -2 -136 6 -131 36 21 160
125 211 177 220 220 334 439 335 638 0 31 -4 59 -8 62 -5 3 -35 -36 -68 -87
-32 -51 -64 -98 -72 -106 -7 -7 -31 -39 -53 -70 -39 -55 -88 -122 -112 -151
-7 -8 -27 -39 -46 -68 -61 -96 -67 -91 -74 62 -6 130 -21 246 -53 396 -21 95
-28 110 -42 84z"/>
<path d="M6119 6173 c-62 -107 -79 -138 -128 -235 -67 -130 -79 -178 -96 -369
-8 -90 -21 -188 -30 -217 -9 -30 -15 -56 -13 -58 12 -12 292 78 376 120 155
79 308 253 373 426 36 95 68 245 51 239 -5 -2 -35 -35 -67 -74 -118 -145 -209
-231 -340 -320 -38 -26 -82 -59 -97 -73 -15 -14 -31 -23 -34 -19 -4 3 5 44 20
89 27 84 47 253 40 333 -2 22 -5 77 -8 123 -2 46 -6 85 -9 88 -3 3 -20 -21
-38 -53z"/>
<path d="M2827 6213 c-2 -5 -5 -80 -6 -168 -2 -174 9 -275 41 -373 20 -64 18
-84 -7 -67 -166 117 -265 198 -350 290 -54 58 -109 121 -122 140 -13 19 -30
35 -38 35 -8 0 -15 -2 -15 -4 0 -22 47 -194 65 -239 69 -170 225 -341 380
-419 63 -32 220 -83 308 -102 64 -13 77 -11 58 9 -19 20 -32 94 -41 230 -5 77
-18 174 -29 216 -20 78 -86 219 -164 351 -23 40 -46 81 -50 91 -7 18 -23 23
-30 10z"/>
<path d="M3134 5725 c3 -13 15 -76 26 -138 10 -63 28 -139 40 -169 24 -64 85
-162 124 -197 35 -33 33 -45 -6 -37 -52 11 -248 44 -308 51 -64 8 -248 56
-304 80 -21 9 -41 13 -44 10 -11 -11 152 -156 232 -205 207 -129 468 -163 716
-95 51 14 96 27 98 30 2 2 -34 41 -80 87 -81 81 -95 101 -217 318 -60 106
-132 193 -203 245 -71 52 -83 55 -74 20z"/>
<path d="M5771 5695 c-33 -26 -71 -59 -85 -76 -31 -36 -120 -180 -170 -274
-50 -92 -106 -165 -180 -230 -33 -30 -58 -56 -55 -59 3 -3 50 -18 105 -33 87
-24 117 -27 244 -28 110 0 163 5 220 19 94 24 216 80 297 137 68 49 197 169
189 176 -3 3 -23 -2 -45 -11 -56 -22 -256 -74 -316 -81 -27 -4 -99 -16 -160
-27 -60 -10 -125 -22 -144 -25 -30 -5 -32 -4 -23 13 6 10 25 33 42 49 55 52
108 173 141 319 44 200 41 206 -60 131z"/>
<path d="M3935 5024 c-43 -7 -156 -30 -260 -54 -255 -57 -344 -71 -492 -73
-81 -1 -165 2 -185 6 -21 4 -38 4 -38 0 1 -13 229 -120 305 -143 104 -31 261
-44 388 -31 123 12 217 36 360 90 116 44 175 57 300 67 112 8 116 -5 17 -57
-160 -83 -395 -269 -388 -306 2 -10 15 -22 30 -27 25 -9 31 -5 70 40 69 80
158 161 230 210 82 55 188 104 226 104 34 0 152 -55 234 -111 35 -23 108 -89
164 -146 55 -57 108 -103 116 -103 8 0 23 9 33 20 18 20 17 21 -31 66 -95 89
-255 204 -351 252 -100 51 -97 55 32 53 97 -1 172 -15 246 -47 190 -79 319
-107 499 -108 165 -1 249 14 376 68 107 44 213 99 214 110 0 4 -8 5 -17 2 -70
-27 -341 -12 -538 29 -184 39 -193 41 -300 66 -149 34 -316 32 -450 -6 -55
-15 -130 -38 -166 -52 l-66 -24 -59 21 c-167 61 -247 80 -358 84 -61 3 -124 2
-141 0z"/>
<path d="M8185 4345 c-22 -7 -87 -28 -145 -46 -270 -84 -552 -211 -705 -317
-44 -31 -118 -94 -165 -141 -142 -143 -210 -308 -210 -509 0 -48 7 -116 15
-151 26 -110 109 -265 237 -442 381 -528 483 -705 518 -898 14 -76 14 -234 1
-311 -35 -210 -256 -441 -576 -603 -137 -69 -157 -78 -331 -137 -134 -47 -240
-75 -367 -100 -45 -9 -60 -17 -66 -33 -27 -72 -42 -128 -36 -137 10 -16 330
-12 480 5 235 28 452 81 655 162 491 194 803 477 926 843 27 79 29 96 29 235
0 128 -4 163 -24 240 -45 165 -189 417 -366 640 -455 574 -545 732 -532 930 3
44 13 103 21 130 41 132 191 256 501 415 88 45 163 85 168 89 4 4 13 32 21 62
8 29 18 62 21 72 9 21 -11 22 -70 2z"/>
<path d="M538 3814 c-2 -9 -2 -49 0 -89 l3 -72 70 -6 c77 -6 120 -26 152 -69
28 -38 35 -198 36 -789 1 -517 3 -536 83 -699 92 -190 297 -322 576 -370 191
-33 346 -23 534 36 120 38 204 85 280 159 99 96 168 224 200 370 7 31 13 281
17 655 6 559 7 608 24 638 21 39 84 71 139 72 66 0 68 3 68 96 l0 84 -345 0
-346 0 3 -87 3 -88 71 -6 c86 -6 132 -31 159 -84 19 -38 20 -64 23 -490 4
-458 -5 -673 -33 -787 -50 -202 -206 -335 -431 -368 -248 -36 -475 92 -541
306 -17 54 -18 109 -18 691 0 626 0 632 21 660 30 40 76 64 137 72 l52 6 3 88
3 87 -470 0 c-424 0 -470 -2 -473 -16z"/>
<path d="M3078 3818 c-6 -20 -1 -145 6 -157 4 -6 26 -11 49 -11 54 -1 121 -31
144 -66 17 -27 18 -69 18 -799 l0 -770 -22 -31 c-29 -41 -82 -61 -177 -70
l-77 -7 3 -86 3 -86 375 -3 c206 -1 385 0 398 3 22 5 23 9 20 88 l-3 82 -102
11 c-56 7 -110 17 -121 23 -41 22 -70 69 -76 123 -3 29 -7 313 -10 631 -4 489
-3 577 9 577 12 0 55 -48 155 -174 13 -17 52 -62 85 -101 34 -38 72 -84 86
-101 13 -17 58 -71 100 -120 121 -143 332 -394 358 -428 14 -17 50 -60 81 -96
31 -36 66 -78 79 -95 12 -16 44 -55 71 -85 26 -30 91 -107 144 -170 53 -63
110 -130 125 -148 l29 -33 98 3 99 3 5 910 c4 663 8 915 17 930 28 49 93 85
154 85 56 0 59 5 59 96 l0 84 -350 0 -351 0 3 -87 3 -88 55 -5 c94 -10 142
-46 159 -120 14 -59 15 -1030 1 -1030 -5 0 -40 37 -78 83 -174 206 -370 438
-556 656 -146 172 -283 335 -349 415 -32 39 -81 95 -108 124 l-48 52 -280 0
c-214 0 -280 -3 -283 -12z"/>
<path d="M5617 3823 c-4 -3 -7 -41 -7 -84 0 -86 -4 -82 82 -94 25 -3 61 -16
80 -28 66 -45 63 -4 63 -839 0 -747 0 -757 -21 -785 -32 -44 -98 -71 -191 -79
-71 -6 -82 -9 -87 -28 -8 -31 -7 -146 2 -147 30 -3 1050 -4 1060 -1 8 3 12 29
12 87 l0 82 -82 6 c-97 8 -163 36 -195 86 l-23 34 0 751 c0 732 1 752 20 784
24 39 72 70 122 78 45 8 49 12 75 89 11 33 24 68 28 78 7 16 -19 17 -462 17
-258 0 -473 -3 -476 -7z"/>
<path d="M874 1322 c-10 -7 -17 -593 -7 -619 3 -7 19 -13 35 -13 l30 0 -6 148
c-7 191 -8 166 2 332 9 148 7 160 -28 160 -8 0 -20 -4 -26 -8z"/>
<path d="M1312 1323 c-10 -4 -13 -39 -11 -146 l1 -142 -182 -3 -181 -2 3 -28
3 -27 178 0 177 0 0 -143 0 -143 30 3 30 3 5 313 c2 174 0 312 -5 312 -4 0
-14 2 -22 4 -7 3 -19 2 -26 -1z"/>
<path d="M3164 1316 c-3 -7 -3 -33 0 -57 3 -24 5 -162 5 -305 l1 -262 26 -5
c20 -3 27 1 35 20 21 55 3 478 -21 493 -11 7 -8 17 18 59 1 3 13 -6 27 -19 17
-16 22 -28 16 -39 -13 -25 -5 -50 35 -108 35 -50 39 -53 51 -37 10 14 16 15
25 6 9 -9 8 -12 -5 -12 -9 0 -17 -6 -17 -14 0 -15 30 -44 30 -30 0 5 5 1 11
-9 8 -14 14 -15 24 -7 10 9 15 4 20 -19 4 -17 11 -34 17 -37 7 -5 8 -2 3 6 -6
9 -4 11 5 5 10 -6 10 -10 -3 -19 -16 -12 6 -46 118 -182 48 -59 57 -66 69 -54
5 5 9 148 10 319 l1 311 -35 0 -35 0 2 -92 c1 -51 3 -151 4 -223 1 -71 6 -146
10 -165 5 -22 4 -37 -3 -41 -7 -4 -6 -8 2 -11 7 -2 11 -10 8 -18 -2 -8 -11 2
-22 24 -9 20 -21 34 -27 31 -5 -4 -9 0 -9 8 0 32 -55 120 -141 227 -51 63 -98
120 -104 126 -5 6 -21 26 -35 44 -38 51 -87 100 -99 100 -7 0 -14 -6 -17 -14z"/>
<path d="M4448 1320 c-139 -42 -218 -154 -218 -310 0 -211 124 -326 347 -322
211 4 338 237 253 466 -40 107 -155 177 -288 175 -37 0 -79 -4 -94 -9z m181
-66 c102 -30 161 -124 161 -255 0 -79 -23 -139 -72 -186 -47 -45 -96 -63 -175
-63 -84 0 -138 23 -180 76 -54 69 -63 96 -63 186 1 132 45 202 152 239 66 23
109 24 177 3z m166 -73 c3 -5 1 -12 -4 -15 -5 -3 -11 1 -15 9 -6 16 9 21 19 6z
m-465 -351 c8 -15 8 -20 -3 -20 -7 0 -13 9 -13 20 0 11 1 20 3 20 1 0 7 -9 13
-20z"/>
<path d="M5442 1008 c3 -278 5 -323 18 -325 39 -7 41 3 41 321 0 169 -3 311
-6 316 -4 6 -17 10 -31 10 l-24 0 2 -322z"/>
<path d="M2216 1267 c-13 -30 -27 -66 -31 -79 -4 -12 -16 -39 -26 -58 -10 -19
-32 -65 -49 -102 -16 -38 -43 -96 -58 -130 -16 -35 -37 -85 -47 -111 -10 -26
-22 -50 -26 -53 -5 -3 -9 -14 -9 -25 0 -14 7 -19 29 -19 35 0 44 10 71 83 15
39 29 61 43 65 27 9 349 3 343 -6 -2 -4 11 -36 28 -72 24 -48 38 -66 55 -68
49 -7 52 3 22 70 -16 35 -48 106 -71 158 -23 52 -50 113 -61 135 -10 22 -40
90 -67 150 -49 108 -50 110 -86 113 -35 3 -36 1 -60 -51z m84 4 c0 -5 -6 -12
-12 -14 -10 -4 -9 -8 2 -16 8 -6 12 -11 8 -11 -11 0 37 -131 83 -227 30 -62
46 -84 67 -91 15 -6 21 -11 15 -11 -7 -1 -13 -6 -13 -12 0 -5 5 -7 10 -4 14 9
12 -9 -2 -23 -9 -9 -17 -7 -33 13 -19 24 -24 25 -150 27 -83 1 -138 -3 -152
-10 -48 -26 -59 -8 -14 23 17 11 41 44 56 76 51 112 95 224 95 244 0 21 17 45
32 45 4 0 8 -4 8 -9z"/>
</g>
</svg>
